<?xml version="1.0" encoding="UTF-8" standalone="no"?>
<!-- Created with Inkscape (http://www.inkscape.org/) -->

<svg
   xmlns:dc="http://purl.org/dc/elements/1.1/"
   xmlns:cc="http://creativecommons.org/ns#"
   xmlns:rdf="http://www.w3.org/1999/02/22-rdf-syntax-ns#"
   xmlns:svg="http://www.w3.org/2000/svg"
   xmlns="http://www.w3.org/2000/svg"
   xmlns:sodipodi="http://sodipodi.sourceforge.net/DTD/sodipodi-0.dtd"
   xmlns:inkscape="http://www.inkscape.org/namespaces/inkscape"
   version="1.1"
   id="svg2"
   width="682.66669"
   height="250.66667"
   viewBox="0 0 682.66669 250.66667"
   sodipodi:docname="buskill_wordsonly.svg"
   inkscape:version="0.92.5 (2060ec1f9f, 2020-04-08)">
  <metadata
     id="metadata8">
    <rdf:RDF>
      <cc:Work
         rdf:about="">
        <dc:format>image/svg+xml</dc:format>
        <dc:type
           rdf:resource="http://purl.org/dc/dcmitype/StillImage" />
        <dc:title></dc:title>
      </cc:Work>
    </rdf:RDF>
  </metadata>
  <defs
     id="defs6" />
  <sodipodi:namedview
     pagecolor="#ffffff"
     bordercolor="#666666"
     borderopacity="1"
     objecttolerance="10"
     gridtolerance="10"
     guidetolerance="10"
     inkscape:pageopacity="0"
     inkscape:pageshadow="2"
     inkscape:window-width="1880"
     inkscape:window-height="1055"
     id="namedview4"
     showgrid="false"
     inkscape:zoom="0.40722655"
     inkscape:cx="341.33334"
     inkscape:cy="125.33334"
     inkscape:window-x="40"
     inkscape:window-y="0"
     inkscape:window-maximized="1"
     inkscape:current-layer="svg2" />
  <path
     style="fill:#000000;stroke-width:1.33333337"
     d="m 546.99549,215.8777 c 2.0852,-32.04188 0.6694,-47.99928 -5.2818,-59.53128 -2.9898,-5.79347 -3.5257,-8.13492 -2.7467,-12 0.5324,-2.64114 1.2065,-29.85206 1.4981,-60.468726 l 0.5302,-55.666663 h 13.958 13.958 l 0.018,57.000003 c 0.011,31.349996 0.401,58.430326 0.8689,60.178506 0.6354,2.37444 0.3779,3.01792 -1.0182,2.54369 -1.0279,-0.34916 -4.5052,1.37052 -7.7273,3.82148 -3.2221,2.45097 -6.5922,4.45632 -7.489,4.45632 -1.2618,0 -1.4937,8.74784 -1.0252,38.66667 l 0.6055,38.66666 h -3.6492 -3.6491 l 1.1496,-17.66666 z m -86.9198,-16.68167 c 0.2821,-22.28621 0.9005,-32.61484 2.0851,-34.82833 2.0633,-3.8553 0.7721,-16.59226 -1.9074,-18.81606 -1.0025,-0.83197 -4.0908,-1.32396 -6.8631,-1.09332 -4.0695,0.3386 -5.2175,1.0614 -5.9601,3.75271 -1.7117,6.20353 -1.2711,18.04393 0.772,20.74516 2.3929,3.16369 2.876,21.92151 0.5646,21.92151 -0.87,0 -1.166,-1.24295 -0.7195,-3.02174 0.4171,-1.66196 -0.4076,-7.51196 -1.8326,-13 -1.4251,-5.48805 -2.6013,-13.42826 -2.6139,-17.64493 -0.015,-5.19777 -0.5551,-7.66667 -1.6756,-7.66667 -0.909,0 -12.009,-10.34357 -24.6667,-22.98571 l -23.0139,-22.98571 v 22.17303 22.17302 l -6.8185,-1.9988 c -9.3748,-2.74815 -12.5057,-1.19853 -14.2674,7.06165 -1.014,4.75415 -0.8835,7.76643 0.5377,12.4195 2.3872,7.8159 1.2353,27.14654 -2.2333,37.47636 l -2.4625,7.33333 -0.045,-8.28809 c -0.028,-5.1574 0.8184,-10.09792 2.2401,-13.07934 2.1575,-4.5243 2.1575,-5.14965 0,-11.22418 -1.3407,-3.77494 -2.2847,-10.35318 -2.2847,-15.92067 0,-7.22077 -0.4438,-9.48772 -1.8574,-9.48772 -1.0215,0 -2.2215,-0.94907 -2.6667,-2.10905 -0.4451,-1.15998 -0.8093,-27.85998 -0.8093,-59.333326 v -57.22429 h 15.2995 15.2995 l 0.3672,21 0.3672,21 21.4489,-21 21.449,-21 17.2177,0.04801 17.2177,0.04801 -27.9147,27.52092 -27.9147,27.52091 29.6434,29.124816 c 16.3038,16.01865 29.28,29.71262 28.836,30.43106 -0.4441,0.71845 -2.5719,1.30626 -4.7287,1.30626 h -3.9213 l -0.226,11 c -0.1242,6.05 -0.046,24.35 0.1741,40.66667 l 0.4001,29.66667 h -3.459 -3.4591 z m 143.7781,-9.31833 c 0.3756,-17.61887 0.2479,-18.63839 -3.2758,-26.16112 -2.0167,-4.3053 -3.6667,-9.5053 -3.6667,-11.55556 0,-2.05027 -0.45,-3.92776 -1,-4.17222 -0.55,-0.24444 -0.8158,-27.29444 -0.5907,-60.111096 l 0.4094,-59.666673 h 13.924 13.924 l 0.1169,41.000003 c 0.1391,48.733626 0.6048,60.917526 2.7515,71.981316 0.8873,4.57307 1.1527,8.77307 0.5897,9.33333 -0.563,0.56028 -4.8021,0.87374 -9.4203,0.69659 -11.0688,-0.4246 -12.71,1.28093 -9.6931,10.07293 1.6414,4.78332 2.1035,11.01867 1.9702,26.5825 l -0.1743,20.33333 h -3.1278 -3.1279 l 0.3908,-18.33333 z m -104.085,-17.52052 c -1.2256,-0.77659 -1.5264,-2.43399 -0.9325,-5.13819 1.3335,-6.07111 -3.9551,-16.10009 -9.2078,-17.4612 -3.469,-0.89892 -4.0399,-1.65957 -3.9765,-5.29819 0.041,-2.33672 0.1908,-21.94857 0.3334,-43.58191 l 0.2592,-39.333326 h 13.9518 13.9518 l -0.2235,32.33334 c -0.2049,29.636826 0.2568,36.207266 3.6795,52.368656 0.7714,3.64268 0.3964,4.25379 -3.8539,6.28064 -6.7655,3.22626 -9.3278,7.75752 -8.5066,15.04348 0.6995,6.20563 -0.954,7.65127 -5.4749,4.7867 z M 187.58819,144.6085 c -6.1871,-3.26082 -7.9453,-5.0752 -11.3334,-11.6957 l -4.0102,-7.83613 -0.4344,-33.766156 -0.4344,-33.76615 h 7.3486 7.3485 l 0.4192,32.33334 c 0.4655,35.908516 1.0438,38.574406 9.4839,43.720636 8.2161,5.00961 22.9351,1.79445 28.5299,-6.23194 5.0822,-7.29089 5.7387,-12.02232 5.7387,-41.354336 v -28.4677 h 7.3334 7.3333 v 43.999996 44 h -7.3333 -7.3334 v -6.29445 -6.29445 l -4.9053,5.0503 c -6.7666,6.96648 -11.636,9.17576 -21.7507,9.86824 -7.6428,0.52324 -9.5504,0.13391 -16.0004,-3.2655 z m 95.3231,2.24845 c -15.9673,-3.75227 -15.3333,-3.28091 -15.3333,-11.40035 v -7.31405 l 3.7257,1.92668 c 12.6524,6.54277 35.5077,7.88439 42.7295,2.50824 7.0311,-5.23422 7.1291,-14.1313 0.2114,-19.20602 -1.8333,-1.34492 -9.2242,-3.9649 -16.4243,-5.82217 -22.4762,-5.79782 -28.4728,-10.578566 -29.836,-23.786466 -2.0992,-20.33913 15.8479,-31.921265 43.2624,-27.91932 16.6333,2.42811 17.6646,3.0731 17.6646,11.04812 0,6.54144 -0.089,6.69876 -2.9385,5.17394 -13.3328,-7.13549 -35.0032,-6.58694 -41.0009,1.03788 -6.3405,8.06068 -1.6505,16.14942 11.4681,19.77875 27.503,7.608846 32.3311,10.143326 35.9859,18.890426 5.4614,13.07098 -0.9125,27.33019 -14.8479,33.21638 -6.2558,2.64235 -26.6867,3.74324 -34.6667,1.86796 z M 62.244587,87.540434 V 29.307342 l 27,0.451845 c 26.554103,0.444381 27.127803,0.514569 34.734703,4.249841 9.6391,4.733161 14.1277,11.001313 15.1801,21.198706 1.314,12.73083 -3.2768,21.75889 -13.4095,26.37113 l -5.1615,2.34937 4.3113,0.94692 c 2.3712,0.52081 6.7376,3.13443 9.7032,5.80807 13.4962,12.167726 14.017,31.756076 1.1753,44.205046 -9.1359,8.85643 -12.6079,9.64839 -45.200203,10.31005 l -28.3334,0.5752 z m 57.333403,41.291906 c 2.5666,-1.49161 5.7157,-4.79161 6.9979,-7.33334 4.8881,-9.68983 1.6738,-22.203056 -6.9979,-27.242606 -3.9399,-2.28961 -7.5222,-2.78386 -23.000003,-3.17322 l -18.3334,-0.4612 v 20.922386 20.92239 l 18.3334,-0.46119 c 15.477803,-0.38936 19.060103,-0.88361 23.000003,-3.17322 z m -7.901,-52.626716 c 7.9468,-2.20757 11.2343,-6.88808 11.2343,-15.99459 0,-13.807189 -6.1384,-17.313348 -30.333303,-17.3259 l -14.3334,-0.0074 v 17.33333 17.33334 l 14.3334,-0.008 c 7.883303,-0.004 16.477803,-0.60318 19.099003,-1.33131 z M 486.24459,39.544365 V 28.211031 h 14 14 v 11.333334 11.333333 h -14 -14 z"
     id="path817"
     inkscape:connector-curvature="0" />
</svg>
