<?xml version="1.0" encoding="UTF-8" standalone="no"?>
<!-- Created with Inkscape (http://www.inkscape.org/) -->

<svg
   xmlns:dc="http://purl.org/dc/elements/1.1/"
   xmlns:cc="http://creativecommons.org/ns#"
   xmlns:rdf="http://www.w3.org/1999/02/22-rdf-syntax-ns#"
   xmlns:svg="http://www.w3.org/2000/svg"
   xmlns="http://www.w3.org/2000/svg"
   xmlns:sodipodi="http://sodipodi.sourceforge.net/DTD/sodipodi-0.dtd"
   xmlns:inkscape="http://www.inkscape.org/namespaces/inkscape"
   version="1.1"
   id="svg2"
   width="62.407558"
   height="22.676769"
   viewBox="0 0 62.407559 22.676769"
   sodipodi:docname="buskill_wordsonly.svg"
   inkscape:version="0.92.5 (2060ec1f9f, 2020-04-08)">
  <metadata
     id="metadata8">
    <rdf:RDF>
      <cc:Work
         rdf:about="">
        <dc:format>image/svg+xml</dc:format>
        <dc:type
           rdf:resource="http://purl.org/dc/dcmitype/StillImage" />
        <dc:title></dc:title>
      </cc:Work>
    </rdf:RDF>
  </metadata>
  <defs
     id="defs6" />
  <sodipodi:namedview
     pagecolor="#ffffff"
     bordercolor="#666666"
     borderopacity="1"
     objecttolerance="10"
     gridtolerance="10"
     guidetolerance="10"
     inkscape:pageopacity="0"
     inkscape:pageshadow="2"
     inkscape:window-width="1880"
     inkscape:window-height="1055"
     id="namedview4"
     showgrid="false"
     inkscape:zoom="0.40722655"
     inkscape:cx="11.787329"
     inkscape:cy="16.882748"
     inkscape:window-x="40"
     inkscape:window-y="0"
     inkscape:window-maximized="1"
     inkscape:current-layer="svg2"
     fit-margin-top="0"
     fit-margin-left="0"
     fit-margin-right="0"
     fit-margin-bottom="0" />
  <path
     style="fill:#000000;stroke-width:0.14725177"
     d="M 53.53532,20.72569 C 53.7656,17.18702 53.60922,15.4247 52.952,14.15112 52.62181,13.5113 52.56263,13.25271 52.64866,12.82586 52.70746,12.53417 52.7819,9.52903 52.81411,6.14776 L 52.87271,0 h 1.54151 1.5415 l 0.002,6.29501 c 10e-4,3.46226 0.0443,6.45298 0.096,6.64605 0.0702,0.26223 0.0417,0.33329 -0.11245,0.28092 -0.11352,-0.0386 -0.49755,0.15136 -0.85339,0.42204 -0.35585,0.27068 -0.72804,0.49215 -0.82708,0.49215 -0.13935,0 -0.16496,0.9661 -0.11322,4.2703 l 0.0669,4.2703 h -0.40301 -0.40301 l 0.12696,-1.95108 z M 43.936,18.88338 c 0.0312,-2.46126 0.0994,-3.60194 0.23027,-3.8464 0.22787,-0.42577 0.0853,-1.83243 -0.21065,-2.07802 -0.11071,-0.0919 -0.45178,-0.14622 -0.75795,-0.12075 -0.44943,0.0374 -0.57622,0.11722 -0.65823,0.41445 -0.18904,0.68511 -0.14038,1.99275 0.0853,2.29107 0.26427,0.34939 0.31762,2.42099 0.0624,2.42099 -0.0961,0 -0.12877,-0.13727 -0.0795,-0.33372 0.0461,-0.18355 -0.045,-0.82961 -0.20239,-1.43571 -0.15738,-0.60609 -0.28728,-1.483 -0.28867,-1.94868 -0.002,-0.57404 -0.0613,-0.8467 -0.18505,-0.8467 -0.10039,0 -1.32626,-1.14233 -2.72416,-2.53851 L 36.66574,8.32288 v 2.44876 2.44877 l -0.75303,-0.22075 c -1.03534,-0.3035 -1.38111,-0.13236 -1.57567,0.77988 -0.11199,0.52504 -0.0976,0.85772 0.0594,1.3716 0.26364,0.86317 0.13642,2.99803 -0.24664,4.13884 l -0.27196,0.80989 -0.005,-0.91533 c -0.003,-0.56958 0.0904,-1.1152 0.24739,-1.44447 0.23828,-0.49966 0.23828,-0.56872 0,-1.23958 -0.14806,-0.4169 -0.25232,-1.1434 -0.25232,-1.75826 0,-0.79746 -0.049,-1.04782 -0.20512,-1.04782 -0.11282,0 -0.24534,-0.10481 -0.29451,-0.23292 -0.0492,-0.1281 -0.0894,-3.07682 -0.0894,-6.5527 V 0.58901 h 1.68966 1.68966 l 0.0405,2.31921 0.0405,2.31922 2.36879,-2.31922 2.36881,-2.31921 1.9015,0.005 1.9015,0.005 -3.08286,3.03938 -3.08287,3.03938 3.27378,3.21651 c 1.80057,1.76908 3.23365,3.28142 3.18462,3.36077 -0.049,0.0793 -0.28404,0.14426 -0.52224,0.14426 h -0.43306 l -0.025,1.21483 c -0.0137,0.66815 -0.005,2.68918 0.0192,4.49118 l 0.0442,3.27635 h -0.382 -0.38202 z m 15.87868,-1.0291 c 0.0415,-1.94581 0.0274,-2.05841 -0.36177,-2.88921 -0.22273,-0.47547 -0.40495,-1.04975 -0.40495,-1.27618 0,-0.22643 -0.0497,-0.43378 -0.11044,-0.46077 -0.0607,-0.027 -0.0901,-3.01437 -0.0652,-6.6386 L 58.91752,0 h 1.53775 1.53775 l 0.0129,4.52799 c 0.0154,5.38209 0.0668,6.72766 0.30387,7.94953 0.098,0.50505 0.1273,0.96889 0.0651,1.03077 -0.0622,0.0619 -0.53034,0.0965 -1.04037,0.0769 -1.22243,-0.0469 -1.40368,0.14146 -1.07049,1.11244 0.18127,0.52826 0.2323,1.21689 0.21758,2.93574 l -0.0192,2.24559 h -0.34543 -0.34544 l 0.0432,-2.02471 z M 48.31966,15.91933 c -0.13536,-0.0858 -0.16858,-0.26881 -0.10299,-0.56745 0.14727,-0.67049 -0.43679,-1.77808 -1.0169,-1.9284 -0.38311,-0.0993 -0.44616,-0.18328 -0.43916,-0.58512 0.005,-0.25807 0.0211,-2.42398 0.0368,-4.81314 l 0.0286,-4.34393 h 1.54082 1.54082 l -0.0247,3.57086 c -0.0226,3.27306 0.0284,3.99869 0.40636,5.78353 0.0852,0.4023 0.0438,0.46979 -0.42562,0.69363 -0.74718,0.3563 -1.03016,0.85673 -0.93946,1.66138 0.0772,0.68535 -0.10536,0.845 -0.60464,0.52864 z M 13.8428,12.8548 c -0.6833,-0.36012 -0.87747,-0.5605 -1.25165,-1.29166 l -0.44288,-0.86541 -0.048,-3.7291 -0.048,-3.72909 h 0.81157 0.81156 l 0.0463,3.57085 c 0.0514,3.9657 0.11527,4.26012 1.04739,4.82846 0.90737,0.55326 2.53292,0.19818 3.1508,-0.68825 0.56128,-0.8052 0.63378,-1.32773 0.63378,-4.56712 V 3.23954 h 0.80989 0.80988 v 4.85931 4.8593 H 19.36356 18.55367 V 12.263 11.56785 l -0.54174,0.55775 c -0.74729,0.76937 -1.28506,1.01336 -2.40212,1.08984 -0.84406,0.0578 -1.05473,0.0148 -1.76706,-0.36064 z m 10.52737,0.24832 c -1.76341,-0.4144 -1.69339,-0.36234 -1.69339,-1.25905 v -0.80775 l 0.41146,0.21278 c 1.39732,0.72258 3.92143,0.87074 4.71899,0.27701 0.77651,-0.57806 0.78733,-1.56065 0.0233,-2.12109 C 27.62806,9.25648 26.81182,8.96714 26.01665,8.76202 23.53441,8.12172 22.87215,7.59374 22.7216,6.13507 22.48977,3.88884 24.47182,2.60973 27.49945,3.0517 c 1.83696,0.26815 1.95085,0.33939 1.95085,1.22014 0,0.72243 -0.01,0.7398 -0.32452,0.5714 -1.47246,-0.78803 -3.86571,-0.72745 -4.52809,0.11462 -0.70024,0.89022 -0.18228,1.78353 1.26652,2.18435 3.0374,0.84031 3.57061,1.12021 3.97424,2.08623 0.60315,1.44355 -0.10077,3.01832 -1.63978,3.66838 -0.69089,0.29182 -2.94725,0.4134 -3.82855,0.2063 z M 0,6.55227 V 0.12108 l 2.98185,0.0499 c 2.9326,0.0491 2.99596,0.0568 3.83606,0.46934 C 7.88244,1.16305 8.37815,1.8553 8.49438,2.98148 8.63949,4.38746 8.13249,5.38451 7.01345,5.89388 L 6.44342,6.15334 6.91955,6.25792 c 0.26188,0.0575 0.7441,0.34616 1.07161,0.64144 1.49051,1.34378 1.54802,3.5071 0.1298,4.88195 C 7.112,12.7594 6.72856,12.84687 3.1291,12.91994 L 0,12.98344 Z M 6.33183,11.1125 C 6.61528,10.94777 6.96307,10.58332 7.10467,10.30261 7.64451,9.23248 7.28952,7.85053 6.33183,7.29397 5.89671,7.04111 5.50109,6.98653 3.79174,6.94353 L 1.76702,6.89263 v 2.31064 2.31065 l 2.02472,-0.0509 c 1.70935,-0.043 2.10497,-0.0976 2.54009,-0.35045 z M 5.45925,5.30047 C 6.33689,5.05666 6.69996,4.53975 6.69996,3.53404 6.69996,2.00919 6.02204,1.62198 3.34998,1.62059 L 1.76702,1.61977 V 3.53405 5.44832 L 3.34998,5.44744 C 4.22061,5.44699 5.16977,5.38084 5.45925,5.30041 Z M 46.82606,1.25164 V 0 h 1.54614 1.54615 V 1.25164 2.50328 H 48.3722 46.82606 Z"
     id="path817"
     inkscape:connector-curvature="0" />
</svg>
