solid OpenSCAD_Model
  facet normal -0.951048 0 -0.309044
    outer loop
      vertex 8.02378 -20 4.94949
      vertex 7.94625 -13.2 5.18808
      vertex 8.02378 -13.2 4.94949
    endloop
  endfacet
  facet normal -0.951048 -0 -0.309044
    outer loop
      vertex 7.94625 -13.2 5.18808
      vertex 8.02378 -20 4.94949
      vertex 7.94625 -20 5.18808
    endloop
  endfacet
  facet normal -0.994523 0 -0.104519
    outer loop
      vertex 8.05 -20 4.7
      vertex 8.02378 -13.2 4.94949
      vertex 8.05 -13.2 4.7
    endloop
  endfacet
  facet normal -0.994523 -0 -0.104519
    outer loop
      vertex 8.02378 -13.2 4.94949
      vertex 8.05 -20 4.7
      vertex 8.02378 -20 4.94949
    endloop
  endfacet
  facet normal -0.207915 0 -0.978147
    outer loop
      vertex 6.97543 -20 5.89343
      vertex 7.22082 -13.2 5.84127
      vertex 7.22082 -20 5.84127
    endloop
  endfacet
  facet normal -0.207915 0 -0.978147
    outer loop
      vertex 7.22082 -13.2 5.84127
      vertex 6.97543 -20 5.89343
      vertex 6.97543 -13.2 5.89343
    endloop
  endfacet
  facet normal -0.951048 0 0.309044
    outer loop
      vertex 7.94625 -20 4.21192
      vertex 8.02378 -13.2 4.45051
      vertex 7.94625 -13.2 4.21192
    endloop
  endfacet
  facet normal -0.951048 0 0.309044
    outer loop
      vertex 8.02378 -13.2 4.45051
      vertex 7.94625 -20 4.21192
      vertex 8.02378 -20 4.45051
    endloop
  endfacet
  facet normal 0.406745 0 -0.913542
    outer loop
      vertex 6.25 -20 5.73923
      vertex 6.47918 -13.2 5.84127
      vertex 6.47918 -20 5.84127
    endloop
  endfacet
  facet normal 0.406745 0 -0.913542
    outer loop
      vertex 6.47918 -13.2 5.84127
      vertex 6.25 -20 5.73923
      vertex 6.25 -13.2 5.73923
    endloop
  endfacet
  facet normal 0.406745 0 0.913542
    outer loop
      vertex 6.25 -13.2 3.66077
      vertex 6.47918 -20 3.55873
      vertex 6.47918 -13.2 3.55873
    endloop
  endfacet
  facet normal 0.406745 0 0.913542
    outer loop
      vertex 6.47918 -20 3.55873
      vertex 6.25 -13.2 3.66077
      vertex 6.25 -20 3.66077
    endloop
  endfacet
  facet normal -0.743149 0 -0.669125
    outer loop
      vertex 7.82082 -20 5.40534
      vertex 7.65296 -13.2 5.59177
      vertex 7.82082 -13.2 5.40534
    endloop
  endfacet
  facet normal -0.743149 -0 -0.669125
    outer loop
      vertex 7.65296 -13.2 5.59177
      vertex 7.82082 -20 5.40534
      vertex 7.65296 -20 5.59177
    endloop
  endfacet
  facet normal -0.866034 0 -0.499985
    outer loop
      vertex 7.94625 -20 5.18808
      vertex 7.82082 -13.2 5.40534
      vertex 7.94625 -13.2 5.18808
    endloop
  endfacet
  facet normal -0.866034 -0 -0.499985
    outer loop
      vertex 7.82082 -13.2 5.40534
      vertex 7.94625 -20 5.18808
      vertex 7.82082 -20 5.40534
    endloop
  endfacet
  facet normal -0.587788 0 0.809015
    outer loop
      vertex 7.45 -13.2 3.66077
      vertex 7.65296 -20 3.80823
      vertex 7.65296 -13.2 3.80823
    endloop
  endfacet
  facet normal -0.587788 0 0.809015
    outer loop
      vertex 7.65296 -20 3.80823
      vertex 7.45 -13.2 3.66077
      vertex 7.45 -20 3.66077
    endloop
  endfacet
  facet normal -0.207915 0 0.978147
    outer loop
      vertex 6.97543 -13.2 3.50657
      vertex 7.22082 -20 3.55873
      vertex 7.22082 -13.2 3.55873
    endloop
  endfacet
  facet normal -0.207915 0 0.978147
    outer loop
      vertex 7.22082 -20 3.55873
      vertex 6.97543 -13.2 3.50657
      vertex 6.97543 -20 3.50657
    endloop
  endfacet
  facet normal 0.207915 0 -0.978147
    outer loop
      vertex 6.47918 -20 5.84127
      vertex 6.72457 -13.2 5.89343
      vertex 6.72457 -20 5.89343
    endloop
  endfacet
  facet normal 0.207915 0 -0.978147
    outer loop
      vertex 6.72457 -13.2 5.89343
      vertex 6.47918 -20 5.84127
      vertex 6.47918 -13.2 5.84127
    endloop
  endfacet
  facet normal 0 0 -1
    outer loop
      vertex 6.72457 -20 5.89343
      vertex 6.97543 -13.2 5.89343
      vertex 6.97543 -20 5.89343
    endloop
  endfacet
  facet normal -0 0 -1
    outer loop
      vertex 6.97543 -13.2 5.89343
      vertex 6.72457 -20 5.89343
      vertex 6.72457 -13.2 5.89343
    endloop
  endfacet
  facet normal 0.866017 0 -0.500015
    outer loop
      vertex 5.87918 -20 5.40534
      vertex 5.75374 -13.2 5.18808
      vertex 5.87918 -13.2 5.40534
    endloop
  endfacet
  facet normal 0.866017 0 -0.500015
    outer loop
      vertex 5.75374 -13.2 5.18808
      vertex 5.87918 -20 5.40534
      vertex 5.75374 -20 5.18808
    endloop
  endfacet
  facet normal -0.406745 0 -0.913542
    outer loop
      vertex 7.22082 -20 5.84127
      vertex 7.45 -13.2 5.73923
      vertex 7.45 -20 5.73923
    endloop
  endfacet
  facet normal -0.406745 0 -0.913542
    outer loop
      vertex 7.45 -13.2 5.73923
      vertex 7.22082 -20 5.84127
      vertex 7.22082 -13.2 5.84127
    endloop
  endfacet
  facet normal 0.866017 -0 0.500015
    outer loop
      vertex 5.75374 -20 4.21192
      vertex 5.87918 -13.2 3.99466
      vertex 5.75374 -13.2 4.21192
    endloop
  endfacet
  facet normal 0.866017 0 0.500015
    outer loop
      vertex 5.87918 -13.2 3.99466
      vertex 5.75374 -20 4.21192
      vertex 5.87918 -20 3.99466
    endloop
  endfacet
  facet normal 0.95106 -4.27516e-07 -0.309008
    outer loop
      vertex 5.75374 -13.2 5.18808
      vertex 5.70506 -18 5.03826
      vertex 5.67622 -13.2 4.94949
    endloop
  endfacet
  facet normal 0.951056 0 -0.30902
    outer loop
      vertex 5.75374 -20 5.18808
      vertex 5.70506 -18 5.03826
      vertex 5.75374 -13.2 5.18808
    endloop
  endfacet
  facet normal 0.951056 0 -0.30902
    outer loop
      vertex 5.70506 -18 5.03826
      vertex 5.75374 -20 5.18808
      vertex 5.70506 -20 5.03826
    endloop
  endfacet
  facet normal 0.951066 0 -0.308987
    outer loop
      vertex 5.67622 -13.2 4.94949
      vertex 5.70506 -18 5.03826
      vertex 5.67622 -18 4.94949
    endloop
  endfacet
  facet normal 0.994523 0 -0.104519
    outer loop
      vertex 5.67622 -18 4.94949
      vertex 5.65 -13.2 4.7
      vertex 5.67622 -13.2 4.94949
    endloop
  endfacet
  facet normal 0.994523 0 -0.104519
    outer loop
      vertex 5.65 -13.2 4.7
      vertex 5.67622 -18 4.94949
      vertex 5.65 -18 4.7
    endloop
  endfacet
  facet normal 0.743149 0 -0.669125
    outer loop
      vertex 6.04704 -20 5.59177
      vertex 5.87918 -13.2 5.40534
      vertex 6.04704 -13.2 5.59177
    endloop
  endfacet
  facet normal 0.743149 0 -0.669125
    outer loop
      vertex 5.87918 -13.2 5.40534
      vertex 6.04704 -20 5.59177
      vertex 5.87918 -20 5.40534
    endloop
  endfacet
  facet normal -0.406745 0 0.913542
    outer loop
      vertex 7.22082 -13.2 3.55873
      vertex 7.45 -20 3.66077
      vertex 7.45 -13.2 3.66077
    endloop
  endfacet
  facet normal -0.406745 0 0.913542
    outer loop
      vertex 7.45 -20 3.66077
      vertex 7.22082 -13.2 3.55873
      vertex 7.22082 -20 3.55873
    endloop
  endfacet
  facet normal -0.994523 0 0.104519
    outer loop
      vertex 8.02378 -20 4.45051
      vertex 8.05 -13.2 4.7
      vertex 8.02378 -13.2 4.45051
    endloop
  endfacet
  facet normal -0.994523 0 0.104519
    outer loop
      vertex 8.05 -13.2 4.7
      vertex 8.02378 -20 4.45051
      vertex 8.05 -20 4.7
    endloop
  endfacet
  facet normal 0.207915 0 0.978147
    outer loop
      vertex 6.47918 -13.2 3.55873
      vertex 6.72457 -20 3.50657
      vertex 6.72457 -13.2 3.50657
    endloop
  endfacet
  facet normal 0.207915 0 0.978147
    outer loop
      vertex 6.72457 -20 3.50657
      vertex 6.47918 -13.2 3.55873
      vertex 6.47918 -20 3.55873
    endloop
  endfacet
  facet normal -0.866034 0 0.499985
    outer loop
      vertex 7.82082 -20 3.99466
      vertex 7.94625 -13.2 4.21192
      vertex 7.82082 -13.2 3.99466
    endloop
  endfacet
  facet normal -0.866034 0 0.499985
    outer loop
      vertex 7.94625 -13.2 4.21192
      vertex 7.82082 -20 3.99466
      vertex 7.94625 -20 4.21192
    endloop
  endfacet
  facet normal -0.743149 0 0.669125
    outer loop
      vertex 7.65296 -20 3.80823
      vertex 7.82082 -13.2 3.99466
      vertex 7.65296 -13.2 3.80823
    endloop
  endfacet
  facet normal -0.743149 0 0.669125
    outer loop
      vertex 7.82082 -13.2 3.99466
      vertex 7.65296 -20 3.80823
      vertex 7.82082 -20 3.99466
    endloop
  endfacet
  facet normal -0.587788 0 -0.809015
    outer loop
      vertex 7.45 -20 5.73923
      vertex 7.65296 -13.2 5.59177
      vertex 7.65296 -20 5.59177
    endloop
  endfacet
  facet normal -0.587788 0 -0.809015
    outer loop
      vertex 7.65296 -13.2 5.59177
      vertex 7.45 -20 5.73923
      vertex 7.45 -13.2 5.73923
    endloop
  endfacet
  facet normal 0.587788 0 -0.809015
    outer loop
      vertex 6.04704 -20 5.59177
      vertex 6.25 -13.2 5.73923
      vertex 6.25 -20 5.73923
    endloop
  endfacet
  facet normal 0.587788 0 -0.809015
    outer loop
      vertex 6.25 -13.2 5.73923
      vertex 6.04704 -20 5.59177
      vertex 6.04704 -13.2 5.59177
    endloop
  endfacet
  facet normal -0 0 1
    outer loop
      vertex 6.72457 -13.2 3.50657
      vertex 6.97543 -20 3.50657
      vertex 6.97543 -13.2 3.50657
    endloop
  endfacet
  facet normal 0 0 1
    outer loop
      vertex 6.97543 -20 3.50657
      vertex 6.72457 -13.2 3.50657
      vertex 6.72457 -20 3.50657
    endloop
  endfacet
  facet normal 0.951066 0 0.308987
    outer loop
      vertex 5.70506 -18 4.36174
      vertex 5.67622 -13.2 4.45051
      vertex 5.67622 -18 4.45051
    endloop
  endfacet
  facet normal 0.95106 -4.27516e-07 0.309008
    outer loop
      vertex 5.67622 -13.2 4.45051
      vertex 5.70506 -18 4.36174
      vertex 5.75374 -13.2 4.21192
    endloop
  endfacet
  facet normal 0.951056 0 0.30902
    outer loop
      vertex 5.75374 -20 4.21192
      vertex 5.70506 -18 4.36174
      vertex 5.70506 -20 4.36174
    endloop
  endfacet
  facet normal 0.951056 0 0.30902
    outer loop
      vertex 5.70506 -18 4.36174
      vertex 5.75374 -20 4.21192
      vertex 5.75374 -13.2 4.21192
    endloop
  endfacet
  facet normal 0.743149 -0 0.669125
    outer loop
      vertex 5.87918 -20 3.99466
      vertex 6.04704 -13.2 3.80823
      vertex 5.87918 -13.2 3.99466
    endloop
  endfacet
  facet normal 0.743149 0 0.669125
    outer loop
      vertex 6.04704 -13.2 3.80823
      vertex 5.87918 -20 3.99466
      vertex 6.04704 -20 3.80823
    endloop
  endfacet
  facet normal 0 1 -0
    outer loop
      vertex 9.27918 -13.2 5.84127
      vertex 6.97543 -13.2 5.89343
      vertex 9.52457 -13.2 5.89343
    endloop
  endfacet
  facet normal 0 1 0
    outer loop
      vertex 9.27918 -13.2 5.84127
      vertex 7.22082 -13.2 5.84127
      vertex 6.97543 -13.2 5.89343
    endloop
  endfacet
  facet normal 0 1 -0
    outer loop
      vertex 9.05 -13.2 5.73923
      vertex 7.22082 -13.2 5.84127
      vertex 9.27918 -13.2 5.84127
    endloop
  endfacet
  facet normal 0 1 0
    outer loop
      vertex 9.05 -13.2 5.73923
      vertex 7.45 -13.2 5.73923
      vertex 7.22082 -13.2 5.84127
    endloop
  endfacet
  facet normal 0 1 -0
    outer loop
      vertex 8.84704 -13.2 5.59177
      vertex 7.45 -13.2 5.73923
      vertex 9.05 -13.2 5.73923
    endloop
  endfacet
  facet normal 0 1 0
    outer loop
      vertex 8.84704 -13.2 5.59177
      vertex 7.65296 -13.2 5.59177
      vertex 7.45 -13.2 5.73923
    endloop
  endfacet
  facet normal 0 1 -0
    outer loop
      vertex 8.67918 -13.2 5.40534
      vertex 7.65296 -13.2 5.59177
      vertex 8.84704 -13.2 5.59177
    endloop
  endfacet
  facet normal 0 1 0
    outer loop
      vertex 8.67918 -13.2 5.40534
      vertex 7.82082 -13.2 5.40534
      vertex 7.65296 -13.2 5.59177
    endloop
  endfacet
  facet normal 0 1 -0
    outer loop
      vertex 8.55375 -13.2 5.18808
      vertex 7.82082 -13.2 5.40534
      vertex 8.67918 -13.2 5.40534
    endloop
  endfacet
  facet normal 0 1 0
    outer loop
      vertex 8.55375 -13.2 5.18808
      vertex 7.94625 -13.2 5.18808
      vertex 7.82082 -13.2 5.40534
    endloop
  endfacet
  facet normal 0 1 -0
    outer loop
      vertex 8.47622 -13.2 4.94949
      vertex 7.94625 -13.2 5.18808
      vertex 8.55375 -13.2 5.18808
    endloop
  endfacet
  facet normal 0 1 0
    outer loop
      vertex 8.47622 -13.2 4.94949
      vertex 8.02378 -13.2 4.94949
      vertex 7.94625 -13.2 5.18808
    endloop
  endfacet
  facet normal 0 1 -0
    outer loop
      vertex 8.45 -13.2 4.7
      vertex 8.02378 -13.2 4.94949
      vertex 8.47622 -13.2 4.94949
    endloop
  endfacet
  facet normal 0 1 0
    outer loop
      vertex 8.45 -13.2 4.7
      vertex 8.05 -13.2 4.7
      vertex 8.02378 -13.2 4.94949
    endloop
  endfacet
  facet normal 0 1 0
    outer loop
      vertex 8.47622 -13.2 4.45051
      vertex 8.05 -13.2 4.7
      vertex 8.45 -13.2 4.7
    endloop
  endfacet
  facet normal 0 1 0
    outer loop
      vertex 8.47622 -13.2 4.45051
      vertex 8.02378 -13.2 4.45051
      vertex 8.05 -13.2 4.7
    endloop
  endfacet
  facet normal 0 1 0
    outer loop
      vertex 8.55375 -13.2 4.21192
      vertex 8.02378 -13.2 4.45051
      vertex 8.47622 -13.2 4.45051
    endloop
  endfacet
  facet normal 0 1 0
    outer loop
      vertex 8.55375 -13.2 4.21192
      vertex 7.94625 -13.2 4.21192
      vertex 8.02378 -13.2 4.45051
    endloop
  endfacet
  facet normal 0 1 0
    outer loop
      vertex 8.67918 -13.2 3.99466
      vertex 7.94625 -13.2 4.21192
      vertex 8.55375 -13.2 4.21192
    endloop
  endfacet
  facet normal 0 1 0
    outer loop
      vertex 8.67918 -13.2 3.99466
      vertex 7.82082 -13.2 3.99466
      vertex 7.94625 -13.2 4.21192
    endloop
  endfacet
  facet normal 0 1 0
    outer loop
      vertex 8.84704 -13.2 3.80823
      vertex 7.82082 -13.2 3.99466
      vertex 8.67918 -13.2 3.99466
    endloop
  endfacet
  facet normal 0 1 0
    outer loop
      vertex 8.84704 -13.2 3.80823
      vertex 7.65296 -13.2 3.80823
      vertex 7.82082 -13.2 3.99466
    endloop
  endfacet
  facet normal 0 1 0
    outer loop
      vertex 9.05 -13.2 3.66077
      vertex 7.65296 -13.2 3.80823
      vertex 8.84704 -13.2 3.80823
    endloop
  endfacet
  facet normal 0 1 0
    outer loop
      vertex 9.05 -13.2 3.66077
      vertex 7.45 -13.2 3.66077
      vertex 7.65296 -13.2 3.80823
    endloop
  endfacet
  facet normal 0 1 0
    outer loop
      vertex 9.27918 -13.2 3.55873
      vertex 7.45 -13.2 3.66077
      vertex 9.05 -13.2 3.66077
    endloop
  endfacet
  facet normal 0 1 0
    outer loop
      vertex 9.27918 -13.2 3.55873
      vertex 7.22082 -13.2 3.55873
      vertex 7.45 -13.2 3.66077
    endloop
  endfacet
  facet normal 0 1 0
    outer loop
      vertex 4 -13.2 0.5
      vertex 9.27918 -13.2 3.55873
      vertex 9.52457 -13.2 3.50657
    endloop
  endfacet
  facet normal 0 1 0
    outer loop
      vertex 9.27918 -13.2 3.55873
      vertex 4 -13.2 0.5
      vertex 7.22082 -13.2 3.55873
    endloop
  endfacet
  facet normal 0 1 -0
    outer loop
      vertex 12.0792 -13.2 5.84127
      vertex 9.77543 -13.2 5.89343
      vertex 12.3246 -13.2 5.89343
    endloop
  endfacet
  facet normal 0 1 0
    outer loop
      vertex 12.0792 -13.2 5.84127
      vertex 10.0208 -13.2 5.84127
      vertex 9.77543 -13.2 5.89343
    endloop
  endfacet
  facet normal 0 1 -0
    outer loop
      vertex 11.85 -13.2 5.73923
      vertex 10.0208 -13.2 5.84127
      vertex 12.0792 -13.2 5.84127
    endloop
  endfacet
  facet normal 0 1 0
    outer loop
      vertex 11.85 -13.2 5.73923
      vertex 10.25 -13.2 5.73923
      vertex 10.0208 -13.2 5.84127
    endloop
  endfacet
  facet normal 0 1 -0
    outer loop
      vertex 11.647 -13.2 5.59177
      vertex 10.25 -13.2 5.73923
      vertex 11.85 -13.2 5.73923
    endloop
  endfacet
  facet normal 0 1 0
    outer loop
      vertex 11.647 -13.2 5.59177
      vertex 10.453 -13.2 5.59177
      vertex 10.25 -13.2 5.73923
    endloop
  endfacet
  facet normal 0 1 -0
    outer loop
      vertex 11.4792 -13.2 5.40534
      vertex 10.453 -13.2 5.59177
      vertex 11.647 -13.2 5.59177
    endloop
  endfacet
  facet normal 0 1 0
    outer loop
      vertex 11.4792 -13.2 5.40534
      vertex 10.6208 -13.2 5.40534
      vertex 10.453 -13.2 5.59177
    endloop
  endfacet
  facet normal 0 1 -0
    outer loop
      vertex 11.3537 -13.2 5.18808
      vertex 10.6208 -13.2 5.40534
      vertex 11.4792 -13.2 5.40534
    endloop
  endfacet
  facet normal 0 1 0
    outer loop
      vertex 11.3537 -13.2 5.18808
      vertex 10.7463 -13.2 5.18808
      vertex 10.6208 -13.2 5.40534
    endloop
  endfacet
  facet normal 0 1 -0
    outer loop
      vertex 11.2762 -13.2 4.94949
      vertex 10.7463 -13.2 5.18808
      vertex 11.3537 -13.2 5.18808
    endloop
  endfacet
  facet normal 0 1 0
    outer loop
      vertex 11.2762 -13.2 4.94949
      vertex 10.8238 -13.2 4.94949
      vertex 10.7463 -13.2 5.18808
    endloop
  endfacet
  facet normal 0 1 -0
    outer loop
      vertex 11.25 -13.2 4.7
      vertex 10.8238 -13.2 4.94949
      vertex 11.2762 -13.2 4.94949
    endloop
  endfacet
  facet normal 0 1 0
    outer loop
      vertex 11.25 -13.2 4.7
      vertex 10.85 -13.2 4.7
      vertex 10.8238 -13.2 4.94949
    endloop
  endfacet
  facet normal 0 1 0
    outer loop
      vertex 11.2762 -13.2 4.45051
      vertex 10.85 -13.2 4.7
      vertex 11.25 -13.2 4.7
    endloop
  endfacet
  facet normal 0 1 0
    outer loop
      vertex 11.2762 -13.2 4.45051
      vertex 10.8238 -13.2 4.45051
      vertex 10.85 -13.2 4.7
    endloop
  endfacet
  facet normal 0 1 0
    outer loop
      vertex 11.3537 -13.2 4.21192
      vertex 10.8238 -13.2 4.45051
      vertex 11.2762 -13.2 4.45051
    endloop
  endfacet
  facet normal 0 1 0
    outer loop
      vertex 11.3537 -13.2 4.21192
      vertex 10.7463 -13.2 4.21192
      vertex 10.8238 -13.2 4.45051
    endloop
  endfacet
  facet normal 0 1 0
    outer loop
      vertex 11.4792 -13.2 3.99466
      vertex 10.7463 -13.2 4.21192
      vertex 11.3537 -13.2 4.21192
    endloop
  endfacet
  facet normal 0 1 0
    outer loop
      vertex 11.4792 -13.2 3.99466
      vertex 10.6208 -13.2 3.99466
      vertex 10.7463 -13.2 4.21192
    endloop
  endfacet
  facet normal 0 1 0
    outer loop
      vertex 11.647 -13.2 3.80823
      vertex 10.6208 -13.2 3.99466
      vertex 11.4792 -13.2 3.99466
    endloop
  endfacet
  facet normal 0 1 0
    outer loop
      vertex 11.647 -13.2 3.80823
      vertex 10.453 -13.2 3.80823
      vertex 10.6208 -13.2 3.99466
    endloop
  endfacet
  facet normal 0 1 0
    outer loop
      vertex 11.85 -13.2 3.66077
      vertex 10.453 -13.2 3.80823
      vertex 11.647 -13.2 3.80823
    endloop
  endfacet
  facet normal 0 1 0
    outer loop
      vertex 11.85 -13.2 3.66077
      vertex 10.25 -13.2 3.66077
      vertex 10.453 -13.2 3.80823
    endloop
  endfacet
  facet normal 0 1 0
    outer loop
      vertex 12.0792 -13.2 3.55873
      vertex 10.25 -13.2 3.66077
      vertex 11.85 -13.2 3.66077
    endloop
  endfacet
  facet normal 0 1 0
    outer loop
      vertex 12.0792 -13.2 3.55873
      vertex 10.0208 -13.2 3.55873
      vertex 10.25 -13.2 3.66077
    endloop
  endfacet
  facet normal 0 1 0
    outer loop
      vertex 12.3246 -13.2 3.50657
      vertex 10.0208 -13.2 3.55873
      vertex 12.0792 -13.2 3.55873
    endloop
  endfacet
  facet normal 0 1 0
    outer loop
      vertex 10.0208 -13.2 3.55873
      vertex 12.3246 -13.2 3.50657
      vertex 9.77543 -13.2 3.50657
    endloop
  endfacet
  facet normal 0 1 -0
    outer loop
      vertex 14.8792 -13.2 5.84127
      vertex 12.5754 -13.2 5.89343
      vertex 15.1246 -13.2 5.89343
    endloop
  endfacet
  facet normal 0 1 0
    outer loop
      vertex 14.8792 -13.2 5.84127
      vertex 12.8208 -13.2 5.84127
      vertex 12.5754 -13.2 5.89343
    endloop
  endfacet
  facet normal 0 1 -0
    outer loop
      vertex 14.65 -13.2 5.73923
      vertex 12.8208 -13.2 5.84127
      vertex 14.8792 -13.2 5.84127
    endloop
  endfacet
  facet normal 0 1 0
    outer loop
      vertex 14.65 -13.2 5.73923
      vertex 13.05 -13.2 5.73923
      vertex 12.8208 -13.2 5.84127
    endloop
  endfacet
  facet normal 0 1 -0
    outer loop
      vertex 14.447 -13.2 5.59177
      vertex 13.05 -13.2 5.73923
      vertex 14.65 -13.2 5.73923
    endloop
  endfacet
  facet normal 0 1 0
    outer loop
      vertex 14.447 -13.2 5.59177
      vertex 13.253 -13.2 5.59177
      vertex 13.05 -13.2 5.73923
    endloop
  endfacet
  facet normal 0 1 -0
    outer loop
      vertex 14.2792 -13.2 5.40534
      vertex 13.253 -13.2 5.59177
      vertex 14.447 -13.2 5.59177
    endloop
  endfacet
  facet normal 0 1 0
    outer loop
      vertex 14.2792 -13.2 5.40534
      vertex 13.4208 -13.2 5.40534
      vertex 13.253 -13.2 5.59177
    endloop
  endfacet
  facet normal 0 1 -0
    outer loop
      vertex 14.1537 -13.2 5.18808
      vertex 13.4208 -13.2 5.40534
      vertex 14.2792 -13.2 5.40534
    endloop
  endfacet
  facet normal 0 1 0
    outer loop
      vertex 14.1537 -13.2 5.18808
      vertex 13.5463 -13.2 5.18808
      vertex 13.4208 -13.2 5.40534
    endloop
  endfacet
  facet normal 0 1 -0
    outer loop
      vertex 14.0762 -13.2 4.94949
      vertex 13.5463 -13.2 5.18808
      vertex 14.1537 -13.2 5.18808
    endloop
  endfacet
  facet normal 0 1 0
    outer loop
      vertex 14.0762 -13.2 4.94949
      vertex 13.6238 -13.2 4.94949
      vertex 13.5463 -13.2 5.18808
    endloop
  endfacet
  facet normal 0 1 -0
    outer loop
      vertex 14.05 -13.2 4.7
      vertex 13.6238 -13.2 4.94949
      vertex 14.0762 -13.2 4.94949
    endloop
  endfacet
  facet normal 0 1 0
    outer loop
      vertex 14.05 -13.2 4.7
      vertex 13.65 -13.2 4.7
      vertex 13.6238 -13.2 4.94949
    endloop
  endfacet
  facet normal 0 1 0
    outer loop
      vertex 14.0762 -13.2 4.45051
      vertex 13.65 -13.2 4.7
      vertex 14.05 -13.2 4.7
    endloop
  endfacet
  facet normal 0 1 0
    outer loop
      vertex 14.0762 -13.2 4.45051
      vertex 13.6238 -13.2 4.45051
      vertex 13.65 -13.2 4.7
    endloop
  endfacet
  facet normal 0 1 0
    outer loop
      vertex 14.1537 -13.2 4.21192
      vertex 13.6238 -13.2 4.45051
      vertex 14.0762 -13.2 4.45051
    endloop
  endfacet
  facet normal 0 1 0
    outer loop
      vertex 14.1537 -13.2 4.21192
      vertex 13.5463 -13.2 4.21192
      vertex 13.6238 -13.2 4.45051
    endloop
  endfacet
  facet normal 0 1 0
    outer loop
      vertex 14.2792 -13.2 3.99466
      vertex 13.5463 -13.2 4.21192
      vertex 14.1537 -13.2 4.21192
    endloop
  endfacet
  facet normal 0 1 0
    outer loop
      vertex 14.2792 -13.2 3.99466
      vertex 13.4208 -13.2 3.99466
      vertex 13.5463 -13.2 4.21192
    endloop
  endfacet
  facet normal 0 1 0
    outer loop
      vertex 14.447 -13.2 3.80823
      vertex 13.4208 -13.2 3.99466
      vertex 14.2792 -13.2 3.99466
    endloop
  endfacet
  facet normal 0 1 0
    outer loop
      vertex 14.447 -13.2 3.80823
      vertex 13.253 -13.2 3.80823
      vertex 13.4208 -13.2 3.99466
    endloop
  endfacet
  facet normal 0 1 0
    outer loop
      vertex 14.65 -13.2 3.66077
      vertex 13.253 -13.2 3.80823
      vertex 14.447 -13.2 3.80823
    endloop
  endfacet
  facet normal 0 1 0
    outer loop
      vertex 14.65 -13.2 3.66077
      vertex 13.05 -13.2 3.66077
      vertex 13.253 -13.2 3.80823
    endloop
  endfacet
  facet normal 0 1 0
    outer loop
      vertex 14.8792 -13.2 3.55873
      vertex 13.05 -13.2 3.66077
      vertex 14.65 -13.2 3.66077
    endloop
  endfacet
  facet normal 0 1 0
    outer loop
      vertex 14.8792 -13.2 3.55873
      vertex 12.8208 -13.2 3.55873
      vertex 13.05 -13.2 3.66077
    endloop
  endfacet
  facet normal 0 1 0
    outer loop
      vertex 18 -13.2 0.5
      vertex 14.8792 -13.2 3.55873
      vertex 15.1246 -13.2 3.50657
    endloop
  endfacet
  facet normal 0 1 0
    outer loop
      vertex 14.8792 -13.2 3.55873
      vertex 18 -13.2 0.5
      vertex 12.8208 -13.2 3.55873
    endloop
  endfacet
  facet normal 0 1 0
    outer loop
      vertex 15.1246 -13.2 5.89343
      vertex 18 -13.2 6.2
      vertex 15.3754 -13.2 5.89343
    endloop
  endfacet
  facet normal 0 1 0
    outer loop
      vertex 18 -13.2 6.2
      vertex 15.6208 -13.2 5.84127
      vertex 15.3754 -13.2 5.89343
    endloop
  endfacet
  facet normal 0 1 0
    outer loop
      vertex 18 -13.2 6.2
      vertex 15.85 -13.2 5.73923
      vertex 15.6208 -13.2 5.84127
    endloop
  endfacet
  facet normal 0 1 0
    outer loop
      vertex 18 -13.2 6.2
      vertex 16.053 -13.2 5.59177
      vertex 15.85 -13.2 5.73923
    endloop
  endfacet
  facet normal 0 1 0
    outer loop
      vertex 18 -13.2 6.2
      vertex 16.2208 -13.2 5.40534
      vertex 16.053 -13.2 5.59177
    endloop
  endfacet
  facet normal 0 1 0
    outer loop
      vertex 18 -13.2 6.2
      vertex 16.3463 -13.2 5.18808
      vertex 16.2208 -13.2 5.40534
    endloop
  endfacet
  facet normal 0 1 0
    outer loop
      vertex 18 -13.2 6.2
      vertex 16.4238 -13.2 4.94949
      vertex 16.3463 -13.2 5.18808
    endloop
  endfacet
  facet normal 0 1 0
    outer loop
      vertex 18 -13.2 6.2
      vertex 16.45 -13.2 4.7
      vertex 16.4238 -13.2 4.94949
    endloop
  endfacet
  facet normal 0 1 0
    outer loop
      vertex 18 -13.2 6.2
      vertex 16.4238 -13.2 4.45051
      vertex 16.45 -13.2 4.7
    endloop
  endfacet
  facet normal 0 1 0
    outer loop
      vertex 18 -13.2 6.2
      vertex 16.3463 -13.2 4.21192
      vertex 16.4238 -13.2 4.45051
    endloop
  endfacet
  facet normal 0 1 -0
    outer loop
      vertex 18 -13.2 0.5
      vertex 16.3463 -13.2 4.21192
      vertex 18 -13.2 6.2
    endloop
  endfacet
  facet normal 0 1 0
    outer loop
      vertex 18 -13.2 0.5
      vertex 15.1246 -13.2 3.50657
      vertex 15.3754 -13.2 3.50657
    endloop
  endfacet
  facet normal 0 1 0
    outer loop
      vertex 12.8208 -13.2 3.55873
      vertex 18 -13.2 0.5
      vertex 12.5754 -13.2 3.50657
    endloop
  endfacet
  facet normal 0 1 0
    outer loop
      vertex 12.5754 -13.2 3.50657
      vertex 18 -13.2 0.5
      vertex 12.3246 -13.2 3.50657
    endloop
  endfacet
  facet normal 0 1 0
    outer loop
      vertex 12.3246 -13.2 3.50657
      vertex 18 -13.2 0.5
      vertex 9.77543 -13.2 3.50657
    endloop
  endfacet
  facet normal 0 1 0
    outer loop
      vertex 4 -13.2 0.5
      vertex 9.77543 -13.2 3.50657
      vertex 18 -13.2 0.5
    endloop
  endfacet
  facet normal 0 1 0
    outer loop
      vertex 9.77543 -13.2 3.50657
      vertex 4 -13.2 0.5
      vertex 9.52457 -13.2 3.50657
    endloop
  endfacet
  facet normal 0 1 0
    outer loop
      vertex 7.22082 -13.2 3.55873
      vertex 4 -13.2 0.5
      vertex 6.97543 -13.2 3.50657
    endloop
  endfacet
  facet normal 0 1 0
    outer loop
      vertex 15.6208 -13.2 3.55873
      vertex 18 -13.2 0.5
      vertex 15.3754 -13.2 3.50657
    endloop
  endfacet
  facet normal 0 1 0
    outer loop
      vertex 15.85 -13.2 3.66077
      vertex 18 -13.2 0.5
      vertex 15.6208 -13.2 3.55873
    endloop
  endfacet
  facet normal 0 1 0
    outer loop
      vertex 16.053 -13.2 3.80823
      vertex 18 -13.2 0.5
      vertex 15.85 -13.2 3.66077
    endloop
  endfacet
  facet normal 0 1 0
    outer loop
      vertex 16.2208 -13.2 3.99466
      vertex 18 -13.2 0.5
      vertex 16.053 -13.2 3.80823
    endloop
  endfacet
  facet normal 0 1 0
    outer loop
      vertex 16.3463 -13.2 4.21192
      vertex 18 -13.2 0.5
      vertex 16.2208 -13.2 3.99466
    endloop
  endfacet
  facet normal 0 1 0
    outer loop
      vertex 12.5754 -13.2 5.89343
      vertex 18 -13.2 6.2
      vertex 15.1246 -13.2 5.89343
    endloop
  endfacet
  facet normal 0 1 0
    outer loop
      vertex 12.3246 -13.2 5.89343
      vertex 18 -13.2 6.2
      vertex 12.5754 -13.2 5.89343
    endloop
  endfacet
  facet normal 0 1 0
    outer loop
      vertex 18 -13.2 6.2
      vertex 12.3246 -13.2 5.89343
      vertex 4 -13.2 6.2
    endloop
  endfacet
  facet normal 0 1 -0
    outer loop
      vertex 9.77543 -13.2 5.89343
      vertex 4 -13.2 6.2
      vertex 12.3246 -13.2 5.89343
    endloop
  endfacet
  facet normal 0 1 -0
    outer loop
      vertex 9.52457 -13.2 5.89343
      vertex 4 -13.2 6.2
      vertex 9.77543 -13.2 5.89343
    endloop
  endfacet
  facet normal 0 1 -0
    outer loop
      vertex 6.97543 -13.2 5.89343
      vertex 4 -13.2 6.2
      vertex 9.52457 -13.2 5.89343
    endloop
  endfacet
  facet normal 0 1 -0
    outer loop
      vertex 6.72457 -13.2 5.89343
      vertex 4 -13.2 6.2
      vertex 6.97543 -13.2 5.89343
    endloop
  endfacet
  facet normal 0 1 -0
    outer loop
      vertex 6.47918 -13.2 5.84127
      vertex 4 -13.2 6.2
      vertex 6.72457 -13.2 5.89343
    endloop
  endfacet
  facet normal 0 1 -0
    outer loop
      vertex 6.25 -13.2 5.73923
      vertex 4 -13.2 6.2
      vertex 6.47918 -13.2 5.84127
    endloop
  endfacet
  facet normal 0 1 -0
    outer loop
      vertex 6.04704 -13.2 5.59177
      vertex 4 -13.2 6.2
      vertex 6.25 -13.2 5.73923
    endloop
  endfacet
  facet normal 0 1 -0
    outer loop
      vertex 5.87918 -13.2 5.40534
      vertex 4 -13.2 6.2
      vertex 6.04704 -13.2 5.59177
    endloop
  endfacet
  facet normal 0 1 -0
    outer loop
      vertex 5.75374 -13.2 5.18808
      vertex 4 -13.2 6.2
      vertex 5.87918 -13.2 5.40534
    endloop
  endfacet
  facet normal 0 1 -0
    outer loop
      vertex 5.67622 -13.2 4.94949
      vertex 4 -13.2 6.2
      vertex 5.75374 -13.2 5.18808
    endloop
  endfacet
  facet normal 0 1 -0
    outer loop
      vertex 5.65 -13.2 4.7
      vertex 4 -13.2 6.2
      vertex 5.67622 -13.2 4.94949
    endloop
  endfacet
  facet normal 0 1 0
    outer loop
      vertex 5.67622 -13.2 4.45051
      vertex 4 -13.2 6.2
      vertex 5.65 -13.2 4.7
    endloop
  endfacet
  facet normal 0 1 0
    outer loop
      vertex 5.75374 -13.2 4.21192
      vertex 4 -13.2 6.2
      vertex 5.67622 -13.2 4.45051
    endloop
  endfacet
  facet normal 0 1 0
    outer loop
      vertex 4 -13.2 0.5
      vertex 5.75374 -13.2 4.21192
      vertex 5.87918 -13.2 3.99466
    endloop
  endfacet
  facet normal 0 1 0
    outer loop
      vertex 6.97543 -13.2 3.50657
      vertex 4 -13.2 0.5
      vertex 6.72457 -13.2 3.50657
    endloop
  endfacet
  facet normal 0 1 0
    outer loop
      vertex 5.75374 -13.2 4.21192
      vertex 4 -13.2 0.5
      vertex 4 -13.2 6.2
    endloop
  endfacet
  facet normal 0 1 0
    outer loop
      vertex 6.04704 -13.2 3.80823
      vertex 4 -13.2 0.5
      vertex 5.87918 -13.2 3.99466
    endloop
  endfacet
  facet normal 0 1 0
    outer loop
      vertex 6.25 -13.2 3.66077
      vertex 4 -13.2 0.5
      vertex 6.04704 -13.2 3.80823
    endloop
  endfacet
  facet normal 0 1 0
    outer loop
      vertex 6.47918 -13.2 3.55873
      vertex 4 -13.2 0.5
      vertex 6.25 -13.2 3.66077
    endloop
  endfacet
  facet normal 0 1 0
    outer loop
      vertex 6.72457 -13.2 3.50657
      vertex 4 -13.2 0.5
      vertex 6.47918 -13.2 3.55873
    endloop
  endfacet
  facet normal 0.994523 -0 0.104519
    outer loop
      vertex 5.65 -18 4.7
      vertex 5.67622 -13.2 4.45051
      vertex 5.65 -13.2 4.7
    endloop
  endfacet
  facet normal 0.994523 0 0.104519
    outer loop
      vertex 5.67622 -13.2 4.45051
      vertex 5.65 -18 4.7
      vertex 5.67622 -18 4.45051
    endloop
  endfacet
  facet normal 0.587788 0 0.809015
    outer loop
      vertex 6.04704 -13.2 3.80823
      vertex 6.25 -20 3.66077
      vertex 6.25 -13.2 3.66077
    endloop
  endfacet
  facet normal 0.587788 0 0.809015
    outer loop
      vertex 6.25 -20 3.66077
      vertex 6.04704 -13.2 3.80823
      vertex 6.04704 -20 3.80823
    endloop
  endfacet
  facet normal 0 0 -1
    outer loop
      vertex 9.52457 -20 5.89343
      vertex 9.77543 -13.2 5.89343
      vertex 9.77543 -20 5.89343
    endloop
  endfacet
  facet normal -0 0 -1
    outer loop
      vertex 9.77543 -13.2 5.89343
      vertex 9.52457 -20 5.89343
      vertex 9.52457 -13.2 5.89343
    endloop
  endfacet
  facet normal -0.951083 0 -0.308936
    outer loop
      vertex 10.8238 -20 4.94949
      vertex 10.7463 -13.2 5.18808
      vertex 10.8238 -13.2 4.94949
    endloop
  endfacet
  facet normal -0.951083 -0 -0.308936
    outer loop
      vertex 10.7463 -13.2 5.18808
      vertex 10.8238 -20 4.94949
      vertex 10.7463 -20 5.18808
    endloop
  endfacet
  facet normal -0.994531 0 -0.10444
    outer loop
      vertex 10.85 -20 4.7
      vertex 10.8238 -13.2 4.94949
      vertex 10.85 -13.2 4.7
    endloop
  endfacet
  facet normal -0.994531 -0 -0.10444
    outer loop
      vertex 10.8238 -13.2 4.94949
      vertex 10.85 -20 4.7
      vertex 10.8238 -20 4.94949
    endloop
  endfacet
  facet normal -0.951083 0 0.308936
    outer loop
      vertex 10.7463 -20 4.21192
      vertex 10.8238 -13.2 4.45051
      vertex 10.7463 -13.2 4.21192
    endloop
  endfacet
  facet normal -0.951083 0 0.308936
    outer loop
      vertex 10.8238 -13.2 4.45051
      vertex 10.7463 -20 4.21192
      vertex 10.8238 -20 4.45051
    endloop
  endfacet
  facet normal 0.587788 0 -0.809015
    outer loop
      vertex 8.84704 -20 5.59177
      vertex 9.05 -13.2 5.73923
      vertex 9.05 -20 5.73923
    endloop
  endfacet
  facet normal 0.587788 0 -0.809015
    outer loop
      vertex 9.05 -13.2 5.73923
      vertex 8.84704 -20 5.59177
      vertex 8.84704 -13.2 5.59177
    endloop
  endfacet
  facet normal -0.743268 0 -0.668993
    outer loop
      vertex 10.6208 -20 5.40534
      vertex 10.453 -13.2 5.59177
      vertex 10.6208 -13.2 5.40534
    endloop
  endfacet
  facet normal -0.743268 -0 -0.668993
    outer loop
      vertex 10.453 -13.2 5.59177
      vertex 10.6208 -20 5.40534
      vertex 10.453 -20 5.59177
    endloop
  endfacet
  facet normal -0.865913 0 -0.500194
    outer loop
      vertex 10.7463 -20 5.18808
      vertex 10.6208 -13.2 5.40534
      vertex 10.7463 -13.2 5.18808
    endloop
  endfacet
  facet normal -0.865913 -0 -0.500194
    outer loop
      vertex 10.6208 -13.2 5.40534
      vertex 10.7463 -20 5.18808
      vertex 10.6208 -20 5.40534
    endloop
  endfacet
  facet normal -0.743268 0 0.668993
    outer loop
      vertex 10.453 -20 3.80823
      vertex 10.6208 -13.2 3.99466
      vertex 10.453 -13.2 3.80823
    endloop
  endfacet
  facet normal -0.743268 0 0.668993
    outer loop
      vertex 10.6208 -13.2 3.99466
      vertex 10.453 -20 3.80823
      vertex 10.6208 -20 3.99466
    endloop
  endfacet
  facet normal -0.865913 0 0.500194
    outer loop
      vertex 10.6208 -20 3.99466
      vertex 10.7463 -13.2 4.21192
      vertex 10.6208 -13.2 3.99466
    endloop
  endfacet
  facet normal -0.865913 0 0.500194
    outer loop
      vertex 10.7463 -13.2 4.21192
      vertex 10.6208 -20 3.99466
      vertex 10.7463 -20 4.21192
    endloop
  endfacet
  facet normal 0.207915 0 0.978147
    outer loop
      vertex 9.27918 -13.2 3.55873
      vertex 9.52457 -20 3.50657
      vertex 9.52457 -13.2 3.50657
    endloop
  endfacet
  facet normal 0.207915 0 0.978147
    outer loop
      vertex 9.52457 -20 3.50657
      vertex 9.27918 -13.2 3.55873
      vertex 9.27918 -20 3.55873
    endloop
  endfacet
  facet normal 0.406745 0 -0.913542
    outer loop
      vertex 9.05 -20 5.73923
      vertex 9.27918 -13.2 5.84127
      vertex 9.27918 -20 5.84127
    endloop
  endfacet
  facet normal 0.406745 0 -0.913542
    outer loop
      vertex 9.27918 -13.2 5.84127
      vertex 9.05 -20 5.73923
      vertex 9.05 -13.2 5.73923
    endloop
  endfacet
  facet normal 0.743149 0 -0.669125
    outer loop
      vertex 8.84704 -20 5.59177
      vertex 8.67918 -13.2 5.40534
      vertex 8.84704 -13.2 5.59177
    endloop
  endfacet
  facet normal 0.743149 0 -0.669125
    outer loop
      vertex 8.67918 -13.2 5.40534
      vertex 8.84704 -20 5.59177
      vertex 8.67918 -20 5.40534
    endloop
  endfacet
  facet normal 0.587788 0 0.809015
    outer loop
      vertex 8.84704 -13.2 3.80823
      vertex 9.05 -20 3.66077
      vertex 9.05 -13.2 3.66077
    endloop
  endfacet
  facet normal 0.587788 0 0.809015
    outer loop
      vertex 9.05 -20 3.66077
      vertex 8.84704 -13.2 3.80823
      vertex 8.84704 -20 3.80823
    endloop
  endfacet
  facet normal 0.866034 0 -0.499985
    outer loop
      vertex 8.67918 -20 5.40534
      vertex 8.55375 -13.2 5.18808
      vertex 8.67918 -13.2 5.40534
    endloop
  endfacet
  facet normal 0.866034 0 -0.499985
    outer loop
      vertex 8.55375 -13.2 5.18808
      vertex 8.67918 -20 5.40534
      vertex 8.55375 -20 5.18808
    endloop
  endfacet
  facet normal 0.994523 -0 0.104519
    outer loop
      vertex 8.45 -20 4.7
      vertex 8.47622 -13.2 4.45051
      vertex 8.45 -13.2 4.7
    endloop
  endfacet
  facet normal 0.994523 0 0.104519
    outer loop
      vertex 8.47622 -13.2 4.45051
      vertex 8.45 -20 4.7
      vertex 8.47622 -20 4.45051
    endloop
  endfacet
  facet normal -0.406715 0 -0.913555
    outer loop
      vertex 10.0208 -20 5.84127
      vertex 10.25 -13.2 5.73923
      vertex 10.25 -20 5.73923
    endloop
  endfacet
  facet normal -0.406715 0 -0.913555
    outer loop
      vertex 10.25 -13.2 5.73923
      vertex 10.0208 -20 5.84127
      vertex 10.0208 -13.2 5.84127
    endloop
  endfacet
  facet normal -0.207931 0 -0.978144
    outer loop
      vertex 9.77543 -20 5.89343
      vertex 10.0208 -13.2 5.84127
      vertex 10.0208 -20 5.84127
    endloop
  endfacet
  facet normal -0.207931 0 -0.978144
    outer loop
      vertex 10.0208 -13.2 5.84127
      vertex 9.77543 -20 5.89343
      vertex 9.77543 -13.2 5.89343
    endloop
  endfacet
  facet normal 0.866034 -0 0.499985
    outer loop
      vertex 8.55375 -20 4.21192
      vertex 8.67918 -13.2 3.99466
      vertex 8.55375 -13.2 4.21192
    endloop
  endfacet
  facet normal 0.866034 0 0.499985
    outer loop
      vertex 8.67918 -13.2 3.99466
      vertex 8.55375 -20 4.21192
      vertex 8.67918 -20 3.99466
    endloop
  endfacet
  facet normal -0.207931 0 0.978144
    outer loop
      vertex 9.77543 -13.2 3.50657
      vertex 10.0208 -20 3.55873
      vertex 10.0208 -13.2 3.55873
    endloop
  endfacet
  facet normal -0.207931 0 0.978144
    outer loop
      vertex 10.0208 -20 3.55873
      vertex 9.77543 -13.2 3.50657
      vertex 9.77543 -20 3.50657
    endloop
  endfacet
  facet normal 0.951048 0 -0.309044
    outer loop
      vertex 8.55375 -20 5.18808
      vertex 8.47622 -13.2 4.94949
      vertex 8.55375 -13.2 5.18808
    endloop
  endfacet
  facet normal 0.951048 0 -0.309044
    outer loop
      vertex 8.47622 -13.2 4.94949
      vertex 8.55375 -20 5.18808
      vertex 8.47622 -20 4.94949
    endloop
  endfacet
  facet normal -0.406715 0 0.913555
    outer loop
      vertex 10.0208 -13.2 3.55873
      vertex 10.25 -20 3.66077
      vertex 10.25 -13.2 3.66077
    endloop
  endfacet
  facet normal -0.406715 0 0.913555
    outer loop
      vertex 10.25 -20 3.66077
      vertex 10.0208 -13.2 3.55873
      vertex 10.0208 -20 3.55873
    endloop
  endfacet
  facet normal -0.994531 0 0.10444
    outer loop
      vertex 10.8238 -20 4.45051
      vertex 10.85 -13.2 4.7
      vertex 10.8238 -13.2 4.45051
    endloop
  endfacet
  facet normal -0.994531 0 0.10444
    outer loop
      vertex 10.85 -13.2 4.7
      vertex 10.8238 -20 4.45051
      vertex 10.85 -20 4.7
    endloop
  endfacet
  facet normal 0.994523 0 -0.104519
    outer loop
      vertex 8.47622 -20 4.94949
      vertex 8.45 -13.2 4.7
      vertex 8.47622 -13.2 4.94949
    endloop
  endfacet
  facet normal 0.994523 0 -0.104519
    outer loop
      vertex 8.45 -13.2 4.7
      vertex 8.47622 -20 4.94949
      vertex 8.45 -20 4.7
    endloop
  endfacet
  facet normal -0.587712 0 -0.80907
    outer loop
      vertex 10.25 -20 5.73923
      vertex 10.453 -13.2 5.59177
      vertex 10.453 -20 5.59177
    endloop
  endfacet
  facet normal -0.587712 0 -0.80907
    outer loop
      vertex 10.453 -13.2 5.59177
      vertex 10.25 -20 5.73923
      vertex 10.25 -13.2 5.73923
    endloop
  endfacet
  facet normal 0.207915 0 -0.978147
    outer loop
      vertex 9.27918 -20 5.84127
      vertex 9.52457 -13.2 5.89343
      vertex 9.52457 -20 5.89343
    endloop
  endfacet
  facet normal 0.207915 0 -0.978147
    outer loop
      vertex 9.52457 -13.2 5.89343
      vertex 9.27918 -20 5.84127
      vertex 9.27918 -13.2 5.84127
    endloop
  endfacet
  facet normal 0.951048 -0 0.309044
    outer loop
      vertex 8.47622 -20 4.45051
      vertex 8.55375 -13.2 4.21192
      vertex 8.47622 -13.2 4.45051
    endloop
  endfacet
  facet normal 0.951048 0 0.309044
    outer loop
      vertex 8.55375 -13.2 4.21192
      vertex 8.47622 -20 4.45051
      vertex 8.55375 -20 4.21192
    endloop
  endfacet
  facet normal 0.743149 -0 0.669125
    outer loop
      vertex 8.67918 -20 3.99466
      vertex 8.84704 -13.2 3.80823
      vertex 8.67918 -13.2 3.99466
    endloop
  endfacet
  facet normal 0.743149 0 0.669125
    outer loop
      vertex 8.84704 -13.2 3.80823
      vertex 8.67918 -20 3.99466
      vertex 8.84704 -20 3.80823
    endloop
  endfacet
  facet normal -0.587712 0 0.80907
    outer loop
      vertex 10.25 -13.2 3.66077
      vertex 10.453 -20 3.80823
      vertex 10.453 -13.2 3.80823
    endloop
  endfacet
  facet normal -0.587712 0 0.80907
    outer loop
      vertex 10.453 -20 3.80823
      vertex 10.25 -13.2 3.66077
      vertex 10.25 -20 3.66077
    endloop
  endfacet
  facet normal -0 0 1
    outer loop
      vertex 9.52457 -13.2 3.50657
      vertex 9.77543 -20 3.50657
      vertex 9.77543 -13.2 3.50657
    endloop
  endfacet
  facet normal 0 0 1
    outer loop
      vertex 9.77543 -20 3.50657
      vertex 9.52457 -13.2 3.50657
      vertex 9.52457 -20 3.50657
    endloop
  endfacet
  facet normal 0.406745 0 0.913542
    outer loop
      vertex 9.05 -13.2 3.66077
      vertex 9.27918 -20 3.55873
      vertex 9.27918 -13.2 3.55873
    endloop
  endfacet
  facet normal 0.406745 0 0.913542
    outer loop
      vertex 9.27918 -20 3.55873
      vertex 9.05 -13.2 3.66077
      vertex 9.05 -20 3.66077
    endloop
  endfacet
  facet normal 0 0 -1
    outer loop
      vertex 12.3246 -20 5.89343
      vertex 12.5754 -13.2 5.89343
      vertex 12.5754 -20 5.89343
    endloop
  endfacet
  facet normal -0 0 -1
    outer loop
      vertex 12.5754 -13.2 5.89343
      vertex 12.3246 -20 5.89343
      vertex 12.3246 -13.2 5.89343
    endloop
  endfacet
  facet normal -0.951083 0 -0.308936
    outer loop
      vertex 13.6238 -20 4.94949
      vertex 13.5463 -13.2 5.18808
      vertex 13.6238 -13.2 4.94949
    endloop
  endfacet
  facet normal -0.951083 -0 -0.308936
    outer loop
      vertex 13.5463 -13.2 5.18808
      vertex 13.6238 -20 4.94949
      vertex 13.5463 -20 5.18808
    endloop
  endfacet
  facet normal -0.994531 0 -0.10444
    outer loop
      vertex 13.65 -20 4.7
      vertex 13.6238 -13.2 4.94949
      vertex 13.65 -13.2 4.7
    endloop
  endfacet
  facet normal -0.994531 -0 -0.10444
    outer loop
      vertex 13.6238 -13.2 4.94949
      vertex 13.65 -20 4.7
      vertex 13.6238 -20 4.94949
    endloop
  endfacet
  facet normal -0.951083 0 0.308936
    outer loop
      vertex 13.5463 -20 4.21192
      vertex 13.6238 -13.2 4.45051
      vertex 13.5463 -13.2 4.21192
    endloop
  endfacet
  facet normal -0.951083 0 0.308936
    outer loop
      vertex 13.6238 -13.2 4.45051
      vertex 13.5463 -20 4.21192
      vertex 13.6238 -20 4.45051
    endloop
  endfacet
  facet normal 0.587712 0 -0.80907
    outer loop
      vertex 11.647 -20 5.59177
      vertex 11.85 -13.2 5.73923
      vertex 11.85 -20 5.73923
    endloop
  endfacet
  facet normal 0.587712 0 -0.80907
    outer loop
      vertex 11.85 -13.2 5.73923
      vertex 11.647 -20 5.59177
      vertex 11.647 -13.2 5.59177
    endloop
  endfacet
  facet normal -0.743268 0 -0.668993
    outer loop
      vertex 13.4208 -20 5.40534
      vertex 13.253 -13.2 5.59177
      vertex 13.4208 -13.2 5.40534
    endloop
  endfacet
  facet normal -0.743268 -0 -0.668993
    outer loop
      vertex 13.253 -13.2 5.59177
      vertex 13.4208 -20 5.40534
      vertex 13.253 -20 5.59177
    endloop
  endfacet
  facet normal -0.865913 0 -0.500194
    outer loop
      vertex 13.5463 -20 5.18808
      vertex 13.4208 -13.2 5.40534
      vertex 13.5463 -13.2 5.18808
    endloop
  endfacet
  facet normal -0.865913 -0 -0.500194
    outer loop
      vertex 13.4208 -13.2 5.40534
      vertex 13.5463 -20 5.18808
      vertex 13.4208 -20 5.40534
    endloop
  endfacet
  facet normal -0.743268 0 0.668993
    outer loop
      vertex 13.253 -20 3.80823
      vertex 13.4208 -13.2 3.99466
      vertex 13.253 -13.2 3.80823
    endloop
  endfacet
  facet normal -0.743268 0 0.668993
    outer loop
      vertex 13.4208 -13.2 3.99466
      vertex 13.253 -20 3.80823
      vertex 13.4208 -20 3.99466
    endloop
  endfacet
  facet normal -0.865913 0 0.500194
    outer loop
      vertex 13.4208 -20 3.99466
      vertex 13.5463 -13.2 4.21192
      vertex 13.4208 -13.2 3.99466
    endloop
  endfacet
  facet normal -0.865913 0 0.500194
    outer loop
      vertex 13.5463 -13.2 4.21192
      vertex 13.4208 -20 3.99466
      vertex 13.5463 -20 4.21192
    endloop
  endfacet
  facet normal 0.207906 0 0.978149
    outer loop
      vertex 12.0792 -13.2 3.55873
      vertex 12.3246 -20 3.50657
      vertex 12.3246 -13.2 3.50657
    endloop
  endfacet
  facet normal 0.207906 0 0.978149
    outer loop
      vertex 12.3246 -20 3.50657
      vertex 12.0792 -13.2 3.55873
      vertex 12.0792 -20 3.55873
    endloop
  endfacet
  facet normal 0.406715 0 -0.913555
    outer loop
      vertex 11.85 -20 5.73923
      vertex 12.0792 -13.2 5.84127
      vertex 12.0792 -20 5.84127
    endloop
  endfacet
  facet normal 0.406715 0 -0.913555
    outer loop
      vertex 12.0792 -13.2 5.84127
      vertex 11.85 -20 5.73923
      vertex 11.85 -13.2 5.73923
    endloop
  endfacet
  facet normal 0.743268 0 -0.668993
    outer loop
      vertex 11.647 -20 5.59177
      vertex 11.4792 -13.2 5.40534
      vertex 11.647 -13.2 5.59177
    endloop
  endfacet
  facet normal 0.743268 0 -0.668993
    outer loop
      vertex 11.4792 -13.2 5.40534
      vertex 11.647 -20 5.59177
      vertex 11.4792 -20 5.40534
    endloop
  endfacet
  facet normal 0.587712 0 0.80907
    outer loop
      vertex 11.647 -13.2 3.80823
      vertex 11.85 -20 3.66077
      vertex 11.85 -13.2 3.66077
    endloop
  endfacet
  facet normal 0.587712 0 0.80907
    outer loop
      vertex 11.85 -20 3.66077
      vertex 11.647 -13.2 3.80823
      vertex 11.647 -20 3.80823
    endloop
  endfacet
  facet normal 0.865913 0 -0.500194
    outer loop
      vertex 11.4792 -20 5.40534
      vertex 11.3537 -13.2 5.18808
      vertex 11.4792 -13.2 5.40534
    endloop
  endfacet
  facet normal 0.865913 0 -0.500194
    outer loop
      vertex 11.3537 -13.2 5.18808
      vertex 11.4792 -20 5.40534
      vertex 11.3537 -20 5.18808
    endloop
  endfacet
  facet normal 0.994531 -0 0.10444
    outer loop
      vertex 11.25 -20 4.7
      vertex 11.2762 -13.2 4.45051
      vertex 11.25 -13.2 4.7
    endloop
  endfacet
  facet normal 0.994531 0 0.10444
    outer loop
      vertex 11.2762 -13.2 4.45051
      vertex 11.25 -20 4.7
      vertex 11.2762 -20 4.45051
    endloop
  endfacet
  facet normal -0.406715 0 -0.913555
    outer loop
      vertex 12.8208 -20 5.84127
      vertex 13.05 -13.2 5.73923
      vertex 13.05 -20 5.73923
    endloop
  endfacet
  facet normal -0.406715 0 -0.913555
    outer loop
      vertex 13.05 -13.2 5.73923
      vertex 12.8208 -20 5.84127
      vertex 12.8208 -13.2 5.84127
    endloop
  endfacet
  facet normal -0.207906 0 -0.978149
    outer loop
      vertex 12.5754 -20 5.89343
      vertex 12.8208 -13.2 5.84127
      vertex 12.8208 -20 5.84127
    endloop
  endfacet
  facet normal -0.207906 0 -0.978149
    outer loop
      vertex 12.8208 -13.2 5.84127
      vertex 12.5754 -20 5.89343
      vertex 12.5754 -13.2 5.89343
    endloop
  endfacet
  facet normal -0.994531 0 0.10444
    outer loop
      vertex 13.6238 -20 4.45051
      vertex 13.65 -13.2 4.7
      vertex 13.6238 -13.2 4.45051
    endloop
  endfacet
  facet normal -0.994531 0 0.10444
    outer loop
      vertex 13.65 -13.2 4.7
      vertex 13.6238 -20 4.45051
      vertex 13.65 -20 4.7
    endloop
  endfacet
  facet normal 0.865913 -0 0.500194
    outer loop
      vertex 11.3537 -20 4.21192
      vertex 11.4792 -13.2 3.99466
      vertex 11.3537 -13.2 4.21192
    endloop
  endfacet
  facet normal 0.865913 0 0.500194
    outer loop
      vertex 11.4792 -13.2 3.99466
      vertex 11.3537 -20 4.21192
      vertex 11.4792 -20 3.99466
    endloop
  endfacet
  facet normal -0.207906 0 0.978149
    outer loop
      vertex 12.5754 -13.2 3.50657
      vertex 12.8208 -20 3.55873
      vertex 12.8208 -13.2 3.55873
    endloop
  endfacet
  facet normal -0.207906 0 0.978149
    outer loop
      vertex 12.8208 -20 3.55873
      vertex 12.5754 -13.2 3.50657
      vertex 12.5754 -20 3.50657
    endloop
  endfacet
  facet normal 0.951083 0 -0.308936
    outer loop
      vertex 11.3537 -20 5.18808
      vertex 11.2762 -13.2 4.94949
      vertex 11.3537 -13.2 5.18808
    endloop
  endfacet
  facet normal 0.951083 0 -0.308936
    outer loop
      vertex 11.2762 -13.2 4.94949
      vertex 11.3537 -20 5.18808
      vertex 11.2762 -20 4.94949
    endloop
  endfacet
  facet normal -0.406715 0 0.913555
    outer loop
      vertex 12.8208 -13.2 3.55873
      vertex 13.05 -20 3.66077
      vertex 13.05 -13.2 3.66077
    endloop
  endfacet
  facet normal -0.406715 0 0.913555
    outer loop
      vertex 13.05 -20 3.66077
      vertex 12.8208 -13.2 3.55873
      vertex 12.8208 -20 3.55873
    endloop
  endfacet
  facet normal 0.994531 0 -0.10444
    outer loop
      vertex 11.2762 -20 4.94949
      vertex 11.25 -13.2 4.7
      vertex 11.2762 -13.2 4.94949
    endloop
  endfacet
  facet normal 0.994531 0 -0.10444
    outer loop
      vertex 11.25 -13.2 4.7
      vertex 11.2762 -20 4.94949
      vertex 11.25 -20 4.7
    endloop
  endfacet
  facet normal -0.587712 0 -0.80907
    outer loop
      vertex 13.05 -20 5.73923
      vertex 13.253 -13.2 5.59177
      vertex 13.253 -20 5.59177
    endloop
  endfacet
  facet normal -0.587712 0 -0.80907
    outer loop
      vertex 13.253 -13.2 5.59177
      vertex 13.05 -20 5.73923
      vertex 13.05 -13.2 5.73923
    endloop
  endfacet
  facet normal 0.207906 0 -0.978149
    outer loop
      vertex 12.0792 -20 5.84127
      vertex 12.3246 -13.2 5.89343
      vertex 12.3246 -20 5.89343
    endloop
  endfacet
  facet normal 0.207906 0 -0.978149
    outer loop
      vertex 12.3246 -13.2 5.89343
      vertex 12.0792 -20 5.84127
      vertex 12.0792 -13.2 5.84127
    endloop
  endfacet
  facet normal 0.951083 -0 0.308936
    outer loop
      vertex 11.2762 -20 4.45051
      vertex 11.3537 -13.2 4.21192
      vertex 11.2762 -13.2 4.45051
    endloop
  endfacet
  facet normal 0.951083 0 0.308936
    outer loop
      vertex 11.3537 -13.2 4.21192
      vertex 11.2762 -20 4.45051
      vertex 11.3537 -20 4.21192
    endloop
  endfacet
  facet normal 0.743268 -0 0.668993
    outer loop
      vertex 11.4792 -20 3.99466
      vertex 11.647 -13.2 3.80823
      vertex 11.4792 -13.2 3.99466
    endloop
  endfacet
  facet normal 0.743268 0 0.668993
    outer loop
      vertex 11.647 -13.2 3.80823
      vertex 11.4792 -20 3.99466
      vertex 11.647 -20 3.80823
    endloop
  endfacet
  facet normal -0.587712 0 0.80907
    outer loop
      vertex 13.05 -13.2 3.66077
      vertex 13.253 -20 3.80823
      vertex 13.253 -13.2 3.80823
    endloop
  endfacet
  facet normal -0.587712 0 0.80907
    outer loop
      vertex 13.253 -20 3.80823
      vertex 13.05 -13.2 3.66077
      vertex 13.05 -20 3.66077
    endloop
  endfacet
  facet normal -0 0 1
    outer loop
      vertex 12.3246 -13.2 3.50657
      vertex 12.5754 -20 3.50657
      vertex 12.5754 -13.2 3.50657
    endloop
  endfacet
  facet normal 0 0 1
    outer loop
      vertex 12.5754 -20 3.50657
      vertex 12.3246 -13.2 3.50657
      vertex 12.3246 -20 3.50657
    endloop
  endfacet
  facet normal 0.406715 0 0.913555
    outer loop
      vertex 11.85 -13.2 3.66077
      vertex 12.0792 -20 3.55873
      vertex 12.0792 -13.2 3.55873
    endloop
  endfacet
  facet normal 0.406715 0 0.913555
    outer loop
      vertex 12.0792 -20 3.55873
      vertex 11.85 -13.2 3.66077
      vertex 11.85 -20 3.66077
    endloop
  endfacet
  facet normal 0.994531 0 -0.10444
    outer loop
      vertex 14.0762 -20 4.94949
      vertex 14.05 -13.2 4.7
      vertex 14.0762 -13.2 4.94949
    endloop
  endfacet
  facet normal 0.994531 0 -0.10444
    outer loop
      vertex 14.05 -13.2 4.7
      vertex 14.0762 -20 4.94949
      vertex 14.05 -20 4.7
    endloop
  endfacet
  facet normal -0.951083 0 -0.308936
    outer loop
      vertex 16.4238 -20 4.94949
      vertex 16.3463 -13.2 5.18808
      vertex 16.4238 -13.2 4.94949
    endloop
  endfacet
  facet normal -0.951083 -0 -0.308936
    outer loop
      vertex 16.3463 -13.2 5.18808
      vertex 16.4238 -20 4.94949
      vertex 16.3463 -20 5.18808
    endloop
  endfacet
  facet normal -0.994531 0 -0.10444
    outer loop
      vertex 16.45 -20 4.7
      vertex 16.4238 -13.2 4.94949
      vertex 16.45 -13.2 4.7
    endloop
  endfacet
  facet normal -0.994531 -0 -0.10444
    outer loop
      vertex 16.4238 -13.2 4.94949
      vertex 16.45 -20 4.7
      vertex 16.4238 -20 4.94949
    endloop
  endfacet
  facet normal -0.207906 0 -0.978149
    outer loop
      vertex 15.3754 -20 5.89343
      vertex 15.6208 -13.2 5.84127
      vertex 15.6208 -20 5.84127
    endloop
  endfacet
  facet normal -0.207906 0 -0.978149
    outer loop
      vertex 15.6208 -13.2 5.84127
      vertex 15.3754 -20 5.89343
      vertex 15.3754 -13.2 5.89343
    endloop
  endfacet
  facet normal 0.743268 0 -0.668993
    outer loop
      vertex 14.447 -20 5.59177
      vertex 14.2792 -13.2 5.40534
      vertex 14.447 -13.2 5.59177
    endloop
  endfacet
  facet normal 0.743268 0 -0.668993
    outer loop
      vertex 14.2792 -13.2 5.40534
      vertex 14.447 -20 5.59177
      vertex 14.2792 -20 5.40534
    endloop
  endfacet
  facet normal -0.406715 0 0.913555
    outer loop
      vertex 15.6208 -13.2 3.55873
      vertex 15.85 -20 3.66077
      vertex 15.85 -13.2 3.66077
    endloop
  endfacet
  facet normal -0.406715 0 0.913555
    outer loop
      vertex 15.85 -20 3.66077
      vertex 15.6208 -13.2 3.55873
      vertex 15.6208 -20 3.55873
    endloop
  endfacet
  facet normal -0.865913 0 -0.500194
    outer loop
      vertex 16.3463 -20 5.18808
      vertex 16.2208 -13.2 5.40534
      vertex 16.3463 -13.2 5.18808
    endloop
  endfacet
  facet normal -0.865913 -0 -0.500194
    outer loop
      vertex 16.2208 -13.2 5.40534
      vertex 16.3463 -20 5.18808
      vertex 16.2208 -20 5.40534
    endloop
  endfacet
  facet normal -0.865913 0 0.500194
    outer loop
      vertex 16.2208 -20 3.99466
      vertex 16.3463 -13.2 4.21192
      vertex 16.2208 -13.2 3.99466
    endloop
  endfacet
  facet normal -0.865913 0 0.500194
    outer loop
      vertex 16.3463 -13.2 4.21192
      vertex 16.2208 -20 3.99466
      vertex 16.3463 -20 4.21192
    endloop
  endfacet
  facet normal 0.406715 0 -0.913555
    outer loop
      vertex 14.65 -20 5.73923
      vertex 14.8792 -13.2 5.84127
      vertex 14.8792 -20 5.84127
    endloop
  endfacet
  facet normal 0.406715 0 -0.913555
    outer loop
      vertex 14.8792 -13.2 5.84127
      vertex 14.65 -20 5.73923
      vertex 14.65 -13.2 5.73923
    endloop
  endfacet
  facet normal -0.743268 0 -0.668993
    outer loop
      vertex 16.2208 -20 5.40534
      vertex 16.053 -13.2 5.59177
      vertex 16.2208 -13.2 5.40534
    endloop
  endfacet
  facet normal -0.743268 -0 -0.668993
    outer loop
      vertex 16.053 -13.2 5.59177
      vertex 16.2208 -20 5.40534
      vertex 16.053 -20 5.59177
    endloop
  endfacet
  facet normal 0.587712 0 -0.80907
    outer loop
      vertex 14.447 -20 5.59177
      vertex 14.65 -13.2 5.73923
      vertex 14.65 -20 5.73923
    endloop
  endfacet
  facet normal 0.587712 0 -0.80907
    outer loop
      vertex 14.65 -13.2 5.73923
      vertex 14.447 -20 5.59177
      vertex 14.447 -13.2 5.59177
    endloop
  endfacet
  facet normal -0 0 1
    outer loop
      vertex 15.1246 -13.2 3.50657
      vertex 15.3754 -20 3.50657
      vertex 15.3754 -13.2 3.50657
    endloop
  endfacet
  facet normal 0 0 1
    outer loop
      vertex 15.3754 -20 3.50657
      vertex 15.1246 -13.2 3.50657
      vertex 15.1246 -20 3.50657
    endloop
  endfacet
  facet normal 0.207906 0 -0.978149
    outer loop
      vertex 14.8792 -20 5.84127
      vertex 15.1246 -13.2 5.89343
      vertex 15.1246 -20 5.89343
    endloop
  endfacet
  facet normal 0.207906 0 -0.978149
    outer loop
      vertex 15.1246 -13.2 5.89343
      vertex 14.8792 -20 5.84127
      vertex 14.8792 -13.2 5.84127
    endloop
  endfacet
  facet normal -0.951083 0 0.308936
    outer loop
      vertex 16.3463 -20 4.21192
      vertex 16.4238 -13.2 4.45051
      vertex 16.3463 -13.2 4.21192
    endloop
  endfacet
  facet normal -0.951083 0 0.308936
    outer loop
      vertex 16.4238 -13.2 4.45051
      vertex 16.3463 -20 4.21192
      vertex 16.4238 -20 4.45051
    endloop
  endfacet
  facet normal -0.743268 0 0.668993
    outer loop
      vertex 16.053 -20 3.80823
      vertex 16.2208 -13.2 3.99466
      vertex 16.053 -13.2 3.80823
    endloop
  endfacet
  facet normal -0.743268 0 0.668993
    outer loop
      vertex 16.2208 -13.2 3.99466
      vertex 16.053 -20 3.80823
      vertex 16.2208 -20 3.99466
    endloop
  endfacet
  facet normal 0.951083 -0 0.308936
    outer loop
      vertex 14.0762 -20 4.45051
      vertex 14.1537 -13.2 4.21192
      vertex 14.0762 -13.2 4.45051
    endloop
  endfacet
  facet normal 0.951083 0 0.308936
    outer loop
      vertex 14.1537 -13.2 4.21192
      vertex 14.0762 -20 4.45051
      vertex 14.1537 -20 4.21192
    endloop
  endfacet
  facet normal -0.587712 0 0.80907
    outer loop
      vertex 15.85 -13.2 3.66077
      vertex 16.053 -20 3.80823
      vertex 16.053 -13.2 3.80823
    endloop
  endfacet
  facet normal -0.587712 0 0.80907
    outer loop
      vertex 16.053 -20 3.80823
      vertex 15.85 -13.2 3.66077
      vertex 15.85 -20 3.66077
    endloop
  endfacet
  facet normal 0.406715 0 0.913555
    outer loop
      vertex 14.65 -13.2 3.66077
      vertex 14.8792 -20 3.55873
      vertex 14.8792 -13.2 3.55873
    endloop
  endfacet
  facet normal 0.406715 0 0.913555
    outer loop
      vertex 14.8792 -20 3.55873
      vertex 14.65 -13.2 3.66077
      vertex 14.65 -20 3.66077
    endloop
  endfacet
  facet normal 0.951083 0 -0.308936
    outer loop
      vertex 14.1537 -20 5.18808
      vertex 14.0762 -13.2 4.94949
      vertex 14.1537 -13.2 5.18808
    endloop
  endfacet
  facet normal 0.951083 0 -0.308936
    outer loop
      vertex 14.0762 -13.2 4.94949
      vertex 14.1537 -20 5.18808
      vertex 14.0762 -20 4.94949
    endloop
  endfacet
  facet normal -0.406715 0 -0.913555
    outer loop
      vertex 15.6208 -20 5.84127
      vertex 15.85 -13.2 5.73923
      vertex 15.85 -20 5.73923
    endloop
  endfacet
  facet normal -0.406715 0 -0.913555
    outer loop
      vertex 15.85 -13.2 5.73923
      vertex 15.6208 -20 5.84127
      vertex 15.6208 -13.2 5.84127
    endloop
  endfacet
  facet normal -0.587712 0 -0.80907
    outer loop
      vertex 15.85 -20 5.73923
      vertex 16.053 -13.2 5.59177
      vertex 16.053 -20 5.59177
    endloop
  endfacet
  facet normal -0.587712 0 -0.80907
    outer loop
      vertex 16.053 -13.2 5.59177
      vertex 15.85 -20 5.73923
      vertex 15.85 -13.2 5.73923
    endloop
  endfacet
  facet normal -0.207906 0 0.978149
    outer loop
      vertex 15.3754 -13.2 3.50657
      vertex 15.6208 -20 3.55873
      vertex 15.6208 -13.2 3.55873
    endloop
  endfacet
  facet normal -0.207906 0 0.978149
    outer loop
      vertex 15.6208 -20 3.55873
      vertex 15.3754 -13.2 3.50657
      vertex 15.3754 -20 3.50657
    endloop
  endfacet
  facet normal 0.865913 0 -0.500194
    outer loop
      vertex 14.2792 -20 5.40534
      vertex 14.1537 -13.2 5.18808
      vertex 14.2792 -13.2 5.40534
    endloop
  endfacet
  facet normal 0.865913 0 -0.500194
    outer loop
      vertex 14.1537 -13.2 5.18808
      vertex 14.2792 -20 5.40534
      vertex 14.1537 -20 5.18808
    endloop
  endfacet
  facet normal 0.994531 -0 0.10444
    outer loop
      vertex 14.05 -20 4.7
      vertex 14.0762 -13.2 4.45051
      vertex 14.05 -13.2 4.7
    endloop
  endfacet
  facet normal 0.994531 0 0.10444
    outer loop
      vertex 14.0762 -13.2 4.45051
      vertex 14.05 -20 4.7
      vertex 14.0762 -20 4.45051
    endloop
  endfacet
  facet normal 0 0 -1
    outer loop
      vertex 15.1246 -20 5.89343
      vertex 15.3754 -13.2 5.89343
      vertex 15.3754 -20 5.89343
    endloop
  endfacet
  facet normal -0 0 -1
    outer loop
      vertex 15.3754 -13.2 5.89343
      vertex 15.1246 -20 5.89343
      vertex 15.1246 -13.2 5.89343
    endloop
  endfacet
  facet normal -0.994531 0 0.10444
    outer loop
      vertex 16.4238 -20 4.45051
      vertex 16.45 -13.2 4.7
      vertex 16.4238 -13.2 4.45051
    endloop
  endfacet
  facet normal -0.994531 0 0.10444
    outer loop
      vertex 16.45 -13.2 4.7
      vertex 16.4238 -20 4.45051
      vertex 16.45 -20 4.7
    endloop
  endfacet
  facet normal 0.207906 0 0.978149
    outer loop
      vertex 14.8792 -13.2 3.55873
      vertex 15.1246 -20 3.50657
      vertex 15.1246 -13.2 3.50657
    endloop
  endfacet
  facet normal 0.207906 0 0.978149
    outer loop
      vertex 15.1246 -20 3.50657
      vertex 14.8792 -13.2 3.55873
      vertex 14.8792 -20 3.55873
    endloop
  endfacet
  facet normal 0.865913 -0 0.500194
    outer loop
      vertex 14.1537 -20 4.21192
      vertex 14.2792 -13.2 3.99466
      vertex 14.1537 -13.2 4.21192
    endloop
  endfacet
  facet normal 0.865913 0 0.500194
    outer loop
      vertex 14.2792 -13.2 3.99466
      vertex 14.1537 -20 4.21192
      vertex 14.2792 -20 3.99466
    endloop
  endfacet
  facet normal 0.743268 -0 0.668993
    outer loop
      vertex 14.2792 -20 3.99466
      vertex 14.447 -13.2 3.80823
      vertex 14.2792 -13.2 3.99466
    endloop
  endfacet
  facet normal 0.743268 0 0.668993
    outer loop
      vertex 14.447 -13.2 3.80823
      vertex 14.2792 -20 3.99466
      vertex 14.447 -20 3.80823
    endloop
  endfacet
  facet normal 0.587712 0 0.80907
    outer loop
      vertex 14.447 -13.2 3.80823
      vertex 14.65 -20 3.66077
      vertex 14.65 -13.2 3.66077
    endloop
  endfacet
  facet normal 0.587712 0 0.80907
    outer loop
      vertex 14.65 -20 3.66077
      vertex 14.447 -13.2 3.80823
      vertex 14.447 -20 3.80823
    endloop
  endfacet
  facet normal -1 0 0
    outer loop
      vertex 18 -13.2 0.5
      vertex 18 0 6.2
      vertex 18 0 0.5
    endloop
  endfacet
  facet normal -1 -0 0
    outer loop
      vertex 18 0 6.2
      vertex 18 -13.2 0.5
      vertex 18 -13.2 6.2
    endloop
  endfacet
  facet normal 0 0 -1
    outer loop
      vertex 4 -13.2 6.2
      vertex 18 0 6.2
      vertex 18 -13.2 6.2
    endloop
  endfacet
  facet normal -0 0 -1
    outer loop
      vertex 18 0 6.2
      vertex 4 -13.2 6.2
      vertex 4 0 6.2
    endloop
  endfacet
  facet normal -0 0 1
    outer loop
      vertex 4 0 0.5
      vertex 18 -13.2 0.5
      vertex 18 0 0.5
    endloop
  endfacet
  facet normal 0 0 1
    outer loop
      vertex 18 -13.2 0.5
      vertex 4 0 0.5
      vertex 4 -13.2 0.5
    endloop
  endfacet
  facet normal 1 -0 0
    outer loop
      vertex 4 -13.2 6.2
      vertex 4 0 0.5
      vertex 4 0 6.2
    endloop
  endfacet
  facet normal 1 0 0
    outer loop
      vertex 4 0 0.5
      vertex 4 -13.2 6.2
      vertex 4 -13.2 0.5
    endloop
  endfacet
  facet normal 0 -1 0
    outer loop
      vertex 5.70506 -18 6.04491
      vertex 4.80469 -18 7.84375
      vertex 3.90625 -18 6.9453
    endloop
  endfacet
  facet normal 0 -1 0
    outer loop
      vertex 4.80469 -18 7.84375
      vertex 5.70506 -18 6.04491
      vertex 17.4941 -18 7.84375
    endloop
  endfacet
  facet normal 0 -1 0
    outer loop
      vertex 16.5938 -18 6.04491
      vertex 17.4941 -18 7.84375
      vertex 5.70506 -18 6.04491
    endloop
  endfacet
  facet normal 0 -1 0
    outer loop
      vertex 3.90625 -18 6.9453
      vertex 5.70506 -18 5.03826
      vertex 5.70506 -18 6.04491
    endloop
  endfacet
  facet normal 0 -1 0
    outer loop
      vertex 3.90625 -18 6.9453
      vertex 5.67622 -18 4.94949
      vertex 5.70506 -18 5.03826
    endloop
  endfacet
  facet normal 0 -1 0
    outer loop
      vertex 3.90625 -18 6.9453
      vertex 5.65 -18 4.7
      vertex 5.67622 -18 4.94949
    endloop
  endfacet
  facet normal 0 -1 0
    outer loop
      vertex 3.90625 -18 2.55469
      vertex 5.65 -18 4.7
      vertex 3.90625 -18 6.9453
    endloop
  endfacet
  facet normal 0 -1 -0
    outer loop
      vertex 5.65 -18 4.7
      vertex 3.90625 -18 2.55469
      vertex 5.67622 -18 4.45051
    endloop
  endfacet
  facet normal 0 -1 -0
    outer loop
      vertex 5.67622 -18 4.45051
      vertex 3.90625 -18 2.55469
      vertex 5.70506 -18 4.36174
    endloop
  endfacet
  facet normal 0 -1 0
    outer loop
      vertex 4.80469 -18 1.65625
      vertex 5.70506 -18 3.45508
      vertex 3.90625 -18 2.55469
    endloop
  endfacet
  facet normal 0 -1 -0
    outer loop
      vertex 5.70506 -18 4.36174
      vertex 3.90625 -18 2.55469
      vertex 5.70506 -18 3.45508
    endloop
  endfacet
  facet normal 0 -1 -0
    outer loop
      vertex 17.4941 -18 7.84375
      vertex 16.5938 -18 6.04491
      vertex 18.3945 -18 6.9453
    endloop
  endfacet
  facet normal 0 -1 0
    outer loop
      vertex 16.5938 -18 3.45508
      vertex 18.3945 -18 6.9453
      vertex 16.5938 -18 6.04491
    endloop
  endfacet
  facet normal 0 -1 0
    outer loop
      vertex 16.5938 -18 3.45508
      vertex 18.3945 -18 2.55469
      vertex 18.3945 -18 6.9453
    endloop
  endfacet
  facet normal 0 -1 -0
    outer loop
      vertex 5.70506 -18 3.45508
      vertex 4.80469 -18 1.65625
      vertex 16.5938 -18 3.45508
    endloop
  endfacet
  facet normal 0 -1 0
    outer loop
      vertex 17.4941 -18 1.65625
      vertex 16.5938 -18 3.45508
      vertex 4.80469 -18 1.65625
    endloop
  endfacet
  facet normal 0 -1 0
    outer loop
      vertex 16.5938 -18 3.45508
      vertex 17.4941 -18 1.65625
      vertex 18.3945 -18 2.55469
    endloop
  endfacet
  facet normal 0 -1 0
    outer loop
      vertex 0 -20 8
      vertex 4.80469 -20 7.84375
      vertex 22 -20 8
    endloop
  endfacet
  facet normal 0 -1 0
    outer loop
      vertex 0 -20 8
      vertex 3.90625 -20 6.9453
      vertex 4.80469 -20 7.84375
    endloop
  endfacet
  facet normal 0 -1 0
    outer loop
      vertex 0 -20 8
      vertex 3.90625 -20 2.55469
      vertex 3.90625 -20 6.9453
    endloop
  endfacet
  facet normal 0 -1 0
    outer loop
      vertex 22 -20 0
      vertex 4.80469 -20 1.65625
      vertex 0 -20 0
    endloop
  endfacet
  facet normal 0 -1 -0
    outer loop
      vertex 3.90625 -20 2.55469
      vertex 0 -20 0
      vertex 4.80469 -20 1.65625
    endloop
  endfacet
  facet normal 0 -1 0
    outer loop
      vertex 0 -20 0
      vertex 3.90625 -20 2.55469
      vertex 0 -20 8
    endloop
  endfacet
  facet normal 0 -1 0
    outer loop
      vertex 17.4941 -20 7.84375
      vertex 22 -20 8
      vertex 4.80469 -20 7.84375
    endloop
  endfacet
  facet normal 0 -1 0
    outer loop
      vertex 18.3945 -20 6.9453
      vertex 22 -20 8
      vertex 17.4941 -20 7.84375
    endloop
  endfacet
  facet normal 0 -1 0
    outer loop
      vertex 18.3945 -20 2.55469
      vertex 22 -20 8
      vertex 18.3945 -20 6.9453
    endloop
  endfacet
  facet normal 0 -1 0
    outer loop
      vertex 18.3945 -20 2.55469
      vertex 22 -20 0
      vertex 22 -20 8
    endloop
  endfacet
  facet normal 0 -1 0
    outer loop
      vertex 17.4941 -20 1.65625
      vertex 22 -20 0
      vertex 18.3945 -20 2.55469
    endloop
  endfacet
  facet normal 0 -1 0
    outer loop
      vertex 4.80469 -20 1.65625
      vertex 22 -20 0
      vertex 17.4941 -20 1.65625
    endloop
  endfacet
  facet normal 0 -1 0
    outer loop
      vertex 5.70506 -20 3.45508
      vertex 6.97543 -20 3.50657
      vertex 6.72457 -20 3.50657
    endloop
  endfacet
  facet normal 0 -1 -0
    outer loop
      vertex 6.97543 -20 3.50657
      vertex 5.70506 -20 3.45508
      vertex 9.52457 -20 3.50657
    endloop
  endfacet
  facet normal 0 -1 -0
    outer loop
      vertex 9.52457 -20 3.50657
      vertex 5.70506 -20 3.45508
      vertex 9.77543 -20 3.50657
    endloop
  endfacet
  facet normal 0 -1 -0
    outer loop
      vertex 9.77543 -20 3.50657
      vertex 5.70506 -20 3.45508
      vertex 12.3246 -20 3.50657
    endloop
  endfacet
  facet normal 0 -1 -0
    outer loop
      vertex 12.3246 -20 3.50657
      vertex 5.70506 -20 3.45508
      vertex 12.5754 -20 3.50657
    endloop
  endfacet
  facet normal 0 -1 0
    outer loop
      vertex 16.5938 -20 3.45508
      vertex 12.5754 -20 3.50657
      vertex 5.70506 -20 3.45508
    endloop
  endfacet
  facet normal 0 -1 0
    outer loop
      vertex 12.5754 -20 3.50657
      vertex 16.5938 -20 3.45508
      vertex 15.1246 -20 3.50657
    endloop
  endfacet
  facet normal 0 -1 -0
    outer loop
      vertex 6.47918 -20 3.55873
      vertex 5.70506 -20 3.45508
      vertex 6.72457 -20 3.50657
    endloop
  endfacet
  facet normal 0 -1 -0
    outer loop
      vertex 6.25 -20 3.66077
      vertex 5.70506 -20 3.45508
      vertex 6.47918 -20 3.55873
    endloop
  endfacet
  facet normal 0 -1 -0
    outer loop
      vertex 6.04704 -20 3.80823
      vertex 5.70506 -20 3.45508
      vertex 6.25 -20 3.66077
    endloop
  endfacet
  facet normal 0 -1 -0
    outer loop
      vertex 5.87918 -20 3.99466
      vertex 5.70506 -20 3.45508
      vertex 6.04704 -20 3.80823
    endloop
  endfacet
  facet normal 0 -1 -0
    outer loop
      vertex 5.75374 -20 4.21192
      vertex 5.70506 -20 3.45508
      vertex 5.87918 -20 3.99466
    endloop
  endfacet
  facet normal 0 -1 0
    outer loop
      vertex 5.70506 -20 3.45508
      vertex 5.75374 -20 4.21192
      vertex 5.70506 -20 4.36174
    endloop
  endfacet
  facet normal 0 -1 0
    outer loop
      vertex 12.8208 -20 5.84127
      vertex 15.1246 -20 5.89343
      vertex 12.5754 -20 5.89343
    endloop
  endfacet
  facet normal 0 -1 0
    outer loop
      vertex 12.8208 -20 5.84127
      vertex 14.8792 -20 5.84127
      vertex 15.1246 -20 5.89343
    endloop
  endfacet
  facet normal 0 -1 0
    outer loop
      vertex 13.05 -20 5.73923
      vertex 14.8792 -20 5.84127
      vertex 12.8208 -20 5.84127
    endloop
  endfacet
  facet normal 0 -1 0
    outer loop
      vertex 13.05 -20 5.73923
      vertex 14.65 -20 5.73923
      vertex 14.8792 -20 5.84127
    endloop
  endfacet
  facet normal 0 -1 0
    outer loop
      vertex 13.253 -20 5.59177
      vertex 14.65 -20 5.73923
      vertex 13.05 -20 5.73923
    endloop
  endfacet
  facet normal 0 -1 0
    outer loop
      vertex 13.253 -20 5.59177
      vertex 14.447 -20 5.59177
      vertex 14.65 -20 5.73923
    endloop
  endfacet
  facet normal 0 -1 0
    outer loop
      vertex 13.4208 -20 5.40534
      vertex 14.447 -20 5.59177
      vertex 13.253 -20 5.59177
    endloop
  endfacet
  facet normal 0 -1 0
    outer loop
      vertex 13.4208 -20 5.40534
      vertex 14.2792 -20 5.40534
      vertex 14.447 -20 5.59177
    endloop
  endfacet
  facet normal 0 -1 0
    outer loop
      vertex 13.5463 -20 5.18808
      vertex 14.2792 -20 5.40534
      vertex 13.4208 -20 5.40534
    endloop
  endfacet
  facet normal 0 -1 0
    outer loop
      vertex 13.5463 -20 5.18808
      vertex 14.1537 -20 5.18808
      vertex 14.2792 -20 5.40534
    endloop
  endfacet
  facet normal 0 -1 0
    outer loop
      vertex 13.6238 -20 4.94949
      vertex 14.1537 -20 5.18808
      vertex 13.5463 -20 5.18808
    endloop
  endfacet
  facet normal 0 -1 0
    outer loop
      vertex 13.6238 -20 4.94949
      vertex 14.0762 -20 4.94949
      vertex 14.1537 -20 5.18808
    endloop
  endfacet
  facet normal 0 -1 0
    outer loop
      vertex 13.65 -20 4.7
      vertex 14.0762 -20 4.94949
      vertex 13.6238 -20 4.94949
    endloop
  endfacet
  facet normal 0 -1 0
    outer loop
      vertex 13.65 -20 4.7
      vertex 14.05 -20 4.7
      vertex 14.0762 -20 4.94949
    endloop
  endfacet
  facet normal 0 -1 0
    outer loop
      vertex 13.6238 -20 4.45051
      vertex 14.05 -20 4.7
      vertex 13.65 -20 4.7
    endloop
  endfacet
  facet normal 0 -1 0
    outer loop
      vertex 13.6238 -20 4.45051
      vertex 14.0762 -20 4.45051
      vertex 14.05 -20 4.7
    endloop
  endfacet
  facet normal 0 -1 0
    outer loop
      vertex 13.5463 -20 4.21192
      vertex 14.0762 -20 4.45051
      vertex 13.6238 -20 4.45051
    endloop
  endfacet
  facet normal 0 -1 0
    outer loop
      vertex 13.5463 -20 4.21192
      vertex 14.1537 -20 4.21192
      vertex 14.0762 -20 4.45051
    endloop
  endfacet
  facet normal 0 -1 0
    outer loop
      vertex 13.4208 -20 3.99466
      vertex 14.1537 -20 4.21192
      vertex 13.5463 -20 4.21192
    endloop
  endfacet
  facet normal 0 -1 0
    outer loop
      vertex 13.4208 -20 3.99466
      vertex 14.2792 -20 3.99466
      vertex 14.1537 -20 4.21192
    endloop
  endfacet
  facet normal 0 -1 0
    outer loop
      vertex 13.253 -20 3.80823
      vertex 14.2792 -20 3.99466
      vertex 13.4208 -20 3.99466
    endloop
  endfacet
  facet normal 0 -1 0
    outer loop
      vertex 13.253 -20 3.80823
      vertex 14.447 -20 3.80823
      vertex 14.2792 -20 3.99466
    endloop
  endfacet
  facet normal 0 -1 0
    outer loop
      vertex 13.05 -20 3.66077
      vertex 14.447 -20 3.80823
      vertex 13.253 -20 3.80823
    endloop
  endfacet
  facet normal 0 -1 0
    outer loop
      vertex 13.05 -20 3.66077
      vertex 14.65 -20 3.66077
      vertex 14.447 -20 3.80823
    endloop
  endfacet
  facet normal 0 -1 0
    outer loop
      vertex 12.8208 -20 3.55873
      vertex 14.65 -20 3.66077
      vertex 13.05 -20 3.66077
    endloop
  endfacet
  facet normal 0 -1 0
    outer loop
      vertex 12.8208 -20 3.55873
      vertex 14.8792 -20 3.55873
      vertex 14.65 -20 3.66077
    endloop
  endfacet
  facet normal 0 -1 0
    outer loop
      vertex 12.5754 -20 3.50657
      vertex 14.8792 -20 3.55873
      vertex 12.8208 -20 3.55873
    endloop
  endfacet
  facet normal 0 -1 -0
    outer loop
      vertex 14.8792 -20 3.55873
      vertex 12.5754 -20 3.50657
      vertex 15.1246 -20 3.50657
    endloop
  endfacet
  facet normal 0 -1 0
    outer loop
      vertex 10.0208 -20 5.84127
      vertex 12.3246 -20 5.89343
      vertex 9.77543 -20 5.89343
    endloop
  endfacet
  facet normal 0 -1 0
    outer loop
      vertex 10.0208 -20 5.84127
      vertex 12.0792 -20 5.84127
      vertex 12.3246 -20 5.89343
    endloop
  endfacet
  facet normal 0 -1 0
    outer loop
      vertex 10.25 -20 5.73923
      vertex 12.0792 -20 5.84127
      vertex 10.0208 -20 5.84127
    endloop
  endfacet
  facet normal 0 -1 0
    outer loop
      vertex 10.25 -20 5.73923
      vertex 11.85 -20 5.73923
      vertex 12.0792 -20 5.84127
    endloop
  endfacet
  facet normal 0 -1 0
    outer loop
      vertex 10.453 -20 5.59177
      vertex 11.85 -20 5.73923
      vertex 10.25 -20 5.73923
    endloop
  endfacet
  facet normal 0 -1 0
    outer loop
      vertex 10.453 -20 5.59177
      vertex 11.647 -20 5.59177
      vertex 11.85 -20 5.73923
    endloop
  endfacet
  facet normal 0 -1 0
    outer loop
      vertex 10.6208 -20 5.40534
      vertex 11.647 -20 5.59177
      vertex 10.453 -20 5.59177
    endloop
  endfacet
  facet normal 0 -1 0
    outer loop
      vertex 10.6208 -20 5.40534
      vertex 11.4792 -20 5.40534
      vertex 11.647 -20 5.59177
    endloop
  endfacet
  facet normal 0 -1 0
    outer loop
      vertex 10.7463 -20 5.18808
      vertex 11.4792 -20 5.40534
      vertex 10.6208 -20 5.40534
    endloop
  endfacet
  facet normal 0 -1 0
    outer loop
      vertex 10.7463 -20 5.18808
      vertex 11.3537 -20 5.18808
      vertex 11.4792 -20 5.40534
    endloop
  endfacet
  facet normal 0 -1 0
    outer loop
      vertex 10.8238 -20 4.94949
      vertex 11.3537 -20 5.18808
      vertex 10.7463 -20 5.18808
    endloop
  endfacet
  facet normal 0 -1 0
    outer loop
      vertex 10.8238 -20 4.94949
      vertex 11.2762 -20 4.94949
      vertex 11.3537 -20 5.18808
    endloop
  endfacet
  facet normal 0 -1 0
    outer loop
      vertex 10.85 -20 4.7
      vertex 11.2762 -20 4.94949
      vertex 10.8238 -20 4.94949
    endloop
  endfacet
  facet normal 0 -1 0
    outer loop
      vertex 10.85 -20 4.7
      vertex 11.25 -20 4.7
      vertex 11.2762 -20 4.94949
    endloop
  endfacet
  facet normal 0 -1 0
    outer loop
      vertex 10.8238 -20 4.45051
      vertex 11.25 -20 4.7
      vertex 10.85 -20 4.7
    endloop
  endfacet
  facet normal 0 -1 0
    outer loop
      vertex 10.8238 -20 4.45051
      vertex 11.2762 -20 4.45051
      vertex 11.25 -20 4.7
    endloop
  endfacet
  facet normal 0 -1 0
    outer loop
      vertex 10.7463 -20 4.21192
      vertex 11.2762 -20 4.45051
      vertex 10.8238 -20 4.45051
    endloop
  endfacet
  facet normal 0 -1 0
    outer loop
      vertex 10.7463 -20 4.21192
      vertex 11.3537 -20 4.21192
      vertex 11.2762 -20 4.45051
    endloop
  endfacet
  facet normal 0 -1 0
    outer loop
      vertex 10.6208 -20 3.99466
      vertex 11.3537 -20 4.21192
      vertex 10.7463 -20 4.21192
    endloop
  endfacet
  facet normal 0 -1 0
    outer loop
      vertex 10.6208 -20 3.99466
      vertex 11.4792 -20 3.99466
      vertex 11.3537 -20 4.21192
    endloop
  endfacet
  facet normal 0 -1 0
    outer loop
      vertex 10.453 -20 3.80823
      vertex 11.4792 -20 3.99466
      vertex 10.6208 -20 3.99466
    endloop
  endfacet
  facet normal 0 -1 0
    outer loop
      vertex 10.453 -20 3.80823
      vertex 11.647 -20 3.80823
      vertex 11.4792 -20 3.99466
    endloop
  endfacet
  facet normal 0 -1 0
    outer loop
      vertex 10.25 -20 3.66077
      vertex 11.647 -20 3.80823
      vertex 10.453 -20 3.80823
    endloop
  endfacet
  facet normal 0 -1 0
    outer loop
      vertex 10.25 -20 3.66077
      vertex 11.85 -20 3.66077
      vertex 11.647 -20 3.80823
    endloop
  endfacet
  facet normal 0 -1 0
    outer loop
      vertex 10.0208 -20 3.55873
      vertex 11.85 -20 3.66077
      vertex 10.25 -20 3.66077
    endloop
  endfacet
  facet normal 0 -1 0
    outer loop
      vertex 10.0208 -20 3.55873
      vertex 12.0792 -20 3.55873
      vertex 11.85 -20 3.66077
    endloop
  endfacet
  facet normal 0 -1 0
    outer loop
      vertex 9.77543 -20 3.50657
      vertex 12.0792 -20 3.55873
      vertex 10.0208 -20 3.55873
    endloop
  endfacet
  facet normal 0 -1 -0
    outer loop
      vertex 12.0792 -20 3.55873
      vertex 9.77543 -20 3.50657
      vertex 12.3246 -20 3.50657
    endloop
  endfacet
  facet normal 0 -1 0
    outer loop
      vertex 7.22082 -20 5.84127
      vertex 9.52457 -20 5.89343
      vertex 6.97543 -20 5.89343
    endloop
  endfacet
  facet normal 0 -1 0
    outer loop
      vertex 7.22082 -20 5.84127
      vertex 9.27918 -20 5.84127
      vertex 9.52457 -20 5.89343
    endloop
  endfacet
  facet normal 0 -1 0
    outer loop
      vertex 7.45 -20 5.73923
      vertex 9.27918 -20 5.84127
      vertex 7.22082 -20 5.84127
    endloop
  endfacet
  facet normal 0 -1 0
    outer loop
      vertex 7.45 -20 5.73923
      vertex 9.05 -20 5.73923
      vertex 9.27918 -20 5.84127
    endloop
  endfacet
  facet normal 0 -1 0
    outer loop
      vertex 7.65296 -20 5.59177
      vertex 9.05 -20 5.73923
      vertex 7.45 -20 5.73923
    endloop
  endfacet
  facet normal 0 -1 0
    outer loop
      vertex 7.65296 -20 5.59177
      vertex 8.84704 -20 5.59177
      vertex 9.05 -20 5.73923
    endloop
  endfacet
  facet normal 0 -1 0
    outer loop
      vertex 7.82082 -20 5.40534
      vertex 8.84704 -20 5.59177
      vertex 7.65296 -20 5.59177
    endloop
  endfacet
  facet normal 0 -1 0
    outer loop
      vertex 7.82082 -20 5.40534
      vertex 8.67918 -20 5.40534
      vertex 8.84704 -20 5.59177
    endloop
  endfacet
  facet normal 0 -1 0
    outer loop
      vertex 7.94625 -20 5.18808
      vertex 8.67918 -20 5.40534
      vertex 7.82082 -20 5.40534
    endloop
  endfacet
  facet normal 0 -1 0
    outer loop
      vertex 7.94625 -20 5.18808
      vertex 8.55375 -20 5.18808
      vertex 8.67918 -20 5.40534
    endloop
  endfacet
  facet normal 0 -1 0
    outer loop
      vertex 8.02378 -20 4.94949
      vertex 8.55375 -20 5.18808
      vertex 7.94625 -20 5.18808
    endloop
  endfacet
  facet normal 0 -1 0
    outer loop
      vertex 8.02378 -20 4.94949
      vertex 8.47622 -20 4.94949
      vertex 8.55375 -20 5.18808
    endloop
  endfacet
  facet normal 0 -1 0
    outer loop
      vertex 8.05 -20 4.7
      vertex 8.47622 -20 4.94949
      vertex 8.02378 -20 4.94949
    endloop
  endfacet
  facet normal 0 -1 0
    outer loop
      vertex 8.05 -20 4.7
      vertex 8.45 -20 4.7
      vertex 8.47622 -20 4.94949
    endloop
  endfacet
  facet normal 0 -1 0
    outer loop
      vertex 8.02378 -20 4.45051
      vertex 8.45 -20 4.7
      vertex 8.05 -20 4.7
    endloop
  endfacet
  facet normal 0 -1 0
    outer loop
      vertex 8.02378 -20 4.45051
      vertex 8.47622 -20 4.45051
      vertex 8.45 -20 4.7
    endloop
  endfacet
  facet normal 0 -1 0
    outer loop
      vertex 7.94625 -20 4.21192
      vertex 8.47622 -20 4.45051
      vertex 8.02378 -20 4.45051
    endloop
  endfacet
  facet normal 0 -1 0
    outer loop
      vertex 7.94625 -20 4.21192
      vertex 8.55375 -20 4.21192
      vertex 8.47622 -20 4.45051
    endloop
  endfacet
  facet normal 0 -1 0
    outer loop
      vertex 7.82082 -20 3.99466
      vertex 8.55375 -20 4.21192
      vertex 7.94625 -20 4.21192
    endloop
  endfacet
  facet normal 0 -1 0
    outer loop
      vertex 7.82082 -20 3.99466
      vertex 8.67918 -20 3.99466
      vertex 8.55375 -20 4.21192
    endloop
  endfacet
  facet normal 0 -1 0
    outer loop
      vertex 7.65296 -20 3.80823
      vertex 8.67918 -20 3.99466
      vertex 7.82082 -20 3.99466
    endloop
  endfacet
  facet normal 0 -1 0
    outer loop
      vertex 7.65296 -20 3.80823
      vertex 8.84704 -20 3.80823
      vertex 8.67918 -20 3.99466
    endloop
  endfacet
  facet normal 0 -1 0
    outer loop
      vertex 7.45 -20 3.66077
      vertex 8.84704 -20 3.80823
      vertex 7.65296 -20 3.80823
    endloop
  endfacet
  facet normal 0 -1 0
    outer loop
      vertex 7.45 -20 3.66077
      vertex 9.05 -20 3.66077
      vertex 8.84704 -20 3.80823
    endloop
  endfacet
  facet normal 0 -1 0
    outer loop
      vertex 7.22082 -20 3.55873
      vertex 9.05 -20 3.66077
      vertex 7.45 -20 3.66077
    endloop
  endfacet
  facet normal 0 -1 0
    outer loop
      vertex 7.22082 -20 3.55873
      vertex 9.27918 -20 3.55873
      vertex 9.05 -20 3.66077
    endloop
  endfacet
  facet normal 0 -1 0
    outer loop
      vertex 6.97543 -20 3.50657
      vertex 9.27918 -20 3.55873
      vertex 7.22082 -20 3.55873
    endloop
  endfacet
  facet normal 0 -1 -0
    outer loop
      vertex 9.27918 -20 3.55873
      vertex 6.97543 -20 3.50657
      vertex 9.52457 -20 3.50657
    endloop
  endfacet
  facet normal 0 -1 0
    outer loop
      vertex 6.97543 -20 5.89343
      vertex 5.70506 -20 6.04491
      vertex 6.72457 -20 5.89343
    endloop
  endfacet
  facet normal 0 -1 0
    outer loop
      vertex 5.70506 -20 6.04491
      vertex 6.47918 -20 5.84127
      vertex 6.72457 -20 5.89343
    endloop
  endfacet
  facet normal 0 -1 0
    outer loop
      vertex 5.70506 -20 6.04491
      vertex 6.25 -20 5.73923
      vertex 6.47918 -20 5.84127
    endloop
  endfacet
  facet normal 0 -1 0
    outer loop
      vertex 5.70506 -20 6.04491
      vertex 6.04704 -20 5.59177
      vertex 6.25 -20 5.73923
    endloop
  endfacet
  facet normal 0 -1 0
    outer loop
      vertex 5.70506 -20 6.04491
      vertex 5.87918 -20 5.40534
      vertex 6.04704 -20 5.59177
    endloop
  endfacet
  facet normal 0 -1 0
    outer loop
      vertex 5.70506 -20 6.04491
      vertex 5.75374 -20 5.18808
      vertex 5.87918 -20 5.40534
    endloop
  endfacet
  facet normal -0 -1 0
    outer loop
      vertex 5.75374 -20 5.18808
      vertex 5.70506 -20 6.04491
      vertex 5.70506 -20 5.03826
    endloop
  endfacet
  facet normal 0 -1 0
    outer loop
      vertex 9.52457 -20 5.89343
      vertex 5.70506 -20 6.04491
      vertex 6.97543 -20 5.89343
    endloop
  endfacet
  facet normal 0 -1 0
    outer loop
      vertex 9.77543 -20 5.89343
      vertex 5.70506 -20 6.04491
      vertex 9.52457 -20 5.89343
    endloop
  endfacet
  facet normal 0 -1 0
    outer loop
      vertex 5.70506 -20 6.04491
      vertex 9.77543 -20 5.89343
      vertex 16.5938 -20 6.04491
    endloop
  endfacet
  facet normal 0 -1 0
    outer loop
      vertex 12.3246 -20 5.89343
      vertex 16.5938 -20 6.04491
      vertex 9.77543 -20 5.89343
    endloop
  endfacet
  facet normal 0 -1 0
    outer loop
      vertex 12.5754 -20 5.89343
      vertex 16.5938 -20 6.04491
      vertex 12.3246 -20 5.89343
    endloop
  endfacet
  facet normal 0 -1 0
    outer loop
      vertex 15.1246 -20 5.89343
      vertex 16.5938 -20 6.04491
      vertex 12.5754 -20 5.89343
    endloop
  endfacet
  facet normal 0 -1 0
    outer loop
      vertex 15.3754 -20 5.89343
      vertex 16.5938 -20 6.04491
      vertex 15.1246 -20 5.89343
    endloop
  endfacet
  facet normal 0 -1 0
    outer loop
      vertex 15.6208 -20 5.84127
      vertex 16.5938 -20 6.04491
      vertex 15.3754 -20 5.89343
    endloop
  endfacet
  facet normal 0 -1 0
    outer loop
      vertex 15.85 -20 5.73923
      vertex 16.5938 -20 6.04491
      vertex 15.6208 -20 5.84127
    endloop
  endfacet
  facet normal 0 -1 0
    outer loop
      vertex 16.053 -20 5.59177
      vertex 16.5938 -20 6.04491
      vertex 15.85 -20 5.73923
    endloop
  endfacet
  facet normal 0 -1 0
    outer loop
      vertex 16.2208 -20 5.40534
      vertex 16.5938 -20 6.04491
      vertex 16.053 -20 5.59177
    endloop
  endfacet
  facet normal 0 -1 0
    outer loop
      vertex 16.3463 -20 5.18808
      vertex 16.5938 -20 6.04491
      vertex 16.2208 -20 5.40534
    endloop
  endfacet
  facet normal 0 -1 0
    outer loop
      vertex 16.4238 -20 4.94949
      vertex 16.5938 -20 6.04491
      vertex 16.3463 -20 5.18808
    endloop
  endfacet
  facet normal 0 -1 0
    outer loop
      vertex 16.45 -20 4.7
      vertex 16.5938 -20 6.04491
      vertex 16.4238 -20 4.94949
    endloop
  endfacet
  facet normal 0 -1 0
    outer loop
      vertex 16.5938 -20 3.45508
      vertex 16.45 -20 4.7
      vertex 16.4238 -20 4.45051
    endloop
  endfacet
  facet normal 0 -1 0
    outer loop
      vertex 16.45 -20 4.7
      vertex 16.5938 -20 3.45508
      vertex 16.5938 -20 6.04491
    endloop
  endfacet
  facet normal 0 -1 0
    outer loop
      vertex 16.3463 -20 4.21192
      vertex 16.5938 -20 3.45508
      vertex 16.4238 -20 4.45051
    endloop
  endfacet
  facet normal 0 -1 0
    outer loop
      vertex 16.2208 -20 3.99466
      vertex 16.5938 -20 3.45508
      vertex 16.3463 -20 4.21192
    endloop
  endfacet
  facet normal 0 -1 0
    outer loop
      vertex 16.053 -20 3.80823
      vertex 16.5938 -20 3.45508
      vertex 16.2208 -20 3.99466
    endloop
  endfacet
  facet normal 0 -1 0
    outer loop
      vertex 15.85 -20 3.66077
      vertex 16.5938 -20 3.45508
      vertex 16.053 -20 3.80823
    endloop
  endfacet
  facet normal 0 -1 0
    outer loop
      vertex 15.6208 -20 3.55873
      vertex 16.5938 -20 3.45508
      vertex 15.85 -20 3.66077
    endloop
  endfacet
  facet normal 0 -1 0
    outer loop
      vertex 15.3754 -20 3.50657
      vertex 16.5938 -20 3.45508
      vertex 15.6208 -20 3.55873
    endloop
  endfacet
  facet normal 0 -1 0
    outer loop
      vertex 15.1246 -20 3.50657
      vertex 16.5938 -20 3.45508
      vertex 15.3754 -20 3.50657
    endloop
  endfacet
  facet normal -0 0 1
    outer loop
      vertex 4.80469 -18 1.65625
      vertex 17.4941 -20 1.65625
      vertex 17.4941 -18 1.65625
    endloop
  endfacet
  facet normal 0 0 1
    outer loop
      vertex 17.4941 -20 1.65625
      vertex 4.80469 -18 1.65625
      vertex 4.80469 -20 1.65625
    endloop
  endfacet
  facet normal -0.706336 0 0.707877
    outer loop
      vertex 17.4941 -18 1.65625
      vertex 18.3945 -20 2.55469
      vertex 18.3945 -18 2.55469
    endloop
  endfacet
  facet normal -0.706336 0 0.707877
    outer loop
      vertex 18.3945 -20 2.55469
      vertex 17.4941 -18 1.65625
      vertex 17.4941 -20 1.65625
    endloop
  endfacet
  facet normal -1 0 0
    outer loop
      vertex 18.3945 -20 2.55469
      vertex 18.3945 -18 6.9453
      vertex 18.3945 -18 2.55469
    endloop
  endfacet
  facet normal -1 -0 0
    outer loop
      vertex 18.3945 -18 6.9453
      vertex 18.3945 -20 2.55469
      vertex 18.3945 -20 6.9453
    endloop
  endfacet
  facet normal -0.70634 0 -0.707873
    outer loop
      vertex 17.4941 -20 7.84375
      vertex 18.3945 -18 6.9453
      vertex 18.3945 -20 6.9453
    endloop
  endfacet
  facet normal -0.70634 0 -0.707873
    outer loop
      vertex 18.3945 -18 6.9453
      vertex 17.4941 -20 7.84375
      vertex 17.4941 -18 7.84375
    endloop
  endfacet
  facet normal 0 0 -1
    outer loop
      vertex 4.80469 -20 7.84375
      vertex 17.4941 -18 7.84375
      vertex 17.4941 -20 7.84375
    endloop
  endfacet
  facet normal -0 0 -1
    outer loop
      vertex 17.4941 -18 7.84375
      vertex 4.80469 -20 7.84375
      vertex 4.80469 -18 7.84375
    endloop
  endfacet
  facet normal 0.707111 0 -0.707103
    outer loop
      vertex 4.80469 -20 7.84375
      vertex 3.90625 -18 6.9453
      vertex 4.80469 -18 7.84375
    endloop
  endfacet
  facet normal 0.707111 0 -0.707103
    outer loop
      vertex 3.90625 -18 6.9453
      vertex 4.80469 -20 7.84375
      vertex 3.90625 -20 6.9453
    endloop
  endfacet
  facet normal 1 -0 0
    outer loop
      vertex 3.90625 -20 6.9453
      vertex 3.90625 -18 2.55469
      vertex 3.90625 -18 6.9453
    endloop
  endfacet
  facet normal 1 0 0
    outer loop
      vertex 3.90625 -18 2.55469
      vertex 3.90625 -20 6.9453
      vertex 3.90625 -20 2.55469
    endloop
  endfacet
  facet normal 0.707107 -0 0.707107
    outer loop
      vertex 3.90625 -20 2.55469
      vertex 4.80469 -18 1.65625
      vertex 3.90625 -18 2.55469
    endloop
  endfacet
  facet normal 0.707107 0 0.707107
    outer loop
      vertex 4.80469 -18 1.65625
      vertex 3.90625 -20 2.55469
      vertex 4.80469 -20 1.65625
    endloop
  endfacet
  facet normal -1 0 0
    outer loop
      vertex 5.70506 -20 5.03826
      vertex 5.70506 -18 6.04491
      vertex 5.70506 -18 5.03826
    endloop
  endfacet
  facet normal -1 -0 0
    outer loop
      vertex 5.70506 -18 6.04491
      vertex 5.70506 -20 5.03826
      vertex 5.70506 -20 6.04491
    endloop
  endfacet
  facet normal -1 0 0
    outer loop
      vertex 5.70506 -20 3.45508
      vertex 5.70506 -18 4.36174
      vertex 5.70506 -18 3.45508
    endloop
  endfacet
  facet normal -1 -0 0
    outer loop
      vertex 5.70506 -18 4.36174
      vertex 5.70506 -20 3.45508
      vertex 5.70506 -20 4.36174
    endloop
  endfacet
  facet normal -0 0 1
    outer loop
      vertex 5.70506 -18 6.04491
      vertex 16.5938 -20 6.04491
      vertex 16.5938 -18 6.04491
    endloop
  endfacet
  facet normal 0 0 1
    outer loop
      vertex 16.5938 -20 6.04491
      vertex 5.70506 -18 6.04491
      vertex 5.70506 -20 6.04491
    endloop
  endfacet
  facet normal 1 -0 0
    outer loop
      vertex 16.5938 -20 6.04491
      vertex 16.5938 -18 3.45508
      vertex 16.5938 -18 6.04491
    endloop
  endfacet
  facet normal 1 0 0
    outer loop
      vertex 16.5938 -18 3.45508
      vertex 16.5938 -20 6.04491
      vertex 16.5938 -20 3.45508
    endloop
  endfacet
  facet normal 0 0 -1
    outer loop
      vertex 5.70506 -20 3.45508
      vertex 16.5938 -18 3.45508
      vertex 16.5938 -20 3.45508
    endloop
  endfacet
  facet normal -0 0 -1
    outer loop
      vertex 16.5938 -18 3.45508
      vertex 5.70506 -20 3.45508
      vertex 5.70506 -18 3.45508
    endloop
  endfacet
  facet normal -1 0 0
    outer loop
      vertex 0 -20 0
      vertex 0 0 8
      vertex 0 0 0
    endloop
  endfacet
  facet normal -1 -0 0
    outer loop
      vertex 0 0 8
      vertex 0 -20 0
      vertex 0 -20 8
    endloop
  endfacet
  facet normal 1 -0 0
    outer loop
      vertex 22 -20 8
      vertex 22 0 0
      vertex 22 0 8
    endloop
  endfacet
  facet normal 1 0 0
    outer loop
      vertex 22 0 0
      vertex 22 -20 8
      vertex 22 -20 0
    endloop
  endfacet
  facet normal 0 1 0
    outer loop
      vertex 22 0 8
      vertex 18 0 6.2
      vertex 0 0 8
    endloop
  endfacet
  facet normal 0 1 -0
    outer loop
      vertex 22 0 0
      vertex 18 0 6.2
      vertex 22 0 8
    endloop
  endfacet
  facet normal 0 1 0
    outer loop
      vertex 18 0 0.5
      vertex 22 0 0
      vertex 4 0 0.5
    endloop
  endfacet
  facet normal 0 1 0
    outer loop
      vertex 18 0 6.2
      vertex 22 0 0
      vertex 18 0 0.5
    endloop
  endfacet
  facet normal 0 1 -0
    outer loop
      vertex 4 0 6.2
      vertex 0 0 8
      vertex 18 0 6.2
    endloop
  endfacet
  facet normal 0 1 0
    outer loop
      vertex 0 0 0
      vertex 4 0 6.2
      vertex 4 0 0.5
    endloop
  endfacet
  facet normal 0 1 0
    outer loop
      vertex 4 0 6.2
      vertex 0 0 0
      vertex 0 0 8
    endloop
  endfacet
  facet normal 0 1 0
    outer loop
      vertex 0 0 0
      vertex 4 0 0.5
      vertex 22 0 0
    endloop
  endfacet
  facet normal 0 0 -1
    outer loop
      vertex 0 -20 0
      vertex 22 0 0
      vertex 22 -20 0
    endloop
  endfacet
  facet normal -0 0 -1
    outer loop
      vertex 22 0 0
      vertex 0 -20 0
      vertex 0 0 0
    endloop
  endfacet
  facet normal -0 0 1
    outer loop
      vertex 0 0 8
      vertex 22 -20 8
      vertex 22 0 8
    endloop
  endfacet
  facet normal 0 0 1
    outer loop
      vertex 22 -20 8
      vertex 0 0 8
      vertex 0 -20 8
    endloop
  endfacet
endsolid OpenSCAD_Model
