solid OpenSCAD_Model
  facet normal -0.58777 0 -0.809028
    outer loop
      vertex 6.7 -20 5.27942
      vertex 6.85222 -13.2 5.16883
      vertex 6.85222 -20 5.16883
    endloop
  endfacet
  facet normal -0.58777 0 -0.809028
    outer loop
      vertex 6.85222 -13.2 5.16883
      vertex 6.7 -20 5.27942
      vertex 6.7 -13.2 5.27942
    endloop
  endfacet
  facet normal -0.207917 0 -0.978146
    outer loop
      vertex 6.34408 -20 5.39507
      vertex 6.52812 -13.2 5.35595
      vertex 6.52812 -20 5.35595
    endloop
  endfacet
  facet normal -0.207917 0 -0.978146
    outer loop
      vertex 6.52812 -13.2 5.35595
      vertex 6.34408 -20 5.39507
      vertex 6.34408 -13.2 5.39507
    endloop
  endfacet
  facet normal 0 0 -1
    outer loop
      vertex 6.15592 -20 5.39507
      vertex 6.34408 -13.2 5.39507
      vertex 6.34408 -20 5.39507
    endloop
  endfacet
  facet normal -0 0 -1
    outer loop
      vertex 6.34408 -13.2 5.39507
      vertex 6.15592 -20 5.39507
      vertex 6.15592 -13.2 5.39507
    endloop
  endfacet
  facet normal -0.406755 0 -0.913537
    outer loop
      vertex 6.52812 -20 5.35595
      vertex 6.7 -13.2 5.27942
      vertex 6.7 -20 5.27942
    endloop
  endfacet
  facet normal -0.406755 0 -0.913537
    outer loop
      vertex 6.7 -13.2 5.27942
      vertex 6.52812 -20 5.35595
      vertex 6.52812 -13.2 5.35595
    endloop
  endfacet
  facet normal -0.58777 0 0.809028
    outer loop
      vertex 6.7 -13.2 3.72058
      vertex 6.85222 -20 3.83117
      vertex 6.85222 -13.2 3.83117
    endloop
  endfacet
  facet normal -0.58777 0 0.809028
    outer loop
      vertex 6.85222 -20 3.83117
      vertex 6.7 -13.2 3.72058
      vertex 6.7 -20 3.72058
    endloop
  endfacet
  facet normal -0.866047 0 -0.499963
    outer loop
      vertex 7.07219 -20 4.86606
      vertex 6.97812 -13.2 5.02901
      vertex 7.07219 -13.2 4.86606
    endloop
  endfacet
  facet normal -0.866047 -0 -0.499963
    outer loop
      vertex 6.97812 -13.2 5.02901
      vertex 7.07219 -20 4.86606
      vertex 6.97812 -20 5.02901
    endloop
  endfacet
  facet normal -0.99452 0 -0.104544
    outer loop
      vertex 7.15 -20 4.5
      vertex 7.13033 -13.2 4.68712
      vertex 7.15 -13.2 4.5
    endloop
  endfacet
  facet normal -0.99452 -0 -0.104544
    outer loop
      vertex 7.13033 -13.2 4.68712
      vertex 7.15 -20 4.5
      vertex 7.13033 -20 4.68712
    endloop
  endfacet
  facet normal 0.406755 0 -0.913537
    outer loop
      vertex 5.8 -20 5.27942
      vertex 5.97188 -13.2 5.35595
      vertex 5.97188 -20 5.35595
    endloop
  endfacet
  facet normal 0.406755 0 -0.913537
    outer loop
      vertex 5.97188 -13.2 5.35595
      vertex 5.8 -20 5.27942
      vertex 5.8 -13.2 5.27942
    endloop
  endfacet
  facet normal 0.99452 0 -0.104544
    outer loop
      vertex 5.36967 -20 4.68712
      vertex 5.35 -13.2 4.5
      vertex 5.36967 -13.2 4.68712
    endloop
  endfacet
  facet normal 0.99452 0 -0.104544
    outer loop
      vertex 5.35 -13.2 4.5
      vertex 5.36967 -20 4.68712
      vertex 5.35 -20 4.5
    endloop
  endfacet
  facet normal -0.951058 0 -0.309012
    outer loop
      vertex 7.13033 -20 4.68712
      vertex 7.07219 -13.2 4.86606
      vertex 7.13033 -13.2 4.68712
    endloop
  endfacet
  facet normal -0.951058 -0 -0.309012
    outer loop
      vertex 7.07219 -13.2 4.86606
      vertex 7.13033 -20 4.68712
      vertex 7.07219 -20 4.86606
    endloop
  endfacet
  facet normal -0.99452 0 0.104544
    outer loop
      vertex 7.13033 -20 4.31288
      vertex 7.15 -13.2 4.5
      vertex 7.13033 -13.2 4.31288
    endloop
  endfacet
  facet normal -0.99452 0 0.104544
    outer loop
      vertex 7.15 -13.2 4.5
      vertex 7.13033 -20 4.31288
      vertex 7.15 -20 4.5
    endloop
  endfacet
  facet normal 0 1 -0
    outer loop
      vertex 8.67188 -13.2 5.35595
      vertex 6.34408 -13.2 5.39507
      vertex 8.85592 -13.2 5.39507
    endloop
  endfacet
  facet normal 0 1 0
    outer loop
      vertex 8.67188 -13.2 5.35595
      vertex 6.52812 -13.2 5.35595
      vertex 6.34408 -13.2 5.39507
    endloop
  endfacet
  facet normal 0 1 -0
    outer loop
      vertex 8.5 -13.2 5.27942
      vertex 6.52812 -13.2 5.35595
      vertex 8.67188 -13.2 5.35595
    endloop
  endfacet
  facet normal 0 1 0
    outer loop
      vertex 8.5 -13.2 5.27942
      vertex 6.7 -13.2 5.27942
      vertex 6.52812 -13.2 5.35595
    endloop
  endfacet
  facet normal 0 1 -0
    outer loop
      vertex 8.34778 -13.2 5.16883
      vertex 6.7 -13.2 5.27942
      vertex 8.5 -13.2 5.27942
    endloop
  endfacet
  facet normal 0 1 0
    outer loop
      vertex 8.34778 -13.2 5.16883
      vertex 6.85222 -13.2 5.16883
      vertex 6.7 -13.2 5.27942
    endloop
  endfacet
  facet normal 0 1 -0
    outer loop
      vertex 8.22188 -13.2 5.02901
      vertex 6.85222 -13.2 5.16883
      vertex 8.34778 -13.2 5.16883
    endloop
  endfacet
  facet normal 0 1 0
    outer loop
      vertex 8.22188 -13.2 5.02901
      vertex 6.97812 -13.2 5.02901
      vertex 6.85222 -13.2 5.16883
    endloop
  endfacet
  facet normal 0 1 -0
    outer loop
      vertex 8.12781 -13.2 4.86606
      vertex 6.97812 -13.2 5.02901
      vertex 8.22188 -13.2 5.02901
    endloop
  endfacet
  facet normal 0 1 0
    outer loop
      vertex 8.12781 -13.2 4.86606
      vertex 7.07219 -13.2 4.86606
      vertex 6.97812 -13.2 5.02901
    endloop
  endfacet
  facet normal 0 1 -0
    outer loop
      vertex 8.06967 -13.2 4.68712
      vertex 7.07219 -13.2 4.86606
      vertex 8.12781 -13.2 4.86606
    endloop
  endfacet
  facet normal 0 1 0
    outer loop
      vertex 8.06967 -13.2 4.68712
      vertex 7.13033 -13.2 4.68712
      vertex 7.07219 -13.2 4.86606
    endloop
  endfacet
  facet normal 0 1 -0
    outer loop
      vertex 8.05 -13.2 4.5
      vertex 7.13033 -13.2 4.68712
      vertex 8.06967 -13.2 4.68712
    endloop
  endfacet
  facet normal 0 1 0
    outer loop
      vertex 8.05 -13.2 4.5
      vertex 7.15 -13.2 4.5
      vertex 7.13033 -13.2 4.68712
    endloop
  endfacet
  facet normal 0 1 0
    outer loop
      vertex 8.06967 -13.2 4.31288
      vertex 7.15 -13.2 4.5
      vertex 8.05 -13.2 4.5
    endloop
  endfacet
  facet normal 0 1 0
    outer loop
      vertex 8.06967 -13.2 4.31288
      vertex 7.13033 -13.2 4.31288
      vertex 7.15 -13.2 4.5
    endloop
  endfacet
  facet normal 0 1 0
    outer loop
      vertex 8.12781 -13.2 4.13394
      vertex 7.13033 -13.2 4.31288
      vertex 8.06967 -13.2 4.31288
    endloop
  endfacet
  facet normal 0 1 0
    outer loop
      vertex 8.12781 -13.2 4.13394
      vertex 7.07219 -13.2 4.13394
      vertex 7.13033 -13.2 4.31288
    endloop
  endfacet
  facet normal 0 1 0
    outer loop
      vertex 8.22188 -13.2 3.97099
      vertex 7.07219 -13.2 4.13394
      vertex 8.12781 -13.2 4.13394
    endloop
  endfacet
  facet normal 0 1 0
    outer loop
      vertex 8.22188 -13.2 3.97099
      vertex 6.97812 -13.2 3.97099
      vertex 7.07219 -13.2 4.13394
    endloop
  endfacet
  facet normal 0 1 0
    outer loop
      vertex 8.34778 -13.2 3.83117
      vertex 6.97812 -13.2 3.97099
      vertex 8.22188 -13.2 3.97099
    endloop
  endfacet
  facet normal 0 1 0
    outer loop
      vertex 8.34778 -13.2 3.83117
      vertex 6.85222 -13.2 3.83117
      vertex 6.97812 -13.2 3.97099
    endloop
  endfacet
  facet normal 0 1 0
    outer loop
      vertex 8.5 -13.2 3.72058
      vertex 6.85222 -13.2 3.83117
      vertex 8.34778 -13.2 3.83117
    endloop
  endfacet
  facet normal 0 1 0
    outer loop
      vertex 8.5 -13.2 3.72058
      vertex 6.7 -13.2 3.72058
      vertex 6.85222 -13.2 3.83117
    endloop
  endfacet
  facet normal 0 1 0
    outer loop
      vertex 8.67188 -13.2 3.64405
      vertex 6.7 -13.2 3.72058
      vertex 8.5 -13.2 3.72058
    endloop
  endfacet
  facet normal 0 1 0
    outer loop
      vertex 8.67188 -13.2 3.64405
      vertex 6.52812 -13.2 3.64405
      vertex 6.7 -13.2 3.72058
    endloop
  endfacet
  facet normal 0 1 0
    outer loop
      vertex 4 -13.2 0
      vertex 8.67188 -13.2 3.64405
      vertex 8.85592 -13.2 3.60493
    endloop
  endfacet
  facet normal 0 1 0
    outer loop
      vertex 8.67188 -13.2 3.64405
      vertex 4 -13.2 0
      vertex 6.52812 -13.2 3.64405
    endloop
  endfacet
  facet normal 0 1 -0
    outer loop
      vertex 11.3719 -13.2 5.35595
      vertex 9.04408 -13.2 5.39507
      vertex 11.5559 -13.2 5.39507
    endloop
  endfacet
  facet normal 0 1 0
    outer loop
      vertex 11.3719 -13.2 5.35595
      vertex 9.22812 -13.2 5.35595
      vertex 9.04408 -13.2 5.39507
    endloop
  endfacet
  facet normal 0 1 -0
    outer loop
      vertex 11.2 -13.2 5.27942
      vertex 9.22812 -13.2 5.35595
      vertex 11.3719 -13.2 5.35595
    endloop
  endfacet
  facet normal 0 1 0
    outer loop
      vertex 11.2 -13.2 5.27942
      vertex 9.4 -13.2 5.27942
      vertex 9.22812 -13.2 5.35595
    endloop
  endfacet
  facet normal 0 1 -0
    outer loop
      vertex 11.0478 -13.2 5.16883
      vertex 9.4 -13.2 5.27942
      vertex 11.2 -13.2 5.27942
    endloop
  endfacet
  facet normal 0 1 0
    outer loop
      vertex 11.0478 -13.2 5.16883
      vertex 9.55222 -13.2 5.16883
      vertex 9.4 -13.2 5.27942
    endloop
  endfacet
  facet normal 0 1 -0
    outer loop
      vertex 10.9219 -13.2 5.02901
      vertex 9.55222 -13.2 5.16883
      vertex 11.0478 -13.2 5.16883
    endloop
  endfacet
  facet normal 0 1 0
    outer loop
      vertex 10.9219 -13.2 5.02901
      vertex 9.67811 -13.2 5.02901
      vertex 9.55222 -13.2 5.16883
    endloop
  endfacet
  facet normal 0 1 -0
    outer loop
      vertex 10.8278 -13.2 4.86606
      vertex 9.67811 -13.2 5.02901
      vertex 10.9219 -13.2 5.02901
    endloop
  endfacet
  facet normal 0 1 0
    outer loop
      vertex 10.8278 -13.2 4.86606
      vertex 9.77219 -13.2 4.86606
      vertex 9.67811 -13.2 5.02901
    endloop
  endfacet
  facet normal 0 1 -0
    outer loop
      vertex 10.7697 -13.2 4.68712
      vertex 9.77219 -13.2 4.86606
      vertex 10.8278 -13.2 4.86606
    endloop
  endfacet
  facet normal 0 1 0
    outer loop
      vertex 10.7697 -13.2 4.68712
      vertex 9.83033 -13.2 4.68712
      vertex 9.77219 -13.2 4.86606
    endloop
  endfacet
  facet normal 0 1 -0
    outer loop
      vertex 10.75 -13.2 4.5
      vertex 9.83033 -13.2 4.68712
      vertex 10.7697 -13.2 4.68712
    endloop
  endfacet
  facet normal 0 1 0
    outer loop
      vertex 10.75 -13.2 4.5
      vertex 9.85 -13.2 4.5
      vertex 9.83033 -13.2 4.68712
    endloop
  endfacet
  facet normal 0 1 0
    outer loop
      vertex 10.7697 -13.2 4.31288
      vertex 9.85 -13.2 4.5
      vertex 10.75 -13.2 4.5
    endloop
  endfacet
  facet normal 0 1 0
    outer loop
      vertex 10.7697 -13.2 4.31288
      vertex 9.83033 -13.2 4.31288
      vertex 9.85 -13.2 4.5
    endloop
  endfacet
  facet normal 0 1 0
    outer loop
      vertex 10.8278 -13.2 4.13394
      vertex 9.83033 -13.2 4.31288
      vertex 10.7697 -13.2 4.31288
    endloop
  endfacet
  facet normal 0 1 0
    outer loop
      vertex 10.8278 -13.2 4.13394
      vertex 9.77219 -13.2 4.13394
      vertex 9.83033 -13.2 4.31288
    endloop
  endfacet
  facet normal 0 1 0
    outer loop
      vertex 10.9219 -13.2 3.97099
      vertex 9.77219 -13.2 4.13394
      vertex 10.8278 -13.2 4.13394
    endloop
  endfacet
  facet normal 0 1 0
    outer loop
      vertex 10.9219 -13.2 3.97099
      vertex 9.67811 -13.2 3.97099
      vertex 9.77219 -13.2 4.13394
    endloop
  endfacet
  facet normal 0 1 0
    outer loop
      vertex 11.0478 -13.2 3.83117
      vertex 9.67811 -13.2 3.97099
      vertex 10.9219 -13.2 3.97099
    endloop
  endfacet
  facet normal 0 1 0
    outer loop
      vertex 11.0478 -13.2 3.83117
      vertex 9.55222 -13.2 3.83117
      vertex 9.67811 -13.2 3.97099
    endloop
  endfacet
  facet normal 0 1 0
    outer loop
      vertex 11.2 -13.2 3.72058
      vertex 9.55222 -13.2 3.83117
      vertex 11.0478 -13.2 3.83117
    endloop
  endfacet
  facet normal 0 1 0
    outer loop
      vertex 11.2 -13.2 3.72058
      vertex 9.4 -13.2 3.72058
      vertex 9.55222 -13.2 3.83117
    endloop
  endfacet
  facet normal 0 1 0
    outer loop
      vertex 11.3719 -13.2 3.64405
      vertex 9.4 -13.2 3.72058
      vertex 11.2 -13.2 3.72058
    endloop
  endfacet
  facet normal 0 1 0
    outer loop
      vertex 11.3719 -13.2 3.64405
      vertex 9.22812 -13.2 3.64405
      vertex 9.4 -13.2 3.72058
    endloop
  endfacet
  facet normal 0 1 0
    outer loop
      vertex 11.5559 -13.2 3.60493
      vertex 9.22812 -13.2 3.64405
      vertex 11.3719 -13.2 3.64405
    endloop
  endfacet
  facet normal 0 1 0
    outer loop
      vertex 9.22812 -13.2 3.64405
      vertex 11.5559 -13.2 3.60493
      vertex 9.04408 -13.2 3.60493
    endloop
  endfacet
  facet normal 0 1 -0
    outer loop
      vertex 14.0719 -13.2 5.35595
      vertex 11.7441 -13.2 5.39507
      vertex 14.2559 -13.2 5.39507
    endloop
  endfacet
  facet normal 0 1 0
    outer loop
      vertex 14.0719 -13.2 5.35595
      vertex 11.9281 -13.2 5.35595
      vertex 11.7441 -13.2 5.39507
    endloop
  endfacet
  facet normal 0 1 -0
    outer loop
      vertex 13.9 -13.2 5.27942
      vertex 11.9281 -13.2 5.35595
      vertex 14.0719 -13.2 5.35595
    endloop
  endfacet
  facet normal 0 1 0
    outer loop
      vertex 13.9 -13.2 5.27942
      vertex 12.1 -13.2 5.27942
      vertex 11.9281 -13.2 5.35595
    endloop
  endfacet
  facet normal 0 1 -0
    outer loop
      vertex 13.7478 -13.2 5.16883
      vertex 12.1 -13.2 5.27942
      vertex 13.9 -13.2 5.27942
    endloop
  endfacet
  facet normal 0 1 0
    outer loop
      vertex 13.7478 -13.2 5.16883
      vertex 12.2522 -13.2 5.16883
      vertex 12.1 -13.2 5.27942
    endloop
  endfacet
  facet normal 0 1 -0
    outer loop
      vertex 13.6219 -13.2 5.02901
      vertex 12.2522 -13.2 5.16883
      vertex 13.7478 -13.2 5.16883
    endloop
  endfacet
  facet normal 0 1 0
    outer loop
      vertex 13.6219 -13.2 5.02901
      vertex 12.3781 -13.2 5.02901
      vertex 12.2522 -13.2 5.16883
    endloop
  endfacet
  facet normal 0 1 -0
    outer loop
      vertex 13.5278 -13.2 4.86606
      vertex 12.3781 -13.2 5.02901
      vertex 13.6219 -13.2 5.02901
    endloop
  endfacet
  facet normal 0 1 0
    outer loop
      vertex 13.5278 -13.2 4.86606
      vertex 12.4722 -13.2 4.86606
      vertex 12.3781 -13.2 5.02901
    endloop
  endfacet
  facet normal 0 1 -0
    outer loop
      vertex 13.4697 -13.2 4.68712
      vertex 12.4722 -13.2 4.86606
      vertex 13.5278 -13.2 4.86606
    endloop
  endfacet
  facet normal 0 1 0
    outer loop
      vertex 13.4697 -13.2 4.68712
      vertex 12.5303 -13.2 4.68712
      vertex 12.4722 -13.2 4.86606
    endloop
  endfacet
  facet normal 0 1 -0
    outer loop
      vertex 13.45 -13.2 4.5
      vertex 12.5303 -13.2 4.68712
      vertex 13.4697 -13.2 4.68712
    endloop
  endfacet
  facet normal 0 1 0
    outer loop
      vertex 13.45 -13.2 4.5
      vertex 12.55 -13.2 4.5
      vertex 12.5303 -13.2 4.68712
    endloop
  endfacet
  facet normal 0 1 0
    outer loop
      vertex 13.4697 -13.2 4.31288
      vertex 12.55 -13.2 4.5
      vertex 13.45 -13.2 4.5
    endloop
  endfacet
  facet normal 0 1 0
    outer loop
      vertex 13.4697 -13.2 4.31288
      vertex 12.5303 -13.2 4.31288
      vertex 12.55 -13.2 4.5
    endloop
  endfacet
  facet normal 0 1 0
    outer loop
      vertex 13.5278 -13.2 4.13394
      vertex 12.5303 -13.2 4.31288
      vertex 13.4697 -13.2 4.31288
    endloop
  endfacet
  facet normal 0 1 0
    outer loop
      vertex 13.5278 -13.2 4.13394
      vertex 12.4722 -13.2 4.13394
      vertex 12.5303 -13.2 4.31288
    endloop
  endfacet
  facet normal 0 1 0
    outer loop
      vertex 13.6219 -13.2 3.97099
      vertex 12.4722 -13.2 4.13394
      vertex 13.5278 -13.2 4.13394
    endloop
  endfacet
  facet normal 0 1 0
    outer loop
      vertex 13.6219 -13.2 3.97099
      vertex 12.3781 -13.2 3.97099
      vertex 12.4722 -13.2 4.13394
    endloop
  endfacet
  facet normal 0 1 0
    outer loop
      vertex 13.7478 -13.2 3.83117
      vertex 12.3781 -13.2 3.97099
      vertex 13.6219 -13.2 3.97099
    endloop
  endfacet
  facet normal 0 1 0
    outer loop
      vertex 13.7478 -13.2 3.83117
      vertex 12.2522 -13.2 3.83117
      vertex 12.3781 -13.2 3.97099
    endloop
  endfacet
  facet normal 0 1 0
    outer loop
      vertex 13.9 -13.2 3.72058
      vertex 12.2522 -13.2 3.83117
      vertex 13.7478 -13.2 3.83117
    endloop
  endfacet
  facet normal 0 1 0
    outer loop
      vertex 13.9 -13.2 3.72058
      vertex 12.1 -13.2 3.72058
      vertex 12.2522 -13.2 3.83117
    endloop
  endfacet
  facet normal 0 1 0
    outer loop
      vertex 14.0719 -13.2 3.64405
      vertex 12.1 -13.2 3.72058
      vertex 13.9 -13.2 3.72058
    endloop
  endfacet
  facet normal 0 1 0
    outer loop
      vertex 14.0719 -13.2 3.64405
      vertex 11.9281 -13.2 3.64405
      vertex 12.1 -13.2 3.72058
    endloop
  endfacet
  facet normal 0 1 0
    outer loop
      vertex 18 -13.2 0
      vertex 14.0719 -13.2 3.64405
      vertex 14.2559 -13.2 3.60493
    endloop
  endfacet
  facet normal 0 1 0
    outer loop
      vertex 14.0719 -13.2 3.64405
      vertex 18 -13.2 0
      vertex 11.9281 -13.2 3.64405
    endloop
  endfacet
  facet normal 0 1 0
    outer loop
      vertex 14.2559 -13.2 5.39507
      vertex 18 -13.2 5.7
      vertex 14.4441 -13.2 5.39507
    endloop
  endfacet
  facet normal 0 1 0
    outer loop
      vertex 18 -13.2 5.7
      vertex 14.6281 -13.2 5.35595
      vertex 14.4441 -13.2 5.39507
    endloop
  endfacet
  facet normal 0 1 0
    outer loop
      vertex 18 -13.2 5.7
      vertex 14.8 -13.2 5.27942
      vertex 14.6281 -13.2 5.35595
    endloop
  endfacet
  facet normal 0 1 0
    outer loop
      vertex 18 -13.2 5.7
      vertex 14.9522 -13.2 5.16883
      vertex 14.8 -13.2 5.27942
    endloop
  endfacet
  facet normal 0 1 0
    outer loop
      vertex 18 -13.2 5.7
      vertex 15.0781 -13.2 5.02901
      vertex 14.9522 -13.2 5.16883
    endloop
  endfacet
  facet normal 0 1 0
    outer loop
      vertex 18 -13.2 5.7
      vertex 15.1722 -13.2 4.86606
      vertex 15.0781 -13.2 5.02901
    endloop
  endfacet
  facet normal 0 1 0
    outer loop
      vertex 18 -13.2 5.7
      vertex 15.2303 -13.2 4.68712
      vertex 15.1722 -13.2 4.86606
    endloop
  endfacet
  facet normal 0 1 0
    outer loop
      vertex 18 -13.2 5.7
      vertex 15.25 -13.2 4.5
      vertex 15.2303 -13.2 4.68712
    endloop
  endfacet
  facet normal 0 1 0
    outer loop
      vertex 18 -13.2 5.7
      vertex 15.2303 -13.2 4.31288
      vertex 15.25 -13.2 4.5
    endloop
  endfacet
  facet normal 0 1 0
    outer loop
      vertex 18 -13.2 5.7
      vertex 15.1722 -13.2 4.13394
      vertex 15.2303 -13.2 4.31288
    endloop
  endfacet
  facet normal 0 1 -0
    outer loop
      vertex 18 -13.2 0
      vertex 15.1722 -13.2 4.13394
      vertex 18 -13.2 5.7
    endloop
  endfacet
  facet normal 0 1 0
    outer loop
      vertex 15.1722 -13.2 4.13394
      vertex 18 -13.2 0
      vertex 15.0781 -13.2 3.97099
    endloop
  endfacet
  facet normal 0 1 0
    outer loop
      vertex 15.0781 -13.2 3.97099
      vertex 18 -13.2 0
      vertex 14.9522 -13.2 3.83117
    endloop
  endfacet
  facet normal 0 1 0
    outer loop
      vertex 18 -13.2 0
      vertex 14.2559 -13.2 3.60493
      vertex 14.4441 -13.2 3.60493
    endloop
  endfacet
  facet normal 0 1 0
    outer loop
      vertex 11.9281 -13.2 3.64405
      vertex 18 -13.2 0
      vertex 11.7441 -13.2 3.60493
    endloop
  endfacet
  facet normal 0 1 0
    outer loop
      vertex 11.7441 -13.2 3.60493
      vertex 18 -13.2 0
      vertex 11.5559 -13.2 3.60493
    endloop
  endfacet
  facet normal 0 1 0
    outer loop
      vertex 4 -13.2 0
      vertex 11.5559 -13.2 3.60493
      vertex 18 -13.2 0
    endloop
  endfacet
  facet normal 0 1 0
    outer loop
      vertex 11.5559 -13.2 3.60493
      vertex 4 -13.2 0
      vertex 9.04408 -13.2 3.60493
    endloop
  endfacet
  facet normal 0 1 0
    outer loop
      vertex 6.52812 -13.2 3.64405
      vertex 4 -13.2 0
      vertex 6.34408 -13.2 3.60493
    endloop
  endfacet
  facet normal 0 1 0
    outer loop
      vertex 9.04408 -13.2 3.60493
      vertex 4 -13.2 0
      vertex 8.85592 -13.2 3.60493
    endloop
  endfacet
  facet normal 0 1 0
    outer loop
      vertex 14.6281 -13.2 3.64405
      vertex 18 -13.2 0
      vertex 14.4441 -13.2 3.60493
    endloop
  endfacet
  facet normal 0 1 0
    outer loop
      vertex 14.8 -13.2 3.72058
      vertex 18 -13.2 0
      vertex 14.6281 -13.2 3.64405
    endloop
  endfacet
  facet normal 0 1 0
    outer loop
      vertex 14.9522 -13.2 3.83117
      vertex 18 -13.2 0
      vertex 14.8 -13.2 3.72058
    endloop
  endfacet
  facet normal 0 1 0
    outer loop
      vertex 11.7441 -13.2 5.39507
      vertex 18 -13.2 5.7
      vertex 14.2559 -13.2 5.39507
    endloop
  endfacet
  facet normal 0 1 0
    outer loop
      vertex 18 -13.2 5.7
      vertex 11.7441 -13.2 5.39507
      vertex 4 -13.2 5.7
    endloop
  endfacet
  facet normal 0 1 -0
    outer loop
      vertex 11.5559 -13.2 5.39507
      vertex 4 -13.2 5.7
      vertex 11.7441 -13.2 5.39507
    endloop
  endfacet
  facet normal 0 1 -0
    outer loop
      vertex 9.04408 -13.2 5.39507
      vertex 4 -13.2 5.7
      vertex 11.5559 -13.2 5.39507
    endloop
  endfacet
  facet normal 0 1 -0
    outer loop
      vertex 8.85592 -13.2 5.39507
      vertex 4 -13.2 5.7
      vertex 9.04408 -13.2 5.39507
    endloop
  endfacet
  facet normal 0 1 -0
    outer loop
      vertex 6.34408 -13.2 5.39507
      vertex 4 -13.2 5.7
      vertex 8.85592 -13.2 5.39507
    endloop
  endfacet
  facet normal 0 1 -0
    outer loop
      vertex 6.15592 -13.2 5.39507
      vertex 4 -13.2 5.7
      vertex 6.34408 -13.2 5.39507
    endloop
  endfacet
  facet normal 0 1 -0
    outer loop
      vertex 5.97188 -13.2 5.35595
      vertex 4 -13.2 5.7
      vertex 6.15592 -13.2 5.39507
    endloop
  endfacet
  facet normal 0 1 -0
    outer loop
      vertex 5.8 -13.2 5.27942
      vertex 4 -13.2 5.7
      vertex 5.97188 -13.2 5.35595
    endloop
  endfacet
  facet normal 0 1 -0
    outer loop
      vertex 5.64778 -13.2 5.16883
      vertex 4 -13.2 5.7
      vertex 5.8 -13.2 5.27942
    endloop
  endfacet
  facet normal 0 1 -0
    outer loop
      vertex 5.52188 -13.2 5.02901
      vertex 4 -13.2 5.7
      vertex 5.64778 -13.2 5.16883
    endloop
  endfacet
  facet normal 0 1 -0
    outer loop
      vertex 5.42781 -13.2 4.86606
      vertex 4 -13.2 5.7
      vertex 5.52188 -13.2 5.02901
    endloop
  endfacet
  facet normal 0 1 -0
    outer loop
      vertex 5.36967 -13.2 4.68712
      vertex 4 -13.2 5.7
      vertex 5.42781 -13.2 4.86606
    endloop
  endfacet
  facet normal 0 1 -0
    outer loop
      vertex 5.35 -13.2 4.5
      vertex 4 -13.2 5.7
      vertex 5.36967 -13.2 4.68712
    endloop
  endfacet
  facet normal 0 1 0
    outer loop
      vertex 5.36967 -13.2 4.31288
      vertex 4 -13.2 5.7
      vertex 5.35 -13.2 4.5
    endloop
  endfacet
  facet normal 0 1 0
    outer loop
      vertex 5.42781 -13.2 4.13394
      vertex 4 -13.2 5.7
      vertex 5.36967 -13.2 4.31288
    endloop
  endfacet
  facet normal 0 1 0
    outer loop
      vertex 4 -13.2 0
      vertex 5.42781 -13.2 4.13394
      vertex 5.52188 -13.2 3.97099
    endloop
  endfacet
  facet normal 0 1 0
    outer loop
      vertex 6.34408 -13.2 3.60493
      vertex 4 -13.2 0
      vertex 6.15592 -13.2 3.60493
    endloop
  endfacet
  facet normal 0 1 0
    outer loop
      vertex 5.42781 -13.2 4.13394
      vertex 4 -13.2 0
      vertex 4 -13.2 5.7
    endloop
  endfacet
  facet normal 0 1 0
    outer loop
      vertex 5.64778 -13.2 3.83117
      vertex 4 -13.2 0
      vertex 5.52188 -13.2 3.97099
    endloop
  endfacet
  facet normal 0 1 0
    outer loop
      vertex 5.8 -13.2 3.72058
      vertex 4 -13.2 0
      vertex 5.64778 -13.2 3.83117
    endloop
  endfacet
  facet normal 0 1 0
    outer loop
      vertex 5.97188 -13.2 3.64405
      vertex 4 -13.2 0
      vertex 5.8 -13.2 3.72058
    endloop
  endfacet
  facet normal 0 1 0
    outer loop
      vertex 6.15592 -13.2 3.60493
      vertex 4 -13.2 0
      vertex 5.97188 -13.2 3.64405
    endloop
  endfacet
  facet normal 0.951058 0 -0.309012
    outer loop
      vertex 5.42781 -20 4.86606
      vertex 5.36967 -13.2 4.68712
      vertex 5.42781 -13.2 4.86606
    endloop
  endfacet
  facet normal 0.951058 0 -0.309012
    outer loop
      vertex 5.36967 -13.2 4.68712
      vertex 5.42781 -20 4.86606
      vertex 5.36967 -20 4.68712
    endloop
  endfacet
  facet normal -0.866047 0 0.499963
    outer loop
      vertex 6.97812 -20 3.97099
      vertex 7.07219 -13.2 4.13394
      vertex 6.97812 -13.2 3.97099
    endloop
  endfacet
  facet normal -0.866047 0 0.499963
    outer loop
      vertex 7.07219 -13.2 4.13394
      vertex 6.97812 -20 3.97099
      vertex 7.07219 -20 4.13394
    endloop
  endfacet
  facet normal -0.207917 0 0.978146
    outer loop
      vertex 6.34408 -13.2 3.60493
      vertex 6.52812 -20 3.64405
      vertex 6.52812 -13.2 3.64405
    endloop
  endfacet
  facet normal -0.207917 0 0.978146
    outer loop
      vertex 6.52812 -20 3.64405
      vertex 6.34408 -13.2 3.60493
      vertex 6.34408 -20 3.60493
    endloop
  endfacet
  facet normal 0.207917 0 -0.978146
    outer loop
      vertex 5.97188 -20 5.35595
      vertex 6.15592 -13.2 5.39507
      vertex 6.15592 -20 5.39507
    endloop
  endfacet
  facet normal 0.207917 0 -0.978146
    outer loop
      vertex 6.15592 -13.2 5.39507
      vertex 5.97188 -20 5.35595
      vertex 5.97188 -13.2 5.35595
    endloop
  endfacet
  facet normal 0.866047 0 -0.499963
    outer loop
      vertex 5.52188 -20 5.02901
      vertex 5.42781 -13.2 4.86606
      vertex 5.52188 -13.2 5.02901
    endloop
  endfacet
  facet normal 0.866047 0 -0.499963
    outer loop
      vertex 5.42781 -13.2 4.86606
      vertex 5.52188 -20 5.02901
      vertex 5.42781 -20 4.86606
    endloop
  endfacet
  facet normal 0.74313 -0 0.669147
    outer loop
      vertex 5.52188 -20 3.97099
      vertex 5.64778 -13.2 3.83117
      vertex 5.52188 -13.2 3.97099
    endloop
  endfacet
  facet normal 0.74313 0 0.669147
    outer loop
      vertex 5.64778 -13.2 3.83117
      vertex 5.52188 -20 3.97099
      vertex 5.64778 -20 3.83117
    endloop
  endfacet
  facet normal 0.866047 -0 0.499963
    outer loop
      vertex 5.42781 -20 4.13394
      vertex 5.52188 -13.2 3.97099
      vertex 5.42781 -13.2 4.13394
    endloop
  endfacet
  facet normal 0.866047 0 0.499963
    outer loop
      vertex 5.52188 -13.2 3.97099
      vertex 5.42781 -20 4.13394
      vertex 5.52188 -20 3.97099
    endloop
  endfacet
  facet normal -0.74313 0 -0.669147
    outer loop
      vertex 6.97812 -20 5.02901
      vertex 6.85222 -13.2 5.16883
      vertex 6.97812 -13.2 5.02901
    endloop
  endfacet
  facet normal -0.74313 -0 -0.669147
    outer loop
      vertex 6.85222 -13.2 5.16883
      vertex 6.97812 -20 5.02901
      vertex 6.85222 -20 5.16883
    endloop
  endfacet
  facet normal 0.99452 -0 0.104544
    outer loop
      vertex 5.35 -20 4.5
      vertex 5.36967 -13.2 4.31288
      vertex 5.35 -13.2 4.5
    endloop
  endfacet
  facet normal 0.99452 0 0.104544
    outer loop
      vertex 5.36967 -13.2 4.31288
      vertex 5.35 -20 4.5
      vertex 5.36967 -20 4.31288
    endloop
  endfacet
  facet normal 0.74313 0 -0.669147
    outer loop
      vertex 5.64778 -20 5.16883
      vertex 5.52188 -13.2 5.02901
      vertex 5.64778 -13.2 5.16883
    endloop
  endfacet
  facet normal 0.74313 0 -0.669147
    outer loop
      vertex 5.52188 -13.2 5.02901
      vertex 5.64778 -20 5.16883
      vertex 5.52188 -20 5.02901
    endloop
  endfacet
  facet normal -0 0 1
    outer loop
      vertex 6.15592 -13.2 3.60493
      vertex 6.34408 -20 3.60493
      vertex 6.34408 -13.2 3.60493
    endloop
  endfacet
  facet normal 0 0 1
    outer loop
      vertex 6.34408 -20 3.60493
      vertex 6.15592 -13.2 3.60493
      vertex 6.15592 -20 3.60493
    endloop
  endfacet
  facet normal 0.58777 0 0.809028
    outer loop
      vertex 5.64778 -13.2 3.83117
      vertex 5.8 -20 3.72058
      vertex 5.8 -13.2 3.72058
    endloop
  endfacet
  facet normal 0.58777 0 0.809028
    outer loop
      vertex 5.8 -20 3.72058
      vertex 5.64778 -13.2 3.83117
      vertex 5.64778 -20 3.83117
    endloop
  endfacet
  facet normal 0.58777 0 -0.809028
    outer loop
      vertex 5.64778 -20 5.16883
      vertex 5.8 -13.2 5.27942
      vertex 5.8 -20 5.27942
    endloop
  endfacet
  facet normal 0.58777 0 -0.809028
    outer loop
      vertex 5.8 -13.2 5.27942
      vertex 5.64778 -20 5.16883
      vertex 5.64778 -13.2 5.16883
    endloop
  endfacet
  facet normal -0.406755 0 0.913537
    outer loop
      vertex 6.52812 -13.2 3.64405
      vertex 6.7 -20 3.72058
      vertex 6.7 -13.2 3.72058
    endloop
  endfacet
  facet normal -0.406755 0 0.913537
    outer loop
      vertex 6.7 -20 3.72058
      vertex 6.52812 -13.2 3.64405
      vertex 6.52812 -20 3.64405
    endloop
  endfacet
  facet normal -0.951058 0 0.309012
    outer loop
      vertex 7.07219 -20 4.13394
      vertex 7.13033 -13.2 4.31288
      vertex 7.07219 -13.2 4.13394
    endloop
  endfacet
  facet normal -0.951058 0 0.309012
    outer loop
      vertex 7.13033 -13.2 4.31288
      vertex 7.07219 -20 4.13394
      vertex 7.13033 -20 4.31288
    endloop
  endfacet
  facet normal 0.406755 0 0.913537
    outer loop
      vertex 5.8 -13.2 3.72058
      vertex 5.97188 -20 3.64405
      vertex 5.97188 -13.2 3.64405
    endloop
  endfacet
  facet normal 0.406755 0 0.913537
    outer loop
      vertex 5.97188 -20 3.64405
      vertex 5.8 -13.2 3.72058
      vertex 5.8 -20 3.72058
    endloop
  endfacet
  facet normal 0.951058 -0 0.309012
    outer loop
      vertex 5.36967 -20 4.31288
      vertex 5.42781 -13.2 4.13394
      vertex 5.36967 -13.2 4.31288
    endloop
  endfacet
  facet normal 0.951058 0 0.309012
    outer loop
      vertex 5.42781 -13.2 4.13394
      vertex 5.36967 -20 4.31288
      vertex 5.42781 -20 4.13394
    endloop
  endfacet
  facet normal 0.207917 0 0.978146
    outer loop
      vertex 5.97188 -13.2 3.64405
      vertex 6.15592 -20 3.60493
      vertex 6.15592 -13.2 3.60493
    endloop
  endfacet
  facet normal 0.207917 0 0.978146
    outer loop
      vertex 6.15592 -20 3.60493
      vertex 5.97188 -13.2 3.64405
      vertex 5.97188 -20 3.64405
    endloop
  endfacet
  facet normal -0.74313 0 0.669147
    outer loop
      vertex 6.85222 -20 3.83117
      vertex 6.97812 -13.2 3.97099
      vertex 6.85222 -13.2 3.83117
    endloop
  endfacet
  facet normal -0.74313 0 0.669147
    outer loop
      vertex 6.97812 -13.2 3.97099
      vertex 6.85222 -20 3.83117
      vertex 6.97812 -20 3.97099
    endloop
  endfacet
  facet normal -0.207917 0 0.978146
    outer loop
      vertex 9.04408 -13.2 3.60493
      vertex 9.22812 -20 3.64405
      vertex 9.22812 -13.2 3.64405
    endloop
  endfacet
  facet normal -0.207917 0 0.978146
    outer loop
      vertex 9.22812 -20 3.64405
      vertex 9.04408 -13.2 3.60493
      vertex 9.04408 -20 3.60493
    endloop
  endfacet
  facet normal -0.58777 0 -0.809028
    outer loop
      vertex 9.4 -20 5.27942
      vertex 9.55222 -13.2 5.16883
      vertex 9.55222 -20 5.16883
    endloop
  endfacet
  facet normal -0.58777 0 -0.809028
    outer loop
      vertex 9.55222 -13.2 5.16883
      vertex 9.4 -20 5.27942
      vertex 9.4 -13.2 5.27942
    endloop
  endfacet
  facet normal -0.207917 0 -0.978146
    outer loop
      vertex 9.04408 -20 5.39507
      vertex 9.22812 -13.2 5.35595
      vertex 9.22812 -20 5.35595
    endloop
  endfacet
  facet normal -0.207917 0 -0.978146
    outer loop
      vertex 9.22812 -13.2 5.35595
      vertex 9.04408 -20 5.39507
      vertex 9.04408 -13.2 5.39507
    endloop
  endfacet
  facet normal -0 0 1
    outer loop
      vertex 8.85592 -13.2 3.60493
      vertex 9.04408 -20 3.60493
      vertex 9.04408 -13.2 3.60493
    endloop
  endfacet
  facet normal 0 0 1
    outer loop
      vertex 9.04408 -20 3.60493
      vertex 8.85592 -13.2 3.60493
      vertex 8.85592 -20 3.60493
    endloop
  endfacet
  facet normal 0.866047 0 -0.499963
    outer loop
      vertex 8.22188 -20 5.02901
      vertex 8.12781 -13.2 4.86606
      vertex 8.22188 -13.2 5.02901
    endloop
  endfacet
  facet normal 0.866047 0 -0.499963
    outer loop
      vertex 8.12781 -13.2 4.86606
      vertex 8.22188 -20 5.02901
      vertex 8.12781 -20 4.86606
    endloop
  endfacet
  facet normal -0.406755 0 0.913537
    outer loop
      vertex 9.22812 -13.2 3.64405
      vertex 9.4 -20 3.72058
      vertex 9.4 -13.2 3.72058
    endloop
  endfacet
  facet normal -0.406755 0 0.913537
    outer loop
      vertex 9.4 -20 3.72058
      vertex 9.22812 -13.2 3.64405
      vertex 9.22812 -20 3.64405
    endloop
  endfacet
  facet normal 0 0 -1
    outer loop
      vertex 8.85592 -20 5.39507
      vertex 9.04408 -13.2 5.39507
      vertex 9.04408 -20 5.39507
    endloop
  endfacet
  facet normal -0 0 -1
    outer loop
      vertex 9.04408 -13.2 5.39507
      vertex 8.85592 -20 5.39507
      vertex 8.85592 -13.2 5.39507
    endloop
  endfacet
  facet normal -0.406755 0 -0.913537
    outer loop
      vertex 9.22812 -20 5.35595
      vertex 9.4 -13.2 5.27942
      vertex 9.4 -20 5.27942
    endloop
  endfacet
  facet normal -0.406755 0 -0.913537
    outer loop
      vertex 9.4 -13.2 5.27942
      vertex 9.22812 -20 5.35595
      vertex 9.22812 -13.2 5.35595
    endloop
  endfacet
  facet normal -0.866024 0 -0.500003
    outer loop
      vertex 9.77219 -20 4.86606
      vertex 9.67811 -13.2 5.02901
      vertex 9.77219 -13.2 4.86606
    endloop
  endfacet
  facet normal -0.866024 -0 -0.500003
    outer loop
      vertex 9.67811 -13.2 5.02901
      vertex 9.77219 -20 4.86606
      vertex 9.67811 -20 5.02901
    endloop
  endfacet
  facet normal -0.99452 0 -0.104544
    outer loop
      vertex 9.85 -20 4.5
      vertex 9.83033 -13.2 4.68712
      vertex 9.85 -13.2 4.5
    endloop
  endfacet
  facet normal -0.99452 -0 -0.104544
    outer loop
      vertex 9.83033 -13.2 4.68712
      vertex 9.85 -20 4.5
      vertex 9.83033 -20 4.68712
    endloop
  endfacet
  facet normal 0.58777 0 0.809028
    outer loop
      vertex 8.34778 -13.2 3.83117
      vertex 8.5 -20 3.72058
      vertex 8.5 -13.2 3.72058
    endloop
  endfacet
  facet normal 0.58777 0 0.809028
    outer loop
      vertex 8.5 -20 3.72058
      vertex 8.34778 -13.2 3.83117
      vertex 8.34778 -20 3.83117
    endloop
  endfacet
  facet normal -0.951058 0 -0.309012
    outer loop
      vertex 9.83033 -20 4.68712
      vertex 9.77219 -13.2 4.86606
      vertex 9.83033 -13.2 4.68712
    endloop
  endfacet
  facet normal -0.951058 -0 -0.309012
    outer loop
      vertex 9.77219 -13.2 4.86606
      vertex 9.83033 -20 4.68712
      vertex 9.77219 -20 4.86606
    endloop
  endfacet
  facet normal -0.99452 0 0.104544
    outer loop
      vertex 9.83033 -20 4.31288
      vertex 9.85 -13.2 4.5
      vertex 9.83033 -13.2 4.31288
    endloop
  endfacet
  facet normal -0.99452 0 0.104544
    outer loop
      vertex 9.85 -13.2 4.5
      vertex 9.83033 -20 4.31288
      vertex 9.85 -20 4.5
    endloop
  endfacet
  facet normal -0.951058 0 0.309012
    outer loop
      vertex 9.77219 -20 4.13394
      vertex 9.83033 -13.2 4.31288
      vertex 9.77219 -13.2 4.13394
    endloop
  endfacet
  facet normal -0.951058 0 0.309012
    outer loop
      vertex 9.83033 -13.2 4.31288
      vertex 9.77219 -20 4.13394
      vertex 9.83033 -20 4.31288
    endloop
  endfacet
  facet normal -0.58777 0 0.809028
    outer loop
      vertex 9.4 -13.2 3.72058
      vertex 9.55222 -20 3.83117
      vertex 9.55222 -13.2 3.83117
    endloop
  endfacet
  facet normal -0.58777 0 0.809028
    outer loop
      vertex 9.55222 -20 3.83117
      vertex 9.4 -13.2 3.72058
      vertex 9.4 -20 3.72058
    endloop
  endfacet
  facet normal -0.743157 0 0.669117
    outer loop
      vertex 9.55222 -20 3.83117
      vertex 9.67811 -13.2 3.97099
      vertex 9.55222 -13.2 3.83117
    endloop
  endfacet
  facet normal -0.743157 0 0.669117
    outer loop
      vertex 9.67811 -13.2 3.97099
      vertex 9.55222 -20 3.83117
      vertex 9.67811 -20 3.97099
    endloop
  endfacet
  facet normal 0.207917 0 -0.978146
    outer loop
      vertex 8.67188 -20 5.35595
      vertex 8.85592 -13.2 5.39507
      vertex 8.85592 -20 5.39507
    endloop
  endfacet
  facet normal 0.207917 0 -0.978146
    outer loop
      vertex 8.85592 -13.2 5.39507
      vertex 8.67188 -20 5.35595
      vertex 8.67188 -13.2 5.35595
    endloop
  endfacet
  facet normal 0.406755 0 0.913537
    outer loop
      vertex 8.5 -13.2 3.72058
      vertex 8.67188 -20 3.64405
      vertex 8.67188 -13.2 3.64405
    endloop
  endfacet
  facet normal 0.406755 0 0.913537
    outer loop
      vertex 8.67188 -20 3.64405
      vertex 8.5 -13.2 3.72058
      vertex 8.5 -20 3.72058
    endloop
  endfacet
  facet normal 0.406755 0 -0.913537
    outer loop
      vertex 8.5 -20 5.27942
      vertex 8.67188 -13.2 5.35595
      vertex 8.67188 -20 5.35595
    endloop
  endfacet
  facet normal 0.406755 0 -0.913537
    outer loop
      vertex 8.67188 -13.2 5.35595
      vertex 8.5 -20 5.27942
      vertex 8.5 -13.2 5.27942
    endloop
  endfacet
  facet normal 0.866047 -0 0.499963
    outer loop
      vertex 8.12781 -20 4.13394
      vertex 8.22188 -13.2 3.97099
      vertex 8.12781 -13.2 4.13394
    endloop
  endfacet
  facet normal 0.866047 0 0.499963
    outer loop
      vertex 8.22188 -13.2 3.97099
      vertex 8.12781 -20 4.13394
      vertex 8.22188 -20 3.97099
    endloop
  endfacet
  facet normal 0.74313 -0 0.669147
    outer loop
      vertex 8.22188 -20 3.97099
      vertex 8.34778 -13.2 3.83117
      vertex 8.22188 -13.2 3.97099
    endloop
  endfacet
  facet normal 0.74313 0 0.669147
    outer loop
      vertex 8.34778 -13.2 3.83117
      vertex 8.22188 -20 3.97099
      vertex 8.34778 -20 3.83117
    endloop
  endfacet
  facet normal 0.951058 0 -0.309012
    outer loop
      vertex 8.12781 -20 4.86606
      vertex 8.06967 -13.2 4.68712
      vertex 8.12781 -13.2 4.86606
    endloop
  endfacet
  facet normal 0.951058 0 -0.309012
    outer loop
      vertex 8.06967 -13.2 4.68712
      vertex 8.12781 -20 4.86606
      vertex 8.06967 -20 4.68712
    endloop
  endfacet
  facet normal 0.951058 -0 0.309012
    outer loop
      vertex 8.06967 -20 4.31288
      vertex 8.12781 -13.2 4.13394
      vertex 8.06967 -13.2 4.31288
    endloop
  endfacet
  facet normal 0.951058 0 0.309012
    outer loop
      vertex 8.12781 -13.2 4.13394
      vertex 8.06967 -20 4.31288
      vertex 8.12781 -20 4.13394
    endloop
  endfacet
  facet normal -0.743157 0 -0.669117
    outer loop
      vertex 9.67811 -20 5.02901
      vertex 9.55222 -13.2 5.16883
      vertex 9.67811 -13.2 5.02901
    endloop
  endfacet
  facet normal -0.743157 -0 -0.669117
    outer loop
      vertex 9.55222 -13.2 5.16883
      vertex 9.67811 -20 5.02901
      vertex 9.55222 -20 5.16883
    endloop
  endfacet
  facet normal 0.99452 -0 0.104544
    outer loop
      vertex 8.05 -20 4.5
      vertex 8.06967 -13.2 4.31288
      vertex 8.05 -13.2 4.5
    endloop
  endfacet
  facet normal 0.99452 0 0.104544
    outer loop
      vertex 8.06967 -13.2 4.31288
      vertex 8.05 -20 4.5
      vertex 8.06967 -20 4.31288
    endloop
  endfacet
  facet normal 0.74313 0 -0.669147
    outer loop
      vertex 8.34778 -20 5.16883
      vertex 8.22188 -13.2 5.02901
      vertex 8.34778 -13.2 5.16883
    endloop
  endfacet
  facet normal 0.74313 0 -0.669147
    outer loop
      vertex 8.22188 -13.2 5.02901
      vertex 8.34778 -20 5.16883
      vertex 8.22188 -20 5.02901
    endloop
  endfacet
  facet normal 0.58777 0 -0.809028
    outer loop
      vertex 8.34778 -20 5.16883
      vertex 8.5 -13.2 5.27942
      vertex 8.5 -20 5.27942
    endloop
  endfacet
  facet normal 0.58777 0 -0.809028
    outer loop
      vertex 8.5 -13.2 5.27942
      vertex 8.34778 -20 5.16883
      vertex 8.34778 -13.2 5.16883
    endloop
  endfacet
  facet normal -0.866024 0 0.500003
    outer loop
      vertex 9.67811 -20 3.97099
      vertex 9.77219 -13.2 4.13394
      vertex 9.67811 -13.2 3.97099
    endloop
  endfacet
  facet normal -0.866024 0 0.500003
    outer loop
      vertex 9.77219 -13.2 4.13394
      vertex 9.67811 -20 3.97099
      vertex 9.77219 -20 4.13394
    endloop
  endfacet
  facet normal 0.99452 0 -0.104544
    outer loop
      vertex 8.06967 -20 4.68712
      vertex 8.05 -13.2 4.5
      vertex 8.06967 -13.2 4.68712
    endloop
  endfacet
  facet normal 0.99452 0 -0.104544
    outer loop
      vertex 8.05 -13.2 4.5
      vertex 8.06967 -20 4.68712
      vertex 8.05 -20 4.5
    endloop
  endfacet
  facet normal 0.207917 0 0.978146
    outer loop
      vertex 8.67188 -13.2 3.64405
      vertex 8.85592 -20 3.60493
      vertex 8.85592 -13.2 3.60493
    endloop
  endfacet
  facet normal 0.207917 0 0.978146
    outer loop
      vertex 8.85592 -20 3.60493
      vertex 8.67188 -13.2 3.64405
      vertex 8.67188 -20 3.64405
    endloop
  endfacet
  facet normal 0.587821 0 0.808991
    outer loop
      vertex 11.0478 -13.2 3.83117
      vertex 11.2 -20 3.72058
      vertex 11.2 -13.2 3.72058
    endloop
  endfacet
  facet normal 0.587821 0 0.808991
    outer loop
      vertex 11.2 -20 3.72058
      vertex 11.0478 -13.2 3.83117
      vertex 11.0478 -20 3.83117
    endloop
  endfacet
  facet normal 0.865978 -0 0.500083
    outer loop
      vertex 10.8278 -20 4.13394
      vertex 10.9219 -13.2 3.97099
      vertex 10.8278 -13.2 4.13394
    endloop
  endfacet
  facet normal 0.865978 0 0.500083
    outer loop
      vertex 10.9219 -13.2 3.97099
      vertex 10.8278 -20 4.13394
      vertex 10.9219 -20 3.97099
    endloop
  endfacet
  facet normal -0.994504 0 0.104701
    outer loop
      vertex 12.5303 -20 4.31288
      vertex 12.55 -13.2 4.5
      vertex 12.5303 -13.2 4.31288
    endloop
  endfacet
  facet normal -0.994504 0 0.104701
    outer loop
      vertex 12.55 -13.2 4.5
      vertex 12.5303 -20 4.31288
      vertex 12.55 -20 4.5
    endloop
  endfacet
  facet normal 0.994504 0 -0.104701
    outer loop
      vertex 10.7697 -20 4.68712
      vertex 10.75 -13.2 4.5
      vertex 10.7697 -13.2 4.68712
    endloop
  endfacet
  facet normal 0.994504 0 -0.104701
    outer loop
      vertex 10.75 -13.2 4.5
      vertex 10.7697 -20 4.68712
      vertex 10.75 -20 4.5
    endloop
  endfacet
  facet normal -0.74313 0 0.669147
    outer loop
      vertex 12.2522 -20 3.83117
      vertex 12.3781 -13.2 3.97099
      vertex 12.2522 -13.2 3.83117
    endloop
  endfacet
  facet normal -0.74313 0 0.669147
    outer loop
      vertex 12.3781 -13.2 3.97099
      vertex 12.2522 -20 3.83117
      vertex 12.3781 -20 3.97099
    endloop
  endfacet
  facet normal 0 0 -1
    outer loop
      vertex 11.5559 -20 5.39507
      vertex 11.7441 -13.2 5.39507
      vertex 11.7441 -20 5.39507
    endloop
  endfacet
  facet normal -0 0 -1
    outer loop
      vertex 11.7441 -13.2 5.39507
      vertex 11.5559 -20 5.39507
      vertex 11.5559 -13.2 5.39507
    endloop
  endfacet
  facet normal -0.406715 0 -0.913555
    outer loop
      vertex 11.9281 -20 5.35595
      vertex 12.1 -13.2 5.27942
      vertex 12.1 -20 5.27942
    endloop
  endfacet
  facet normal -0.406715 0 -0.913555
    outer loop
      vertex 12.1 -13.2 5.27942
      vertex 11.9281 -20 5.35595
      vertex 11.9281 -13.2 5.35595
    endloop
  endfacet
  facet normal -0.865978 0 -0.500083
    outer loop
      vertex 12.4722 -20 4.86606
      vertex 12.3781 -13.2 5.02901
      vertex 12.4722 -13.2 4.86606
    endloop
  endfacet
  facet normal -0.865978 -0 -0.500083
    outer loop
      vertex 12.3781 -13.2 5.02901
      vertex 12.4722 -20 4.86606
      vertex 12.3781 -20 5.02901
    endloop
  endfacet
  facet normal -0.865978 0 0.500083
    outer loop
      vertex 12.3781 -20 3.97099
      vertex 12.4722 -13.2 4.13394
      vertex 12.3781 -13.2 3.97099
    endloop
  endfacet
  facet normal -0.865978 0 0.500083
    outer loop
      vertex 12.4722 -13.2 4.13394
      vertex 12.3781 -20 3.97099
      vertex 12.4722 -20 4.13394
    endloop
  endfacet
  facet normal -0.994504 0 -0.104701
    outer loop
      vertex 12.55 -20 4.5
      vertex 12.5303 -13.2 4.68712
      vertex 12.55 -13.2 4.5
    endloop
  endfacet
  facet normal -0.994504 -0 -0.104701
    outer loop
      vertex 12.5303 -13.2 4.68712
      vertex 12.55 -20 4.5
      vertex 12.5303 -20 4.68712
    endloop
  endfacet
  facet normal 0.994504 -0 0.104701
    outer loop
      vertex 10.75 -20 4.5
      vertex 10.7697 -13.2 4.31288
      vertex 10.75 -13.2 4.5
    endloop
  endfacet
  facet normal 0.994504 0 0.104701
    outer loop
      vertex 10.7697 -13.2 4.31288
      vertex 10.75 -20 4.5
      vertex 10.7697 -20 4.31288
    endloop
  endfacet
  facet normal 0.20796 0 -0.978137
    outer loop
      vertex 11.3719 -20 5.35595
      vertex 11.5559 -13.2 5.39507
      vertex 11.5559 -20 5.39507
    endloop
  endfacet
  facet normal 0.20796 0 -0.978137
    outer loop
      vertex 11.5559 -13.2 5.39507
      vertex 11.3719 -20 5.35595
      vertex 11.3719 -13.2 5.35595
    endloop
  endfacet
  facet normal -0.951121 0 -0.308819
    outer loop
      vertex 12.5303 -20 4.68712
      vertex 12.4722 -13.2 4.86606
      vertex 12.5303 -13.2 4.68712
    endloop
  endfacet
  facet normal -0.951121 -0 -0.308819
    outer loop
      vertex 12.4722 -13.2 4.86606
      vertex 12.5303 -20 4.68712
      vertex 12.4722 -20 4.86606
    endloop
  endfacet
  facet normal 0.951121 -0 0.308819
    outer loop
      vertex 10.7697 -20 4.31288
      vertex 10.8278 -13.2 4.13394
      vertex 10.7697 -13.2 4.31288
    endloop
  endfacet
  facet normal 0.951121 0 0.308819
    outer loop
      vertex 10.8278 -13.2 4.13394
      vertex 10.7697 -20 4.31288
      vertex 10.8278 -20 4.13394
    endloop
  endfacet
  facet normal 0.951121 0 -0.308819
    outer loop
      vertex 10.8278 -20 4.86606
      vertex 10.7697 -13.2 4.68712
      vertex 10.8278 -13.2 4.86606
    endloop
  endfacet
  facet normal 0.951121 0 -0.308819
    outer loop
      vertex 10.7697 -13.2 4.68712
      vertex 10.8278 -20 4.86606
      vertex 10.7697 -20 4.68712
    endloop
  endfacet
  facet normal 0.587821 0 -0.808991
    outer loop
      vertex 11.0478 -20 5.16883
      vertex 11.2 -13.2 5.27942
      vertex 11.2 -20 5.27942
    endloop
  endfacet
  facet normal 0.587821 0 -0.808991
    outer loop
      vertex 11.2 -13.2 5.27942
      vertex 11.0478 -20 5.16883
      vertex 11.0478 -13.2 5.16883
    endloop
  endfacet
  facet normal -0.587821 0 0.808991
    outer loop
      vertex 12.1 -13.2 3.72058
      vertex 12.2522 -20 3.83117
      vertex 12.2522 -13.2 3.83117
    endloop
  endfacet
  facet normal -0.587821 0 0.808991
    outer loop
      vertex 12.2522 -20 3.83117
      vertex 12.1 -13.2 3.72058
      vertex 12.1 -20 3.72058
    endloop
  endfacet
  facet normal 0.406715 0 0.913555
    outer loop
      vertex 11.2 -13.2 3.72058
      vertex 11.3719 -20 3.64405
      vertex 11.3719 -13.2 3.64405
    endloop
  endfacet
  facet normal 0.406715 0 0.913555
    outer loop
      vertex 11.3719 -20 3.64405
      vertex 11.2 -13.2 3.72058
      vertex 11.2 -20 3.72058
    endloop
  endfacet
  facet normal -0.951121 0 0.308819
    outer loop
      vertex 12.4722 -20 4.13394
      vertex 12.5303 -13.2 4.31288
      vertex 12.4722 -13.2 4.13394
    endloop
  endfacet
  facet normal -0.951121 0 0.308819
    outer loop
      vertex 12.5303 -13.2 4.31288
      vertex 12.4722 -20 4.13394
      vertex 12.5303 -20 4.31288
    endloop
  endfacet
  facet normal 0.20796 0 0.978137
    outer loop
      vertex 11.3719 -13.2 3.64405
      vertex 11.5559 -20 3.60493
      vertex 11.5559 -13.2 3.60493
    endloop
  endfacet
  facet normal 0.20796 0 0.978137
    outer loop
      vertex 11.5559 -20 3.60493
      vertex 11.3719 -13.2 3.64405
      vertex 11.3719 -20 3.64405
    endloop
  endfacet
  facet normal -0.20796 0 -0.978137
    outer loop
      vertex 11.7441 -20 5.39507
      vertex 11.9281 -13.2 5.35595
      vertex 11.9281 -20 5.35595
    endloop
  endfacet
  facet normal -0.20796 0 -0.978137
    outer loop
      vertex 11.9281 -13.2 5.35595
      vertex 11.7441 -20 5.39507
      vertex 11.7441 -13.2 5.39507
    endloop
  endfacet
  facet normal -0.587821 0 -0.808991
    outer loop
      vertex 12.1 -20 5.27942
      vertex 12.2522 -13.2 5.16883
      vertex 12.2522 -20 5.16883
    endloop
  endfacet
  facet normal -0.587821 0 -0.808991
    outer loop
      vertex 12.2522 -13.2 5.16883
      vertex 12.1 -20 5.27942
      vertex 12.1 -13.2 5.27942
    endloop
  endfacet
  facet normal -0.74313 0 -0.669147
    outer loop
      vertex 12.3781 -20 5.02901
      vertex 12.2522 -13.2 5.16883
      vertex 12.3781 -13.2 5.02901
    endloop
  endfacet
  facet normal -0.74313 -0 -0.669147
    outer loop
      vertex 12.2522 -13.2 5.16883
      vertex 12.3781 -20 5.02901
      vertex 12.2522 -20 5.16883
    endloop
  endfacet
  facet normal 0.74313 -0 0.669147
    outer loop
      vertex 10.9219 -20 3.97099
      vertex 11.0478 -13.2 3.83117
      vertex 10.9219 -13.2 3.97099
    endloop
  endfacet
  facet normal 0.74313 0 0.669147
    outer loop
      vertex 11.0478 -13.2 3.83117
      vertex 10.9219 -20 3.97099
      vertex 11.0478 -20 3.83117
    endloop
  endfacet
  facet normal 0.74313 0 -0.669147
    outer loop
      vertex 11.0478 -20 5.16883
      vertex 10.9219 -13.2 5.02901
      vertex 11.0478 -13.2 5.16883
    endloop
  endfacet
  facet normal 0.74313 0 -0.669147
    outer loop
      vertex 10.9219 -13.2 5.02901
      vertex 11.0478 -20 5.16883
      vertex 10.9219 -20 5.02901
    endloop
  endfacet
  facet normal 0.406715 0 -0.913555
    outer loop
      vertex 11.2 -20 5.27942
      vertex 11.3719 -13.2 5.35595
      vertex 11.3719 -20 5.35595
    endloop
  endfacet
  facet normal 0.406715 0 -0.913555
    outer loop
      vertex 11.3719 -13.2 5.35595
      vertex 11.2 -20 5.27942
      vertex 11.2 -13.2 5.27942
    endloop
  endfacet
  facet normal -0 0 1
    outer loop
      vertex 11.5559 -13.2 3.60493
      vertex 11.7441 -20 3.60493
      vertex 11.7441 -13.2 3.60493
    endloop
  endfacet
  facet normal 0 0 1
    outer loop
      vertex 11.7441 -20 3.60493
      vertex 11.5559 -13.2 3.60493
      vertex 11.5559 -20 3.60493
    endloop
  endfacet
  facet normal -0.406715 0 0.913555
    outer loop
      vertex 11.9281 -13.2 3.64405
      vertex 12.1 -20 3.72058
      vertex 12.1 -13.2 3.72058
    endloop
  endfacet
  facet normal -0.406715 0 0.913555
    outer loop
      vertex 12.1 -20 3.72058
      vertex 11.9281 -13.2 3.64405
      vertex 11.9281 -20 3.64405
    endloop
  endfacet
  facet normal -0.20796 0 0.978137
    outer loop
      vertex 11.7441 -13.2 3.60493
      vertex 11.9281 -20 3.64405
      vertex 11.9281 -13.2 3.64405
    endloop
  endfacet
  facet normal -0.20796 0 0.978137
    outer loop
      vertex 11.9281 -20 3.64405
      vertex 11.7441 -13.2 3.60493
      vertex 11.7441 -20 3.60493
    endloop
  endfacet
  facet normal 0.865978 0 -0.500083
    outer loop
      vertex 10.9219 -20 5.02901
      vertex 10.8278 -13.2 4.86606
      vertex 10.9219 -13.2 5.02901
    endloop
  endfacet
  facet normal 0.865978 0 -0.500083
    outer loop
      vertex 10.8278 -13.2 4.86606
      vertex 10.9219 -20 5.02901
      vertex 10.8278 -20 4.86606
    endloop
  endfacet
  facet normal -0.20796 0 0.978137
    outer loop
      vertex 14.4441 -13.2 3.60493
      vertex 14.6281 -20 3.64405
      vertex 14.6281 -13.2 3.64405
    endloop
  endfacet
  facet normal -0.20796 0 0.978137
    outer loop
      vertex 14.6281 -20 3.64405
      vertex 14.4441 -13.2 3.60493
      vertex 14.4441 -20 3.60493
    endloop
  endfacet
  facet normal -0.994504 0 -0.104701
    outer loop
      vertex 15.25 -20 4.5
      vertex 15.2303 -13.2 4.68712
      vertex 15.25 -13.2 4.5
    endloop
  endfacet
  facet normal -0.994504 -0 -0.104701
    outer loop
      vertex 15.2303 -13.2 4.68712
      vertex 15.25 -20 4.5
      vertex 15.2303 -20 4.68712
    endloop
  endfacet
  facet normal 0.20796 0 0.978137
    outer loop
      vertex 14.0719 -13.2 3.64405
      vertex 14.2559 -20 3.60493
      vertex 14.2559 -13.2 3.60493
    endloop
  endfacet
  facet normal 0.20796 0 0.978137
    outer loop
      vertex 14.2559 -20 3.60493
      vertex 14.0719 -13.2 3.64405
      vertex 14.0719 -20 3.64405
    endloop
  endfacet
  facet normal 0.994504 -0 0.104701
    outer loop
      vertex 13.45 -20 4.5
      vertex 13.4697 -13.2 4.31288
      vertex 13.45 -13.2 4.5
    endloop
  endfacet
  facet normal 0.994504 0 0.104701
    outer loop
      vertex 13.4697 -13.2 4.31288
      vertex 13.45 -20 4.5
      vertex 13.4697 -20 4.31288
    endloop
  endfacet
  facet normal 0.406715 0 -0.913555
    outer loop
      vertex 13.9 -20 5.27942
      vertex 14.0719 -13.2 5.35595
      vertex 14.0719 -20 5.35595
    endloop
  endfacet
  facet normal 0.406715 0 -0.913555
    outer loop
      vertex 14.0719 -13.2 5.35595
      vertex 13.9 -20 5.27942
      vertex 13.9 -13.2 5.27942
    endloop
  endfacet
  facet normal 0.951121 -0 0.308819
    outer loop
      vertex 13.4697 -20 4.31288
      vertex 13.5278 -13.2 4.13394
      vertex 13.4697 -13.2 4.31288
    endloop
  endfacet
  facet normal 0.951121 0 0.308819
    outer loop
      vertex 13.5278 -13.2 4.13394
      vertex 13.4697 -20 4.31288
      vertex 13.5278 -20 4.13394
    endloop
  endfacet
  facet normal -0.865978 0 -0.500083
    outer loop
      vertex 15.1722 -20 4.86606
      vertex 15.0781 -13.2 5.02901
      vertex 15.1722 -13.2 4.86606
    endloop
  endfacet
  facet normal -0.865978 -0 -0.500083
    outer loop
      vertex 15.0781 -13.2 5.02901
      vertex 15.1722 -20 4.86606
      vertex 15.0781 -20 5.02901
    endloop
  endfacet
  facet normal -0.74313 0 -0.669147
    outer loop
      vertex 15.0781 -20 5.02901
      vertex 14.9522 -13.2 5.16883
      vertex 15.0781 -13.2 5.02901
    endloop
  endfacet
  facet normal -0.74313 -0 -0.669147
    outer loop
      vertex 14.9522 -13.2 5.16883
      vertex 15.0781 -20 5.02901
      vertex 14.9522 -20 5.16883
    endloop
  endfacet
  facet normal 0.587821 0 -0.808991
    outer loop
      vertex 13.7478 -20 5.16883
      vertex 13.9 -13.2 5.27942
      vertex 13.9 -20 5.27942
    endloop
  endfacet
  facet normal 0.587821 0 -0.808991
    outer loop
      vertex 13.9 -13.2 5.27942
      vertex 13.7478 -20 5.16883
      vertex 13.7478 -13.2 5.16883
    endloop
  endfacet
  facet normal -0.406715 0 0.913555
    outer loop
      vertex 14.6281 -13.2 3.64405
      vertex 14.8 -20 3.72058
      vertex 14.8 -13.2 3.72058
    endloop
  endfacet
  facet normal -0.406715 0 0.913555
    outer loop
      vertex 14.8 -20 3.72058
      vertex 14.6281 -13.2 3.64405
      vertex 14.6281 -20 3.64405
    endloop
  endfacet
  facet normal 0.74313 0 -0.669147
    outer loop
      vertex 13.7478 -20 5.16883
      vertex 13.6219 -13.2 5.02901
      vertex 13.7478 -13.2 5.16883
    endloop
  endfacet
  facet normal 0.74313 0 -0.669147
    outer loop
      vertex 13.6219 -13.2 5.02901
      vertex 13.7478 -20 5.16883
      vertex 13.6219 -20 5.02901
    endloop
  endfacet
  facet normal 0.994504 0 -0.104701
    outer loop
      vertex 13.4697 -20 4.68712
      vertex 13.45 -13.2 4.5
      vertex 13.4697 -13.2 4.68712
    endloop
  endfacet
  facet normal 0.994504 0 -0.104701
    outer loop
      vertex 13.45 -13.2 4.5
      vertex 13.4697 -20 4.68712
      vertex 13.45 -20 4.5
    endloop
  endfacet
  facet normal 0.20796 0 -0.978137
    outer loop
      vertex 14.0719 -20 5.35595
      vertex 14.2559 -13.2 5.39507
      vertex 14.2559 -20 5.39507
    endloop
  endfacet
  facet normal 0.20796 0 -0.978137
    outer loop
      vertex 14.2559 -13.2 5.39507
      vertex 14.0719 -20 5.35595
      vertex 14.0719 -13.2 5.35595
    endloop
  endfacet
  facet normal -0.406715 0 -0.913555
    outer loop
      vertex 14.6281 -20 5.35595
      vertex 14.8 -13.2 5.27942
      vertex 14.8 -20 5.27942
    endloop
  endfacet
  facet normal -0.406715 0 -0.913555
    outer loop
      vertex 14.8 -13.2 5.27942
      vertex 14.6281 -20 5.35595
      vertex 14.6281 -13.2 5.35595
    endloop
  endfacet
  facet normal -0.951121 0 -0.308819
    outer loop
      vertex 15.2303 -20 4.68712
      vertex 15.1722 -13.2 4.86606
      vertex 15.2303 -13.2 4.68712
    endloop
  endfacet
  facet normal -0.951121 -0 -0.308819
    outer loop
      vertex 15.1722 -13.2 4.86606
      vertex 15.2303 -20 4.68712
      vertex 15.1722 -20 4.86606
    endloop
  endfacet
  facet normal -0.865978 0 0.500083
    outer loop
      vertex 15.0781 -20 3.97099
      vertex 15.1722 -13.2 4.13394
      vertex 15.0781 -13.2 3.97099
    endloop
  endfacet
  facet normal -0.865978 0 0.500083
    outer loop
      vertex 15.1722 -13.2 4.13394
      vertex 15.0781 -20 3.97099
      vertex 15.1722 -20 4.13394
    endloop
  endfacet
  facet normal -0.951121 0 0.308819
    outer loop
      vertex 15.1722 -20 4.13394
      vertex 15.2303 -13.2 4.31288
      vertex 15.1722 -13.2 4.13394
    endloop
  endfacet
  facet normal -0.951121 0 0.308819
    outer loop
      vertex 15.2303 -13.2 4.31288
      vertex 15.1722 -20 4.13394
      vertex 15.2303 -20 4.31288
    endloop
  endfacet
  facet normal 0.865978 0 -0.500083
    outer loop
      vertex 13.6219 -20 5.02901
      vertex 13.5278 -13.2 4.86606
      vertex 13.6219 -13.2 5.02901
    endloop
  endfacet
  facet normal 0.865978 0 -0.500083
    outer loop
      vertex 13.5278 -13.2 4.86606
      vertex 13.6219 -20 5.02901
      vertex 13.5278 -20 4.86606
    endloop
  endfacet
  facet normal 0.951121 0 -0.308819
    outer loop
      vertex 13.5278 -20 4.86606
      vertex 13.4697 -13.2 4.68712
      vertex 13.5278 -13.2 4.86606
    endloop
  endfacet
  facet normal 0.951121 0 -0.308819
    outer loop
      vertex 13.4697 -13.2 4.68712
      vertex 13.5278 -20 4.86606
      vertex 13.4697 -20 4.68712
    endloop
  endfacet
  facet normal -0 0 1
    outer loop
      vertex 14.2559 -13.2 3.60493
      vertex 14.4441 -20 3.60493
      vertex 14.4441 -13.2 3.60493
    endloop
  endfacet
  facet normal 0 0 1
    outer loop
      vertex 14.4441 -20 3.60493
      vertex 14.2559 -13.2 3.60493
      vertex 14.2559 -20 3.60493
    endloop
  endfacet
  facet normal -0.587821 0 0.808991
    outer loop
      vertex 14.8 -13.2 3.72058
      vertex 14.9522 -20 3.83117
      vertex 14.9522 -13.2 3.83117
    endloop
  endfacet
  facet normal -0.587821 0 0.808991
    outer loop
      vertex 14.9522 -20 3.83117
      vertex 14.8 -13.2 3.72058
      vertex 14.8 -20 3.72058
    endloop
  endfacet
  facet normal -0.20796 0 -0.978137
    outer loop
      vertex 14.4441 -20 5.39507
      vertex 14.6281 -13.2 5.35595
      vertex 14.6281 -20 5.35595
    endloop
  endfacet
  facet normal -0.20796 0 -0.978137
    outer loop
      vertex 14.6281 -13.2 5.35595
      vertex 14.4441 -20 5.39507
      vertex 14.4441 -13.2 5.39507
    endloop
  endfacet
  facet normal 0 0 -1
    outer loop
      vertex 14.2559 -20 5.39507
      vertex 14.4441 -13.2 5.39507
      vertex 14.4441 -20 5.39507
    endloop
  endfacet
  facet normal -0 0 -1
    outer loop
      vertex 14.4441 -13.2 5.39507
      vertex 14.2559 -20 5.39507
      vertex 14.2559 -13.2 5.39507
    endloop
  endfacet
  facet normal -0.587821 0 -0.808991
    outer loop
      vertex 14.8 -20 5.27942
      vertex 14.9522 -13.2 5.16883
      vertex 14.9522 -20 5.16883
    endloop
  endfacet
  facet normal -0.587821 0 -0.808991
    outer loop
      vertex 14.9522 -13.2 5.16883
      vertex 14.8 -20 5.27942
      vertex 14.8 -13.2 5.27942
    endloop
  endfacet
  facet normal -0.994504 0 0.104701
    outer loop
      vertex 15.2303 -20 4.31288
      vertex 15.25 -13.2 4.5
      vertex 15.2303 -13.2 4.31288
    endloop
  endfacet
  facet normal -0.994504 0 0.104701
    outer loop
      vertex 15.25 -13.2 4.5
      vertex 15.2303 -20 4.31288
      vertex 15.25 -20 4.5
    endloop
  endfacet
  facet normal 0.406715 0 0.913555
    outer loop
      vertex 13.9 -13.2 3.72058
      vertex 14.0719 -20 3.64405
      vertex 14.0719 -13.2 3.64405
    endloop
  endfacet
  facet normal 0.406715 0 0.913555
    outer loop
      vertex 14.0719 -20 3.64405
      vertex 13.9 -13.2 3.72058
      vertex 13.9 -20 3.72058
    endloop
  endfacet
  facet normal 0.74313 -0 0.669147
    outer loop
      vertex 13.6219 -20 3.97099
      vertex 13.7478 -13.2 3.83117
      vertex 13.6219 -13.2 3.97099
    endloop
  endfacet
  facet normal 0.74313 0 0.669147
    outer loop
      vertex 13.7478 -13.2 3.83117
      vertex 13.6219 -20 3.97099
      vertex 13.7478 -20 3.83117
    endloop
  endfacet
  facet normal 0.587821 0 0.808991
    outer loop
      vertex 13.7478 -13.2 3.83117
      vertex 13.9 -20 3.72058
      vertex 13.9 -13.2 3.72058
    endloop
  endfacet
  facet normal 0.587821 0 0.808991
    outer loop
      vertex 13.9 -20 3.72058
      vertex 13.7478 -13.2 3.83117
      vertex 13.7478 -20 3.83117
    endloop
  endfacet
  facet normal -0.74313 0 0.669147
    outer loop
      vertex 14.9522 -20 3.83117
      vertex 15.0781 -13.2 3.97099
      vertex 14.9522 -13.2 3.83117
    endloop
  endfacet
  facet normal -0.74313 0 0.669147
    outer loop
      vertex 15.0781 -13.2 3.97099
      vertex 14.9522 -20 3.83117
      vertex 15.0781 -20 3.97099
    endloop
  endfacet
  facet normal 0.865978 -0 0.500083
    outer loop
      vertex 13.5278 -20 4.13394
      vertex 13.6219 -13.2 3.97099
      vertex 13.5278 -13.2 4.13394
    endloop
  endfacet
  facet normal 0.865978 0 0.500083
    outer loop
      vertex 13.6219 -13.2 3.97099
      vertex 13.5278 -20 4.13394
      vertex 13.6219 -20 3.97099
    endloop
  endfacet
  facet normal -1 0 0
    outer loop
      vertex 18 -13.2 0
      vertex 18 0 5.7
      vertex 18 0 0
    endloop
  endfacet
  facet normal -1 -0 0
    outer loop
      vertex 18 0 5.7
      vertex 18 -13.2 0
      vertex 18 -13.2 5.7
    endloop
  endfacet
  facet normal 0 0 -1
    outer loop
      vertex 4 -13.2 5.7
      vertex 18 0 5.7
      vertex 18 -13.2 5.7
    endloop
  endfacet
  facet normal -0 0 -1
    outer loop
      vertex 18 0 5.7
      vertex 4 -13.2 5.7
      vertex 4 0 5.7
    endloop
  endfacet
  facet normal 0 0 -1
    outer loop
      vertex 22 -20 0
      vertex 18 -13.2 0
      vertex 22 0 0
    endloop
  endfacet
  facet normal 0 0 -1
    outer loop
      vertex 22 -20 0
      vertex 4 -13.2 0
      vertex 18 -13.2 0
    endloop
  endfacet
  facet normal 0 0 -1
    outer loop
      vertex 0 -20 0
      vertex 4 -13.2 0
      vertex 22 -20 0
    endloop
  endfacet
  facet normal 0 0 -1
    outer loop
      vertex 0 0 0
      vertex 4 -13.2 0
      vertex 0 -20 0
    endloop
  endfacet
  facet normal 0 0 -1
    outer loop
      vertex 4 -13.2 0
      vertex 0 0 0
      vertex 4 0 0
    endloop
  endfacet
  facet normal -0 0 -1
    outer loop
      vertex 22 0 0
      vertex 18 -13.2 0
      vertex 18 0 0
    endloop
  endfacet
  facet normal 1 -0 0
    outer loop
      vertex 4 -13.2 5.7
      vertex 4 0 0
      vertex 4 0 5.7
    endloop
  endfacet
  facet normal 1 0 0
    outer loop
      vertex 4 0 0
      vertex 4 -13.2 5.7
      vertex 4 -13.2 0
    endloop
  endfacet
  facet normal 0 -1 0
    outer loop
      vertex 4.95506 -18 5.54491
      vertex 4.05469 -18 7.34375
      vertex 3.15625 -18 6.4453
    endloop
  endfacet
  facet normal 0 -1 0
    outer loop
      vertex 4.05469 -18 7.34375
      vertex 4.95506 -18 5.54491
      vertex 16.7441 -18 7.34375
    endloop
  endfacet
  facet normal 0 -1 0
    outer loop
      vertex 15.8438 -18 5.54491
      vertex 16.7441 -18 7.34375
      vertex 4.95506 -18 5.54491
    endloop
  endfacet
  facet normal 0 -1 0
    outer loop
      vertex 3.15625 -18 6.4453
      vertex 4.95506 -18 2.95508
      vertex 4.95506 -18 5.54491
    endloop
  endfacet
  facet normal 0 -1 0
    outer loop
      vertex 4.05469 -18 1.15625
      vertex 4.95506 -18 2.95508
      vertex 3.15625 -18 2.05469
    endloop
  endfacet
  facet normal 0 -1 0
    outer loop
      vertex 3.15625 -18 2.05469
      vertex 4.95506 -18 2.95508
      vertex 3.15625 -18 6.4453
    endloop
  endfacet
  facet normal 0 -1 -0
    outer loop
      vertex 16.7441 -18 7.34375
      vertex 15.8438 -18 5.54491
      vertex 17.6445 -18 6.4453
    endloop
  endfacet
  facet normal 0 -1 0
    outer loop
      vertex 15.8438 -18 2.95508
      vertex 17.6445 -18 6.4453
      vertex 15.8438 -18 5.54491
    endloop
  endfacet
  facet normal 0 -1 0
    outer loop
      vertex 15.8438 -18 2.95508
      vertex 17.6445 -18 2.05469
      vertex 17.6445 -18 6.4453
    endloop
  endfacet
  facet normal 0 -1 -0
    outer loop
      vertex 4.95506 -18 2.95508
      vertex 4.05469 -18 1.15625
      vertex 15.8438 -18 2.95508
    endloop
  endfacet
  facet normal 0 -1 0
    outer loop
      vertex 16.7441 -18 1.15625
      vertex 15.8438 -18 2.95508
      vertex 4.05469 -18 1.15625
    endloop
  endfacet
  facet normal 0 -1 0
    outer loop
      vertex 15.8438 -18 2.95508
      vertex 16.7441 -18 1.15625
      vertex 17.6445 -18 2.05469
    endloop
  endfacet
  facet normal 0 -1 0
    outer loop
      vertex 16.7441 -20 7.34375
      vertex 0 -20 8
      vertex 4.05469 -20 7.34375
    endloop
  endfacet
  facet normal 0 -1 0
    outer loop
      vertex 0 -20 8
      vertex 3.15625 -20 6.4453
      vertex 4.05469 -20 7.34375
    endloop
  endfacet
  facet normal 0 -1 0
    outer loop
      vertex 0 -20 8
      vertex 3.15625 -20 2.05469
      vertex 3.15625 -20 6.4453
    endloop
  endfacet
  facet normal 0 -1 -0
    outer loop
      vertex 4.05469 -20 1.15625
      vertex 0 -20 0
      vertex 16.7441 -20 1.15625
    endloop
  endfacet
  facet normal 0 -1 -0
    outer loop
      vertex 3.15625 -20 2.05469
      vertex 0 -20 0
      vertex 4.05469 -20 1.15625
    endloop
  endfacet
  facet normal 0 -1 0
    outer loop
      vertex 0 -20 0
      vertex 3.15625 -20 2.05469
      vertex 0 -20 8
    endloop
  endfacet
  facet normal 0 -1 0
    outer loop
      vertex 0 -20 8
      vertex 16.7441 -20 7.34375
      vertex 22 -20 8
    endloop
  endfacet
  facet normal 0 -1 0
    outer loop
      vertex 17.6445 -20 6.4453
      vertex 22 -20 8
      vertex 16.7441 -20 7.34375
    endloop
  endfacet
  facet normal 0 -1 0
    outer loop
      vertex 17.6445 -20 2.05469
      vertex 22 -20 8
      vertex 17.6445 -20 6.4453
    endloop
  endfacet
  facet normal 0 -1 0
    outer loop
      vertex 17.6445 -20 2.05469
      vertex 22 -20 0
      vertex 22 -20 8
    endloop
  endfacet
  facet normal 0 -1 0
    outer loop
      vertex 16.7441 -20 1.15625
      vertex 22 -20 0
      vertex 17.6445 -20 2.05469
    endloop
  endfacet
  facet normal 0 -1 0
    outer loop
      vertex 22 -20 0
      vertex 16.7441 -20 1.15625
      vertex 0 -20 0
    endloop
  endfacet
  facet normal 0 -1 0
    outer loop
      vertex 11.9281 -20 5.35595
      vertex 14.2559 -20 5.39507
      vertex 11.7441 -20 5.39507
    endloop
  endfacet
  facet normal 0 -1 0
    outer loop
      vertex 11.9281 -20 5.35595
      vertex 14.0719 -20 5.35595
      vertex 14.2559 -20 5.39507
    endloop
  endfacet
  facet normal 0 -1 0
    outer loop
      vertex 12.1 -20 5.27942
      vertex 14.0719 -20 5.35595
      vertex 11.9281 -20 5.35595
    endloop
  endfacet
  facet normal 0 -1 0
    outer loop
      vertex 12.1 -20 5.27942
      vertex 13.9 -20 5.27942
      vertex 14.0719 -20 5.35595
    endloop
  endfacet
  facet normal 0 -1 0
    outer loop
      vertex 12.2522 -20 5.16883
      vertex 13.9 -20 5.27942
      vertex 12.1 -20 5.27942
    endloop
  endfacet
  facet normal 0 -1 0
    outer loop
      vertex 12.2522 -20 5.16883
      vertex 13.7478 -20 5.16883
      vertex 13.9 -20 5.27942
    endloop
  endfacet
  facet normal 0 -1 0
    outer loop
      vertex 12.3781 -20 5.02901
      vertex 13.7478 -20 5.16883
      vertex 12.2522 -20 5.16883
    endloop
  endfacet
  facet normal 0 -1 0
    outer loop
      vertex 12.3781 -20 5.02901
      vertex 13.6219 -20 5.02901
      vertex 13.7478 -20 5.16883
    endloop
  endfacet
  facet normal 0 -1 0
    outer loop
      vertex 12.4722 -20 4.86606
      vertex 13.6219 -20 5.02901
      vertex 12.3781 -20 5.02901
    endloop
  endfacet
  facet normal 0 -1 0
    outer loop
      vertex 12.4722 -20 4.86606
      vertex 13.5278 -20 4.86606
      vertex 13.6219 -20 5.02901
    endloop
  endfacet
  facet normal 0 -1 0
    outer loop
      vertex 12.5303 -20 4.68712
      vertex 13.5278 -20 4.86606
      vertex 12.4722 -20 4.86606
    endloop
  endfacet
  facet normal 0 -1 0
    outer loop
      vertex 12.5303 -20 4.68712
      vertex 13.4697 -20 4.68712
      vertex 13.5278 -20 4.86606
    endloop
  endfacet
  facet normal 0 -1 0
    outer loop
      vertex 12.55 -20 4.5
      vertex 13.4697 -20 4.68712
      vertex 12.5303 -20 4.68712
    endloop
  endfacet
  facet normal 0 -1 0
    outer loop
      vertex 12.55 -20 4.5
      vertex 13.45 -20 4.5
      vertex 13.4697 -20 4.68712
    endloop
  endfacet
  facet normal 0 -1 0
    outer loop
      vertex 12.5303 -20 4.31288
      vertex 13.45 -20 4.5
      vertex 12.55 -20 4.5
    endloop
  endfacet
  facet normal 0 -1 0
    outer loop
      vertex 12.5303 -20 4.31288
      vertex 13.4697 -20 4.31288
      vertex 13.45 -20 4.5
    endloop
  endfacet
  facet normal 0 -1 0
    outer loop
      vertex 12.4722 -20 4.13394
      vertex 13.4697 -20 4.31288
      vertex 12.5303 -20 4.31288
    endloop
  endfacet
  facet normal 0 -1 0
    outer loop
      vertex 12.4722 -20 4.13394
      vertex 13.5278 -20 4.13394
      vertex 13.4697 -20 4.31288
    endloop
  endfacet
  facet normal 0 -1 0
    outer loop
      vertex 12.3781 -20 3.97099
      vertex 13.5278 -20 4.13394
      vertex 12.4722 -20 4.13394
    endloop
  endfacet
  facet normal 0 -1 0
    outer loop
      vertex 12.3781 -20 3.97099
      vertex 13.6219 -20 3.97099
      vertex 13.5278 -20 4.13394
    endloop
  endfacet
  facet normal 0 -1 0
    outer loop
      vertex 12.2522 -20 3.83117
      vertex 13.6219 -20 3.97099
      vertex 12.3781 -20 3.97099
    endloop
  endfacet
  facet normal 0 -1 0
    outer loop
      vertex 12.2522 -20 3.83117
      vertex 13.7478 -20 3.83117
      vertex 13.6219 -20 3.97099
    endloop
  endfacet
  facet normal 0 -1 0
    outer loop
      vertex 12.1 -20 3.72058
      vertex 13.7478 -20 3.83117
      vertex 12.2522 -20 3.83117
    endloop
  endfacet
  facet normal 0 -1 0
    outer loop
      vertex 12.1 -20 3.72058
      vertex 13.9 -20 3.72058
      vertex 13.7478 -20 3.83117
    endloop
  endfacet
  facet normal 0 -1 0
    outer loop
      vertex 11.9281 -20 3.64405
      vertex 13.9 -20 3.72058
      vertex 12.1 -20 3.72058
    endloop
  endfacet
  facet normal 0 -1 0
    outer loop
      vertex 11.9281 -20 3.64405
      vertex 14.0719 -20 3.64405
      vertex 13.9 -20 3.72058
    endloop
  endfacet
  facet normal 0 -1 0
    outer loop
      vertex 11.7441 -20 3.60493
      vertex 14.0719 -20 3.64405
      vertex 11.9281 -20 3.64405
    endloop
  endfacet
  facet normal 0 -1 -0
    outer loop
      vertex 14.0719 -20 3.64405
      vertex 11.7441 -20 3.60493
      vertex 14.2559 -20 3.60493
    endloop
  endfacet
  facet normal 0 -1 0
    outer loop
      vertex 9.22812 -20 5.35595
      vertex 11.5559 -20 5.39507
      vertex 9.04408 -20 5.39507
    endloop
  endfacet
  facet normal 0 -1 0
    outer loop
      vertex 9.22812 -20 5.35595
      vertex 11.3719 -20 5.35595
      vertex 11.5559 -20 5.39507
    endloop
  endfacet
  facet normal 0 -1 0
    outer loop
      vertex 9.4 -20 5.27942
      vertex 11.3719 -20 5.35595
      vertex 9.22812 -20 5.35595
    endloop
  endfacet
  facet normal 0 -1 0
    outer loop
      vertex 9.4 -20 5.27942
      vertex 11.2 -20 5.27942
      vertex 11.3719 -20 5.35595
    endloop
  endfacet
  facet normal 0 -1 0
    outer loop
      vertex 9.55222 -20 5.16883
      vertex 11.2 -20 5.27942
      vertex 9.4 -20 5.27942
    endloop
  endfacet
  facet normal 0 -1 0
    outer loop
      vertex 9.55222 -20 5.16883
      vertex 11.0478 -20 5.16883
      vertex 11.2 -20 5.27942
    endloop
  endfacet
  facet normal 0 -1 0
    outer loop
      vertex 9.67811 -20 5.02901
      vertex 11.0478 -20 5.16883
      vertex 9.55222 -20 5.16883
    endloop
  endfacet
  facet normal 0 -1 0
    outer loop
      vertex 9.67811 -20 5.02901
      vertex 10.9219 -20 5.02901
      vertex 11.0478 -20 5.16883
    endloop
  endfacet
  facet normal 0 -1 0
    outer loop
      vertex 9.77219 -20 4.86606
      vertex 10.9219 -20 5.02901
      vertex 9.67811 -20 5.02901
    endloop
  endfacet
  facet normal 0 -1 0
    outer loop
      vertex 9.77219 -20 4.86606
      vertex 10.8278 -20 4.86606
      vertex 10.9219 -20 5.02901
    endloop
  endfacet
  facet normal 0 -1 0
    outer loop
      vertex 9.83033 -20 4.68712
      vertex 10.8278 -20 4.86606
      vertex 9.77219 -20 4.86606
    endloop
  endfacet
  facet normal 0 -1 0
    outer loop
      vertex 9.83033 -20 4.68712
      vertex 10.7697 -20 4.68712
      vertex 10.8278 -20 4.86606
    endloop
  endfacet
  facet normal 0 -1 0
    outer loop
      vertex 9.85 -20 4.5
      vertex 10.7697 -20 4.68712
      vertex 9.83033 -20 4.68712
    endloop
  endfacet
  facet normal 0 -1 0
    outer loop
      vertex 9.85 -20 4.5
      vertex 10.75 -20 4.5
      vertex 10.7697 -20 4.68712
    endloop
  endfacet
  facet normal 0 -1 0
    outer loop
      vertex 9.83033 -20 4.31288
      vertex 10.75 -20 4.5
      vertex 9.85 -20 4.5
    endloop
  endfacet
  facet normal 0 -1 0
    outer loop
      vertex 9.83033 -20 4.31288
      vertex 10.7697 -20 4.31288
      vertex 10.75 -20 4.5
    endloop
  endfacet
  facet normal 0 -1 0
    outer loop
      vertex 9.77219 -20 4.13394
      vertex 10.7697 -20 4.31288
      vertex 9.83033 -20 4.31288
    endloop
  endfacet
  facet normal 0 -1 0
    outer loop
      vertex 9.77219 -20 4.13394
      vertex 10.8278 -20 4.13394
      vertex 10.7697 -20 4.31288
    endloop
  endfacet
  facet normal 0 -1 0
    outer loop
      vertex 9.67811 -20 3.97099
      vertex 10.8278 -20 4.13394
      vertex 9.77219 -20 4.13394
    endloop
  endfacet
  facet normal 0 -1 0
    outer loop
      vertex 9.67811 -20 3.97099
      vertex 10.9219 -20 3.97099
      vertex 10.8278 -20 4.13394
    endloop
  endfacet
  facet normal 0 -1 0
    outer loop
      vertex 9.55222 -20 3.83117
      vertex 10.9219 -20 3.97099
      vertex 9.67811 -20 3.97099
    endloop
  endfacet
  facet normal 0 -1 0
    outer loop
      vertex 9.55222 -20 3.83117
      vertex 11.0478 -20 3.83117
      vertex 10.9219 -20 3.97099
    endloop
  endfacet
  facet normal 0 -1 0
    outer loop
      vertex 9.4 -20 3.72058
      vertex 11.0478 -20 3.83117
      vertex 9.55222 -20 3.83117
    endloop
  endfacet
  facet normal 0 -1 0
    outer loop
      vertex 9.4 -20 3.72058
      vertex 11.2 -20 3.72058
      vertex 11.0478 -20 3.83117
    endloop
  endfacet
  facet normal 0 -1 0
    outer loop
      vertex 9.22812 -20 3.64405
      vertex 11.2 -20 3.72058
      vertex 9.4 -20 3.72058
    endloop
  endfacet
  facet normal 0 -1 0
    outer loop
      vertex 9.22812 -20 3.64405
      vertex 11.3719 -20 3.64405
      vertex 11.2 -20 3.72058
    endloop
  endfacet
  facet normal 0 -1 0
    outer loop
      vertex 9.04408 -20 3.60493
      vertex 11.3719 -20 3.64405
      vertex 9.22812 -20 3.64405
    endloop
  endfacet
  facet normal 0 -1 -0
    outer loop
      vertex 11.3719 -20 3.64405
      vertex 9.04408 -20 3.60493
      vertex 11.5559 -20 3.60493
    endloop
  endfacet
  facet normal 0 -1 0
    outer loop
      vertex 6.52812 -20 5.35595
      vertex 8.85592 -20 5.39507
      vertex 6.34408 -20 5.39507
    endloop
  endfacet
  facet normal 0 -1 0
    outer loop
      vertex 6.52812 -20 5.35595
      vertex 8.67188 -20 5.35595
      vertex 8.85592 -20 5.39507
    endloop
  endfacet
  facet normal 0 -1 0
    outer loop
      vertex 6.7 -20 5.27942
      vertex 8.67188 -20 5.35595
      vertex 6.52812 -20 5.35595
    endloop
  endfacet
  facet normal 0 -1 0
    outer loop
      vertex 6.7 -20 5.27942
      vertex 8.5 -20 5.27942
      vertex 8.67188 -20 5.35595
    endloop
  endfacet
  facet normal 0 -1 0
    outer loop
      vertex 6.85222 -20 5.16883
      vertex 8.5 -20 5.27942
      vertex 6.7 -20 5.27942
    endloop
  endfacet
  facet normal 0 -1 0
    outer loop
      vertex 6.85222 -20 5.16883
      vertex 8.34778 -20 5.16883
      vertex 8.5 -20 5.27942
    endloop
  endfacet
  facet normal 0 -1 0
    outer loop
      vertex 6.97812 -20 5.02901
      vertex 8.34778 -20 5.16883
      vertex 6.85222 -20 5.16883
    endloop
  endfacet
  facet normal 0 -1 0
    outer loop
      vertex 6.97812 -20 5.02901
      vertex 8.22188 -20 5.02901
      vertex 8.34778 -20 5.16883
    endloop
  endfacet
  facet normal 0 -1 0
    outer loop
      vertex 7.07219 -20 4.86606
      vertex 8.22188 -20 5.02901
      vertex 6.97812 -20 5.02901
    endloop
  endfacet
  facet normal 0 -1 0
    outer loop
      vertex 7.07219 -20 4.86606
      vertex 8.12781 -20 4.86606
      vertex 8.22188 -20 5.02901
    endloop
  endfacet
  facet normal 0 -1 0
    outer loop
      vertex 7.13033 -20 4.68712
      vertex 8.12781 -20 4.86606
      vertex 7.07219 -20 4.86606
    endloop
  endfacet
  facet normal 0 -1 0
    outer loop
      vertex 7.13033 -20 4.68712
      vertex 8.06967 -20 4.68712
      vertex 8.12781 -20 4.86606
    endloop
  endfacet
  facet normal 0 -1 0
    outer loop
      vertex 7.15 -20 4.5
      vertex 8.06967 -20 4.68712
      vertex 7.13033 -20 4.68712
    endloop
  endfacet
  facet normal 0 -1 0
    outer loop
      vertex 7.15 -20 4.5
      vertex 8.05 -20 4.5
      vertex 8.06967 -20 4.68712
    endloop
  endfacet
  facet normal 0 -1 0
    outer loop
      vertex 7.13033 -20 4.31288
      vertex 8.05 -20 4.5
      vertex 7.15 -20 4.5
    endloop
  endfacet
  facet normal 0 -1 0
    outer loop
      vertex 7.13033 -20 4.31288
      vertex 8.06967 -20 4.31288
      vertex 8.05 -20 4.5
    endloop
  endfacet
  facet normal 0 -1 0
    outer loop
      vertex 7.07219 -20 4.13394
      vertex 8.06967 -20 4.31288
      vertex 7.13033 -20 4.31288
    endloop
  endfacet
  facet normal 0 -1 0
    outer loop
      vertex 7.07219 -20 4.13394
      vertex 8.12781 -20 4.13394
      vertex 8.06967 -20 4.31288
    endloop
  endfacet
  facet normal 0 -1 0
    outer loop
      vertex 6.97812 -20 3.97099
      vertex 8.12781 -20 4.13394
      vertex 7.07219 -20 4.13394
    endloop
  endfacet
  facet normal 0 -1 0
    outer loop
      vertex 6.97812 -20 3.97099
      vertex 8.22188 -20 3.97099
      vertex 8.12781 -20 4.13394
    endloop
  endfacet
  facet normal 0 -1 0
    outer loop
      vertex 6.85222 -20 3.83117
      vertex 8.22188 -20 3.97099
      vertex 6.97812 -20 3.97099
    endloop
  endfacet
  facet normal 0 -1 0
    outer loop
      vertex 6.85222 -20 3.83117
      vertex 8.34778 -20 3.83117
      vertex 8.22188 -20 3.97099
    endloop
  endfacet
  facet normal 0 -1 0
    outer loop
      vertex 6.7 -20 3.72058
      vertex 8.34778 -20 3.83117
      vertex 6.85222 -20 3.83117
    endloop
  endfacet
  facet normal 0 -1 0
    outer loop
      vertex 6.7 -20 3.72058
      vertex 8.5 -20 3.72058
      vertex 8.34778 -20 3.83117
    endloop
  endfacet
  facet normal 0 -1 0
    outer loop
      vertex 6.52812 -20 3.64405
      vertex 8.5 -20 3.72058
      vertex 6.7 -20 3.72058
    endloop
  endfacet
  facet normal 0 -1 0
    outer loop
      vertex 6.52812 -20 3.64405
      vertex 8.67188 -20 3.64405
      vertex 8.5 -20 3.72058
    endloop
  endfacet
  facet normal 0 -1 0
    outer loop
      vertex 4.95506 -20 2.95508
      vertex 6.52812 -20 3.64405
      vertex 6.34408 -20 3.60493
    endloop
  endfacet
  facet normal 0 -1 -0
    outer loop
      vertex 6.52812 -20 3.64405
      vertex 4.95506 -20 2.95508
      vertex 8.67188 -20 3.64405
    endloop
  endfacet
  facet normal 0 -1 0
    outer loop
      vertex 6.34408 -20 5.39507
      vertex 4.95506 -20 5.54491
      vertex 6.15592 -20 5.39507
    endloop
  endfacet
  facet normal 0 -1 0
    outer loop
      vertex 4.95506 -20 5.54491
      vertex 5.97188 -20 5.35595
      vertex 6.15592 -20 5.39507
    endloop
  endfacet
  facet normal 0 -1 0
    outer loop
      vertex 4.95506 -20 5.54491
      vertex 5.8 -20 5.27942
      vertex 5.97188 -20 5.35595
    endloop
  endfacet
  facet normal 0 -1 0
    outer loop
      vertex 4.95506 -20 5.54491
      vertex 5.64778 -20 5.16883
      vertex 5.8 -20 5.27942
    endloop
  endfacet
  facet normal 0 -1 0
    outer loop
      vertex 4.95506 -20 5.54491
      vertex 5.52188 -20 5.02901
      vertex 5.64778 -20 5.16883
    endloop
  endfacet
  facet normal 0 -1 0
    outer loop
      vertex 4.95506 -20 5.54491
      vertex 5.42781 -20 4.86606
      vertex 5.52188 -20 5.02901
    endloop
  endfacet
  facet normal 0 -1 0
    outer loop
      vertex 4.95506 -20 5.54491
      vertex 5.36967 -20 4.68712
      vertex 5.42781 -20 4.86606
    endloop
  endfacet
  facet normal 0 -1 0
    outer loop
      vertex 4.95506 -20 5.54491
      vertex 5.35 -20 4.5
      vertex 5.36967 -20 4.68712
    endloop
  endfacet
  facet normal 0 -1 0
    outer loop
      vertex 4.95506 -20 2.95508
      vertex 5.35 -20 4.5
      vertex 4.95506 -20 5.54491
    endloop
  endfacet
  facet normal 0 -1 -0
    outer loop
      vertex 5.35 -20 4.5
      vertex 4.95506 -20 2.95508
      vertex 5.36967 -20 4.31288
    endloop
  endfacet
  facet normal 0 -1 0
    outer loop
      vertex 4.95506 -20 2.95508
      vertex 6.34408 -20 3.60493
      vertex 6.15592 -20 3.60493
    endloop
  endfacet
  facet normal 0 -1 -0
    outer loop
      vertex 8.67188 -20 3.64405
      vertex 4.95506 -20 2.95508
      vertex 8.85592 -20 3.60493
    endloop
  endfacet
  facet normal 0 -1 -0
    outer loop
      vertex 8.85592 -20 3.60493
      vertex 4.95506 -20 2.95508
      vertex 9.04408 -20 3.60493
    endloop
  endfacet
  facet normal 0 -1 -0
    outer loop
      vertex 9.04408 -20 3.60493
      vertex 4.95506 -20 2.95508
      vertex 11.5559 -20 3.60493
    endloop
  endfacet
  facet normal 0 -1 0
    outer loop
      vertex 15.8438 -20 2.95508
      vertex 11.5559 -20 3.60493
      vertex 4.95506 -20 2.95508
    endloop
  endfacet
  facet normal 0 -1 0
    outer loop
      vertex 11.5559 -20 3.60493
      vertex 15.8438 -20 2.95508
      vertex 11.7441 -20 3.60493
    endloop
  endfacet
  facet normal 0 -1 0
    outer loop
      vertex 11.7441 -20 3.60493
      vertex 15.8438 -20 2.95508
      vertex 14.2559 -20 3.60493
    endloop
  endfacet
  facet normal 0 -1 -0
    outer loop
      vertex 5.97188 -20 3.64405
      vertex 4.95506 -20 2.95508
      vertex 6.15592 -20 3.60493
    endloop
  endfacet
  facet normal 0 -1 -0
    outer loop
      vertex 5.8 -20 3.72058
      vertex 4.95506 -20 2.95508
      vertex 5.97188 -20 3.64405
    endloop
  endfacet
  facet normal 0 -1 -0
    outer loop
      vertex 5.64778 -20 3.83117
      vertex 4.95506 -20 2.95508
      vertex 5.8 -20 3.72058
    endloop
  endfacet
  facet normal 0 -1 -0
    outer loop
      vertex 5.52188 -20 3.97099
      vertex 4.95506 -20 2.95508
      vertex 5.64778 -20 3.83117
    endloop
  endfacet
  facet normal 0 -1 -0
    outer loop
      vertex 5.42781 -20 4.13394
      vertex 4.95506 -20 2.95508
      vertex 5.52188 -20 3.97099
    endloop
  endfacet
  facet normal 0 -1 -0
    outer loop
      vertex 5.36967 -20 4.31288
      vertex 4.95506 -20 2.95508
      vertex 5.42781 -20 4.13394
    endloop
  endfacet
  facet normal 0 -1 0
    outer loop
      vertex 8.85592 -20 5.39507
      vertex 4.95506 -20 5.54491
      vertex 6.34408 -20 5.39507
    endloop
  endfacet
  facet normal 0 -1 0
    outer loop
      vertex 9.04408 -20 5.39507
      vertex 4.95506 -20 5.54491
      vertex 8.85592 -20 5.39507
    endloop
  endfacet
  facet normal 0 -1 0
    outer loop
      vertex 4.95506 -20 5.54491
      vertex 9.04408 -20 5.39507
      vertex 15.8438 -20 5.54491
    endloop
  endfacet
  facet normal 0 -1 0
    outer loop
      vertex 11.5559 -20 5.39507
      vertex 15.8438 -20 5.54491
      vertex 9.04408 -20 5.39507
    endloop
  endfacet
  facet normal 0 -1 0
    outer loop
      vertex 11.7441 -20 5.39507
      vertex 15.8438 -20 5.54491
      vertex 11.5559 -20 5.39507
    endloop
  endfacet
  facet normal 0 -1 0
    outer loop
      vertex 14.2559 -20 5.39507
      vertex 15.8438 -20 5.54491
      vertex 11.7441 -20 5.39507
    endloop
  endfacet
  facet normal 0 -1 0
    outer loop
      vertex 14.4441 -20 5.39507
      vertex 15.8438 -20 5.54491
      vertex 14.2559 -20 5.39507
    endloop
  endfacet
  facet normal 0 -1 0
    outer loop
      vertex 14.6281 -20 5.35595
      vertex 15.8438 -20 5.54491
      vertex 14.4441 -20 5.39507
    endloop
  endfacet
  facet normal 0 -1 0
    outer loop
      vertex 14.8 -20 5.27942
      vertex 15.8438 -20 5.54491
      vertex 14.6281 -20 5.35595
    endloop
  endfacet
  facet normal 0 -1 0
    outer loop
      vertex 14.9522 -20 5.16883
      vertex 15.8438 -20 5.54491
      vertex 14.8 -20 5.27942
    endloop
  endfacet
  facet normal 0 -1 0
    outer loop
      vertex 15.0781 -20 5.02901
      vertex 15.8438 -20 5.54491
      vertex 14.9522 -20 5.16883
    endloop
  endfacet
  facet normal 0 -1 0
    outer loop
      vertex 15.1722 -20 4.86606
      vertex 15.8438 -20 5.54491
      vertex 15.0781 -20 5.02901
    endloop
  endfacet
  facet normal 0 -1 0
    outer loop
      vertex 15.2303 -20 4.68712
      vertex 15.8438 -20 5.54491
      vertex 15.1722 -20 4.86606
    endloop
  endfacet
  facet normal 0 -1 0
    outer loop
      vertex 15.25 -20 4.5
      vertex 15.8438 -20 5.54491
      vertex 15.2303 -20 4.68712
    endloop
  endfacet
  facet normal 0 -1 0
    outer loop
      vertex 15.8438 -20 2.95508
      vertex 15.25 -20 4.5
      vertex 15.2303 -20 4.31288
    endloop
  endfacet
  facet normal 0 -1 0
    outer loop
      vertex 15.8438 -20 2.95508
      vertex 15.2303 -20 4.31288
      vertex 15.1722 -20 4.13394
    endloop
  endfacet
  facet normal 0 -1 0
    outer loop
      vertex 15.25 -20 4.5
      vertex 15.8438 -20 2.95508
      vertex 15.8438 -20 5.54491
    endloop
  endfacet
  facet normal 0 -1 0
    outer loop
      vertex 15.0781 -20 3.97099
      vertex 15.8438 -20 2.95508
      vertex 15.1722 -20 4.13394
    endloop
  endfacet
  facet normal 0 -1 0
    outer loop
      vertex 14.9522 -20 3.83117
      vertex 15.8438 -20 2.95508
      vertex 15.0781 -20 3.97099
    endloop
  endfacet
  facet normal 0 -1 0
    outer loop
      vertex 14.8 -20 3.72058
      vertex 15.8438 -20 2.95508
      vertex 14.9522 -20 3.83117
    endloop
  endfacet
  facet normal 0 -1 0
    outer loop
      vertex 14.6281 -20 3.64405
      vertex 15.8438 -20 2.95508
      vertex 14.8 -20 3.72058
    endloop
  endfacet
  facet normal 0 -1 0
    outer loop
      vertex 14.4441 -20 3.60493
      vertex 15.8438 -20 2.95508
      vertex 14.6281 -20 3.64405
    endloop
  endfacet
  facet normal 0 -1 0
    outer loop
      vertex 14.2559 -20 3.60493
      vertex 15.8438 -20 2.95508
      vertex 14.4441 -20 3.60493
    endloop
  endfacet
  facet normal -1 0 0
    outer loop
      vertex 17.6445 -20 2.05469
      vertex 17.6445 -18 6.4453
      vertex 17.6445 -18 2.05469
    endloop
  endfacet
  facet normal -1 -0 0
    outer loop
      vertex 17.6445 -18 6.4453
      vertex 17.6445 -20 2.05469
      vertex 17.6445 -20 6.4453
    endloop
  endfacet
  facet normal -0.70634 0 -0.707873
    outer loop
      vertex 16.7441 -20 7.34375
      vertex 17.6445 -18 6.4453
      vertex 17.6445 -20 6.4453
    endloop
  endfacet
  facet normal -0.70634 0 -0.707873
    outer loop
      vertex 17.6445 -18 6.4453
      vertex 16.7441 -20 7.34375
      vertex 16.7441 -18 7.34375
    endloop
  endfacet
  facet normal 0 0 -1
    outer loop
      vertex 4.05469 -20 7.34375
      vertex 16.7441 -18 7.34375
      vertex 16.7441 -20 7.34375
    endloop
  endfacet
  facet normal -0 0 -1
    outer loop
      vertex 16.7441 -18 7.34375
      vertex 4.05469 -20 7.34375
      vertex 4.05469 -18 7.34375
    endloop
  endfacet
  facet normal 0.707111 0 -0.707103
    outer loop
      vertex 4.05469 -20 7.34375
      vertex 3.15625 -18 6.4453
      vertex 4.05469 -18 7.34375
    endloop
  endfacet
  facet normal 0.707111 0 -0.707103
    outer loop
      vertex 3.15625 -18 6.4453
      vertex 4.05469 -20 7.34375
      vertex 3.15625 -20 6.4453
    endloop
  endfacet
  facet normal 1 -0 0
    outer loop
      vertex 3.15625 -20 6.4453
      vertex 3.15625 -18 2.05469
      vertex 3.15625 -18 6.4453
    endloop
  endfacet
  facet normal 1 0 0
    outer loop
      vertex 3.15625 -18 2.05469
      vertex 3.15625 -20 6.4453
      vertex 3.15625 -20 2.05469
    endloop
  endfacet
  facet normal 0.707107 -0 0.707107
    outer loop
      vertex 3.15625 -20 2.05469
      vertex 4.05469 -18 1.15625
      vertex 3.15625 -18 2.05469
    endloop
  endfacet
  facet normal 0.707107 0 0.707107
    outer loop
      vertex 4.05469 -18 1.15625
      vertex 3.15625 -20 2.05469
      vertex 4.05469 -20 1.15625
    endloop
  endfacet
  facet normal -0 0 1
    outer loop
      vertex 4.05469 -18 1.15625
      vertex 16.7441 -20 1.15625
      vertex 16.7441 -18 1.15625
    endloop
  endfacet
  facet normal 0 0 1
    outer loop
      vertex 16.7441 -20 1.15625
      vertex 4.05469 -18 1.15625
      vertex 4.05469 -20 1.15625
    endloop
  endfacet
  facet normal -0.706336 0 0.707877
    outer loop
      vertex 16.7441 -18 1.15625
      vertex 17.6445 -20 2.05469
      vertex 17.6445 -18 2.05469
    endloop
  endfacet
  facet normal -0.706336 0 0.707877
    outer loop
      vertex 17.6445 -20 2.05469
      vertex 16.7441 -18 1.15625
      vertex 16.7441 -20 1.15625
    endloop
  endfacet
  facet normal -1 0 0
    outer loop
      vertex 4.95506 -20 2.95508
      vertex 4.95506 -18 5.54491
      vertex 4.95506 -18 2.95508
    endloop
  endfacet
  facet normal -1 -0 0
    outer loop
      vertex 4.95506 -18 5.54491
      vertex 4.95506 -20 2.95508
      vertex 4.95506 -20 5.54491
    endloop
  endfacet
  facet normal -0 0 1
    outer loop
      vertex 4.95506 -18 5.54491
      vertex 15.8438 -20 5.54491
      vertex 15.8438 -18 5.54491
    endloop
  endfacet
  facet normal 0 0 1
    outer loop
      vertex 15.8438 -20 5.54491
      vertex 4.95506 -18 5.54491
      vertex 4.95506 -20 5.54491
    endloop
  endfacet
  facet normal 1 -0 0
    outer loop
      vertex 15.8438 -20 5.54491
      vertex 15.8438 -18 2.95508
      vertex 15.8438 -18 5.54491
    endloop
  endfacet
  facet normal 1 0 0
    outer loop
      vertex 15.8438 -18 2.95508
      vertex 15.8438 -20 5.54491
      vertex 15.8438 -20 2.95508
    endloop
  endfacet
  facet normal 0 0 -1
    outer loop
      vertex 4.95506 -20 2.95508
      vertex 15.8438 -18 2.95508
      vertex 15.8438 -20 2.95508
    endloop
  endfacet
  facet normal -0 0 -1
    outer loop
      vertex 15.8438 -18 2.95508
      vertex 4.95506 -20 2.95508
      vertex 4.95506 -18 2.95508
    endloop
  endfacet
  facet normal -1 0 0
    outer loop
      vertex 0 -20 0
      vertex 0 0 8
      vertex 0 0 0
    endloop
  endfacet
  facet normal -1 -0 0
    outer loop
      vertex 0 0 8
      vertex 0 -20 0
      vertex 0 -20 8
    endloop
  endfacet
  facet normal 1 -0 0
    outer loop
      vertex 22 -20 8
      vertex 22 0 0
      vertex 22 0 8
    endloop
  endfacet
  facet normal 1 0 0
    outer loop
      vertex 22 0 0
      vertex 22 -20 8
      vertex 22 -20 0
    endloop
  endfacet
  facet normal 0 1 0
    outer loop
      vertex 22 0 8
      vertex 18 0 5.7
      vertex 0 0 8
    endloop
  endfacet
  facet normal 0 1 -0
    outer loop
      vertex 22 0 0
      vertex 18 0 5.7
      vertex 22 0 8
    endloop
  endfacet
  facet normal 0 1 0
    outer loop
      vertex 18 0 5.7
      vertex 22 0 0
      vertex 18 0 0
    endloop
  endfacet
  facet normal 0 1 -0
    outer loop
      vertex 4 0 5.7
      vertex 0 0 8
      vertex 18 0 5.7
    endloop
  endfacet
  facet normal 0 1 0
    outer loop
      vertex 0 0 0
      vertex 4 0 5.7
      vertex 4 0 0
    endloop
  endfacet
  facet normal 0 1 0
    outer loop
      vertex 4 0 5.7
      vertex 0 0 0
      vertex 0 0 8
    endloop
  endfacet
  facet normal -0 0 1
    outer loop
      vertex 0 0 8
      vertex 22 -20 8
      vertex 22 0 8
    endloop
  endfacet
  facet normal 0 0 1
    outer loop
      vertex 22 -20 8
      vertex 0 0 8
      vertex 0 -20 8
    endloop
  endfacet
endsolid OpenSCAD_Model
