<?xml version="1.0" encoding="UTF-8" standalone="no"?>
<!-- Created with Inkscape (http://www.inkscape.org/) -->

<svg
   xmlns:dc="http://purl.org/dc/elements/1.1/"
   xmlns:cc="http://creativecommons.org/ns#"
   xmlns:rdf="http://www.w3.org/1999/02/22-rdf-syntax-ns#"
   xmlns:svg="http://www.w3.org/2000/svg"
   xmlns="http://www.w3.org/2000/svg"
   xmlns:sodipodi="http://sodipodi.sourceforge.net/DTD/sodipodi-0.dtd"
   xmlns:inkscape="http://www.inkscape.org/namespaces/inkscape"
   version="1.1"
   id="svg2"
   width="62.407558"
   height="22.676769"
   viewBox="0 0 62.407559 22.676769"
   sodipodi:docname="kill.svg"
   inkscape:version="0.92.5 (2060ec1f9f, 2020-04-08)">
  <metadata
     id="metadata8">
    <rdf:RDF>
      <cc:Work
         rdf:about="">
        <dc:format>image/svg+xml</dc:format>
        <dc:type
           rdf:resource="http://purl.org/dc/dcmitype/StillImage" />
        <dc:title></dc:title>
      </cc:Work>
    </rdf:RDF>
  </metadata>
  <defs
     id="defs6" />
  <sodipodi:namedview
     pagecolor="#ffffff"
     bordercolor="#666666"
     borderopacity="1"
     objecttolerance="10"
     gridtolerance="10"
     guidetolerance="10"
     inkscape:pageopacity="0"
     inkscape:pageshadow="2"
     inkscape:window-width="1920"
     inkscape:window-height="1049"
     id="namedview4"
     showgrid="false"
     inkscape:zoom="9.2144849"
     inkscape:cx="24.346565"
     inkscape:cy="23.189522"
     inkscape:window-x="1920"
     inkscape:window-y="0"
     inkscape:window-maximized="1"
     inkscape:current-layer="svg2"
     fit-margin-top="0"
     fit-margin-left="0"
     fit-margin-right="0"
     fit-margin-bottom="0" />
  <path
     style="fill:#000000;stroke-width:0.14725177"
     d="M 53.53532,20.72569 C 53.7656,17.18702 53.60922,15.4247 52.952,14.15112 52.62181,13.5113 52.56263,13.25271 52.64866,12.82586 52.70746,12.53417 52.7819,9.52903 52.81411,6.14776 L 52.87271,0 h 1.54151 1.5415 l 0.002,6.29501 c 10e-4,3.46226 0.0443,6.45298 0.096,6.64605 0.0702,0.26223 0.0417,0.33329 -0.11245,0.28092 -0.11352,-0.0386 -0.49755,0.15136 -0.85339,0.42204 -0.35585,0.27068 -0.72804,0.49215 -0.82708,0.49215 -0.13935,0 -0.16496,0.9661 -0.11322,4.2703 l 0.0669,4.2703 h -0.40301 -0.40301 l 0.12696,-1.95108 z M 43.936,18.88338 c 0.0312,-2.46126 0.0994,-3.60194 0.23027,-3.8464 0.22787,-0.42577 0.0853,-1.83243 -0.21065,-2.07802 -0.11071,-0.0919 -0.45178,-0.14622 -0.75795,-0.12075 -0.44943,0.0374 -0.57622,0.11722 -0.65823,0.41445 -0.18904,0.68511 -0.14038,1.99275 0.0853,2.29107 0.26427,0.34939 0.31762,2.42099 0.0624,2.42099 -0.0961,0 -0.12877,-0.13727 -0.0795,-0.33372 0.0461,-0.18355 -0.045,-0.82961 -0.20239,-1.43571 -0.15738,-0.60609 -0.28728,-1.483 -0.28867,-1.94868 -0.002,-0.57404 -0.0613,-0.8467 -0.18505,-0.8467 -0.10039,0 -1.32626,-1.14233 -2.72416,-2.53851 L 36.66574,8.32288 v 2.44876 2.44877 l -0.75303,-0.22075 c -1.03534,-0.3035 -1.38111,-0.13236 -1.57567,0.77988 -0.11199,0.52504 -0.0976,0.85772 0.0594,1.3716 0.26364,0.86317 0.13642,2.99803 -0.24664,4.13884 l -0.27196,0.80989 -0.005,-0.91533 c -0.003,-0.56958 0.0904,-1.1152 0.24739,-1.44447 0.23828,-0.49966 0.23828,-0.56872 0,-1.23958 -0.14806,-0.4169 -0.25232,-1.1434 -0.25232,-1.75826 0,-0.79746 -0.049,-1.04782 -0.20512,-1.04782 -0.11282,0 -0.24534,-0.10481 -0.29451,-0.23292 -0.0492,-0.1281 -0.0894,-3.07682 -0.0894,-6.5527 V 0.58901 h 1.68966 1.68966 l 0.0405,2.31921 0.0405,2.31922 2.36879,-2.31922 2.36881,-2.31921 1.9015,0.005 1.9015,0.005 -3.08286,3.03938 -3.08287,3.03938 3.27378,3.21651 c 1.80057,1.76908 3.23365,3.28142 3.18462,3.36077 -0.049,0.0793 -0.28404,0.14426 -0.52224,0.14426 h -0.43306 l -0.025,1.21483 c -0.0137,0.66815 -0.005,2.68918 0.0192,4.49118 l 0.0442,3.27635 h -0.382 -0.38202 z m 15.87868,-1.0291 c 0.0415,-1.94581 0.0274,-2.05841 -0.36177,-2.88921 -0.22273,-0.47547 -0.40495,-1.04975 -0.40495,-1.27618 0,-0.22643 -0.0497,-0.43378 -0.11044,-0.46077 -0.0607,-0.027 -0.0901,-3.01437 -0.0652,-6.6386 L 58.91752,0 h 1.53775 1.53775 l 0.0129,4.52799 c 0.0154,5.38209 0.0668,6.72766 0.30387,7.94953 0.098,0.50505 0.1273,0.96889 0.0651,1.03077 -0.0622,0.0619 -0.53034,0.0965 -1.04037,0.0769 -1.22243,-0.0469 -1.40368,0.14146 -1.07049,1.11244 0.18127,0.52826 0.2323,1.21689 0.21758,2.93574 l -0.0192,2.24559 h -0.34543 -0.34544 l 0.0432,-2.02471 z M 48.31966,15.91933 c -0.13536,-0.0858 -0.16858,-0.26881 -0.10299,-0.56745 0.14727,-0.67049 -0.43679,-1.77808 -1.0169,-1.9284 -0.38311,-0.0993 -0.44616,-0.18328 -0.43916,-0.58512 0.005,-0.25807 0.0211,-2.42398 0.0368,-4.81314 l 0.0286,-4.34393 h 1.54082 1.54082 l -0.0247,3.57086 c -0.0226,3.27306 0.0284,3.99869 0.40636,5.78353 0.0852,0.4023 0.0438,0.46979 -0.42562,0.69363 -0.74718,0.3563 -1.03016,0.85673 -0.93946,1.66138 0.0772,0.68535 -0.10536,0.845 -0.60464,0.52864 z M 0,6.55227 c 0,10.749666 0,5.374833 0,0 z M 46.82606,1.25164 V 0 h 1.54614 1.54615 V 1.25164 2.50328 H 48.3722 46.82606 Z"
     id="path817"
     inkscape:connector-curvature="0"
     sodipodi:nodetypes="cccccccccccsccccccccccccscccsccccccccccccsscscccccccccccccscccccccccsccccccccccccccccccccccccccccccccccccccccc" />
</svg>
