solid OpenSCAD_Model
  facet normal -1 0 0
    outer loop
      vertex 57.5 -22.285 0.0293884
      vertex 57.5 -20.5789 2.5
      vertex 57.5 -20.5636 1.04761
    endloop
  endfacet
  facet normal -1 0 0
    outer loop
      vertex 57.5 -24.02 2.5
      vertex 57.5 -22.285 0.0293884
      vertex 57.5 -24.02 1.00682
    endloop
  endfacet
  facet normal -1 0 0
    outer loop
      vertex 57.5 -22.285 0.0293884
      vertex 57.5 -24.02 2.5
      vertex 57.5 -20.5789 2.5
    endloop
  endfacet
  facet normal 0 -0.509111 0.860701
    outer loop
      vertex 53.5 -20.5636 1.04761
      vertex 57.5 -22.285 0.0293884
      vertex 57.5 -20.5636 1.04761
    endloop
  endfacet
  facet normal 0 -0.509111 0.860701
    outer loop
      vertex 57.5 -22.285 0.0293884
      vertex 53.5 -20.5636 1.04761
      vertex 53.5 -22.285 0.0293884
    endloop
  endfacet
  facet normal 1 0 0
    outer loop
      vertex 53.5 -20.5789 2.5
      vertex 53.5 -22.285 0.0293884
      vertex 53.5 -20.5636 1.04761
    endloop
  endfacet
  facet normal 1 -0 0
    outer loop
      vertex 53.5 -24.02 2.5
      vertex 53.5 -22.285 0.0293884
      vertex 53.5 -20.5789 2.5
    endloop
  endfacet
  facet normal 1 0 0
    outer loop
      vertex 53.5 -22.285 0.0293884
      vertex 53.5 -24.02 2.5
      vertex 53.5 -24.02 1.00682
    endloop
  endfacet
  facet normal 0 -0.999945 -0.0105338
    outer loop
      vertex 53.5 -20.5636 1.04761
      vertex 57.5 -20.5789 2.5
      vertex 53.5 -20.5789 2.5
    endloop
  endfacet
  facet normal 0 -0.999945 -0.0105338
    outer loop
      vertex 57.5 -20.5789 2.5
      vertex 53.5 -20.5636 1.04761
      vertex 57.5 -20.5636 1.04761
    endloop
  endfacet
  facet normal -0 0.490831 0.871255
    outer loop
      vertex 53.5 -22.285 0.0293884
      vertex 57.5 -24.02 1.00682
      vertex 57.5 -22.285 0.0293884
    endloop
  endfacet
  facet normal 0 0.490831 0.871255
    outer loop
      vertex 57.5 -24.02 1.00682
      vertex 53.5 -22.285 0.0293884
      vertex 53.5 -24.02 1.00682
    endloop
  endfacet
  facet normal -1 0 0
    outer loop
      vertex 67.5 -22.285 0.00938797
      vertex 67.5 -20.5792 2.5
      vertex 67.5 -20.5636 1.02761
    endloop
  endfacet
  facet normal -1 0 0
    outer loop
      vertex 67.5 -24.02 2.5
      vertex 67.5 -22.285 0.00938797
      vertex 67.5 -24.02 0.986816
    endloop
  endfacet
  facet normal -1 0 0
    outer loop
      vertex 67.5 -22.285 0.00938797
      vertex 67.5 -24.02 2.5
      vertex 67.5 -20.5792 2.5
    endloop
  endfacet
  facet normal 0 -0.509111 0.860701
    outer loop
      vertex 63.5 -20.5636 1.02761
      vertex 67.5 -22.285 0.00938797
      vertex 67.5 -20.5636 1.02761
    endloop
  endfacet
  facet normal 0 -0.509111 0.860701
    outer loop
      vertex 67.5 -22.285 0.00938797
      vertex 63.5 -20.5636 1.02761
      vertex 63.5 -22.285 0.00938797
    endloop
  endfacet
  facet normal 1 0 0
    outer loop
      vertex 63.5 -20.5696 1.59747
      vertex 63.5 -22.285 0.00938797
      vertex 63.5 -20.5636 1.02761
    endloop
  endfacet
  facet normal 1 -0 0
    outer loop
      vertex 63.5 -24.02 1.59747
      vertex 63.5 -22.285 0.00938797
      vertex 63.5 -20.5696 1.59747
    endloop
  endfacet
  facet normal 1 0 0
    outer loop
      vertex 63.5 -22.285 0.00938797
      vertex 63.5 -24.02 1.59747
      vertex 63.5 -24.02 0.986816
    endloop
  endfacet
  facet normal 1 0 0
    outer loop
      vertex 63.5 -24.02 1.65253
      vertex 63.5 -20.5792 2.5
      vertex 63.5 -24.02 2.5
    endloop
  endfacet
  facet normal 1 0 0
    outer loop
      vertex 63.5 -20.5792 2.5
      vertex 63.5 -24.02 1.65253
      vertex 63.5 -20.5702 1.65253
    endloop
  endfacet
  facet normal 0.000381762 -0.999944 -0.0106192
    outer loop
      vertex 63.52 -20.5699 1.625
      vertex 63.5 -20.5792 2.5
      vertex 63.5 -20.5702 1.65253
    endloop
  endfacet
  facet normal 0 -0.999944 -0.010628
    outer loop
      vertex 63.5 -20.5792 2.5
      vertex 63.52 -20.5699 1.625
      vertex 67.5 -20.5792 2.5
    endloop
  endfacet
  facet normal -0.000506938 -0.999944 -0.0105283
    outer loop
      vertex 63.5 -20.5636 1.02761
      vertex 63.52 -20.5699 1.625
      vertex 63.5 -20.5696 1.59747
    endloop
  endfacet
  facet normal 0 -0.999944 -0.0105453
    outer loop
      vertex 63.52 -20.5699 1.625
      vertex 63.5 -20.5636 1.02761
      vertex 67.5 -20.5636 1.02761
    endloop
  endfacet
  facet normal -7.37607e-06 -0.999944 -0.0105944
    outer loop
      vertex 63.52 -20.5699 1.625
      vertex 67.5 -20.5636 1.02761
      vertex 67.5 -20.5792 2.5
    endloop
  endfacet
  facet normal -0 0.49083 0.871256
    outer loop
      vertex 63.5 -22.285 0.00938797
      vertex 67.5 -24.02 0.986816
      vertex 67.5 -22.285 0.00938797
    endloop
  endfacet
  facet normal 0 0.49083 0.871256
    outer loop
      vertex 67.5 -24.02 0.986816
      vertex 63.5 -22.285 0.00938797
      vertex 63.5 -24.02 0.986816
    endloop
  endfacet
  facet normal 0.309025 0 0.951054
    outer loop
      vertex 57.9865 -13 0.743322
      vertex 59.6635 -24.02 0.198416
      vertex 59.6635 -13 0.198416
    endloop
  endfacet
  facet normal 0.309025 0 0.951054
    outer loop
      vertex 59.6635 -24.02 0.198416
      vertex 57.9865 -13 0.743322
      vertex 57.9865 -24.02 0.743322
    endloop
  endfacet
  facet normal -0.809028 0 -0.58777
    outer loop
      vertex 60.7 -24.02 1.625
      vertex 60.0643 -13 2.5
      vertex 60.7 -13 1.625
    endloop
  endfacet
  facet normal -0.809028 -0 -0.58777
    outer loop
      vertex 60.0643 -13 2.5
      vertex 60.7 -24.02 1.625
      vertex 60.0643 -24.02 2.5
    endloop
  endfacet
  facet normal 1 -0 0
    outer loop
      vertex 57.9865 -24.02 2.5
      vertex 57.9865 -13 0.743322
      vertex 57.9865 -13 2.5
    endloop
  endfacet
  facet normal 1 0 0
    outer loop
      vertex 57.9865 -13 0.743322
      vertex 57.9865 -24.02 2.5
      vertex 57.9865 -24.02 0.743322
    endloop
  endfacet
  facet normal -0.80901 0 0.587795
    outer loop
      vertex 59.6635 -24.02 0.198416
      vertex 60.7 -13 1.625
      vertex 59.6635 -13 0.198416
    endloop
  endfacet
  facet normal -0.80901 0 0.587795
    outer loop
      vertex 60.7 -13 1.625
      vertex 59.6635 -24.02 0.198416
      vertex 60.7 -24.02 1.625
    endloop
  endfacet
  facet normal 0 1 0
    outer loop
      vertex 69.5 -13 2.5
      vertex 63.52 -13 1.625
      vertex 62.8843 -13 2.5
    endloop
  endfacet
  facet normal 0 1 -0
    outer loop
      vertex 69.5 -13 0
      vertex 63.52 -13 1.625
      vertex 69.5 -13 2.5
    endloop
  endfacet
  facet normal 0 1 0
    outer loop
      vertex 62.4835 -13 0.198416
      vertex 69.5 -13 0
      vertex 59.6635 -13 0.198416
    endloop
  endfacet
  facet normal 0 1 0
    outer loop
      vertex 63.52 -13 1.625
      vertex 69.5 -13 0
      vertex 62.4835 -13 0.198416
    endloop
  endfacet
  facet normal 0 1 0
    outer loop
      vertex 60.8065 -13 2.5
      vertex 60.7 -13 1.625
      vertex 60.0643 -13 2.5
    endloop
  endfacet
  facet normal 0 1 -0
    outer loop
      vertex 60.8065 -13 0.743322
      vertex 60.7 -13 1.625
      vertex 60.8065 -13 2.5
    endloop
  endfacet
  facet normal 0 1 0
    outer loop
      vertex 60.8065 -13 0.743322
      vertex 59.6635 -13 0.198416
      vertex 60.7 -13 1.625
    endloop
  endfacet
  facet normal 0 1 0
    outer loop
      vertex 59.6635 -13 0.198416
      vertex 60.8065 -13 0.743322
      vertex 62.4835 -13 0.198416
    endloop
  endfacet
  facet normal 0 1 -0
    outer loop
      vertex 57.9865 -13 0.743322
      vertex 52 -13 2.5
      vertex 57.9865 -13 2.5
    endloop
  endfacet
  facet normal 0 1 0
    outer loop
      vertex 52 -13 0
      vertex 57.9865 -13 0.743322
      vertex 59.6635 -13 0.198416
    endloop
  endfacet
  facet normal 0 1 0
    outer loop
      vertex 57.9865 -13 0.743322
      vertex 52 -13 0
      vertex 52 -13 2.5
    endloop
  endfacet
  facet normal 0 1 0
    outer loop
      vertex 52 -13 0
      vertex 59.6635 -13 0.198416
      vertex 69.5 -13 0
    endloop
  endfacet
  facet normal 0.309025 0 0.951054
    outer loop
      vertex 60.8065 -13 0.743322
      vertex 62.4835 -24.02 0.198416
      vertex 62.4835 -13 0.198416
    endloop
  endfacet
  facet normal 0.309025 0 0.951054
    outer loop
      vertex 62.4835 -24.02 0.198416
      vertex 60.8065 -13 0.743322
      vertex 60.8065 -24.02 0.743322
    endloop
  endfacet
  facet normal -0.809041 0 -0.587752
    outer loop
      vertex 63.5 -20.5702 1.65253
      vertex 63.52 -13 1.625
      vertex 63.52 -20.5699 1.625
    endloop
  endfacet
  facet normal -0.809028 -1.00275e-07 -0.58777
    outer loop
      vertex 63.52 -13 1.625
      vertex 63.5 -20.5702 1.65253
      vertex 62.8843 -13 2.5
    endloop
  endfacet
  facet normal -0.809027 0 -0.587771
    outer loop
      vertex 62.8843 -24.02 2.5
      vertex 63.5 -20.5702 1.65253
      vertex 63.5 -24.02 1.65253
    endloop
  endfacet
  facet normal -0.809027 0 -0.587771
    outer loop
      vertex 63.5 -20.5702 1.65253
      vertex 62.8843 -24.02 2.5
      vertex 62.8843 -13 2.5
    endloop
  endfacet
  facet normal 1 -0 0
    outer loop
      vertex 60.8065 -24.02 2.5
      vertex 60.8065 -13 0.743322
      vertex 60.8065 -13 2.5
    endloop
  endfacet
  facet normal 1 0 0
    outer loop
      vertex 60.8065 -13 0.743322
      vertex 60.8065 -24.02 2.5
      vertex 60.8065 -24.02 0.743322
    endloop
  endfacet
  facet normal -0.80901 -2.37114e-07 0.587795
    outer loop
      vertex 62.4835 -13 0.198416
      vertex 63.5 -20.5696 1.59747
      vertex 63.52 -13 1.625
    endloop
  endfacet
  facet normal -0.809009 0 0.587796
    outer loop
      vertex 62.4835 -24.02 0.198416
      vertex 63.5 -20.5696 1.59747
      vertex 62.4835 -13 0.198416
    endloop
  endfacet
  facet normal -0.809009 0 0.587796
    outer loop
      vertex 63.5 -20.5696 1.59747
      vertex 62.4835 -24.02 0.198416
      vertex 63.5 -24.02 1.59747
    endloop
  endfacet
  facet normal -0.809041 0 0.587752
    outer loop
      vertex 63.52 -13 1.625
      vertex 63.5 -20.5696 1.59747
      vertex 63.52 -20.5699 1.625
    endloop
  endfacet
  facet normal 0.98188 0 0.189502
    outer loop
      vertex 55.5109 -16.7645 0.200001
      vertex 55.5495 -17.2169 0
      vertex 55.5495 -16.7831 0
    endloop
  endfacet
  facet normal 0.98188 0 0.189502
    outer loop
      vertex 55.5495 -17.2169 0
      vertex 55.5109 -16.7645 0.200001
      vertex 55.5109 -17.2355 0.200001
    endloop
  endfacet
  facet normal 0.98188 0 0.189503
    outer loop
      vertex 55.0669 -16.5506 2.5
      vertex 55.2599 -17.3564 1.5
      vertex 55.2599 -16.6436 1.5
    endloop
  endfacet
  facet normal 0.98188 0 0.189503
    outer loop
      vertex 55.2599 -17.3564 1.5
      vertex 55.0669 -16.5506 2.5
      vertex 55.0669 -17.4494 2.5
    endloop
  endfacet
  facet normal -0.218044 0.957411 0.189262
    outer loop
      vertex 55.9275 -17.5182 0.200001
      vertex 55.8887 -17.4875 0
      vertex 55.8792 -17.5292 0.200001
    endloop
  endfacet
  facet normal -0.218447 0.95727 0.189511
    outer loop
      vertex 56.1798 -17.7181 1.5
      vertex 55.7695 -18.0097 2.5
      vertex 56.3738 -17.8718 2.5
    endloop
  endfacet
  facet normal -0.218446 0.95727 0.189511
    outer loop
      vertex 55.8209 -17.8 1.5
      vertex 55.7695 -18.0097 2.5
      vertex 56.1798 -17.7181 1.5
    endloop
  endfacet
  facet normal -0.216278 0.957722 0.189718
    outer loop
      vertex 55.7695 -18.0097 2.5
      vertex 55.8209 -17.8 1.5
      vertex 55.8174 -17.8 1.49601
    endloop
  endfacet
  facet normal 0 0 -1
    outer loop
      vertex 69.5 -24.02 0
      vertex 66.5 -17 0
      vertex 69.5 -13 0
    endloop
  endfacet
  facet normal 0 0 -1
    outer loop
      vertex 69.5 -24.02 0
      vertex 66.3117 -17.3909 0
      vertex 66.5 -17 0
    endloop
  endfacet
  facet normal 0 0 -1
    outer loop
      vertex 69.5 -24.02 0
      vertex 65.8887 -17.4875 0
      vertex 66.3117 -17.3909 0
    endloop
  endfacet
  facet normal 0 0 -1
    outer loop
      vertex 56.3117 -17.3909 0
      vertex 65.8887 -17.4875 0
      vertex 69.5 -24.02 0
    endloop
  endfacet
  facet normal 0 0 -1
    outer loop
      vertex 65.5495 -17.2169 0
      vertex 56.5 -17 0
      vertex 65.5495 -16.7831 0
    endloop
  endfacet
  facet normal 0 0 -1
    outer loop
      vertex 65.8887 -17.4875 0
      vertex 56.3117 -17.3909 0
      vertex 65.5495 -17.2169 0
    endloop
  endfacet
  facet normal -0 0 -1
    outer loop
      vertex 65.5495 -17.2169 0
      vertex 56.3117 -17.3909 0
      vertex 56.5 -17 0
    endloop
  endfacet
  facet normal 0 0 -1
    outer loop
      vertex 52 -24.02 0
      vertex 56.3117 -17.3909 0
      vertex 69.5 -24.02 0
    endloop
  endfacet
  facet normal 0 0 -1
    outer loop
      vertex 52 -13 0
      vertex 55.5495 -17.2169 0
      vertex 52 -24.02 0
    endloop
  endfacet
  facet normal -0 0 -1
    outer loop
      vertex 55.8887 -17.4875 0
      vertex 52 -24.02 0
      vertex 55.5495 -17.2169 0
    endloop
  endfacet
  facet normal 0 0 -1
    outer loop
      vertex 56.3117 -17.3909 0
      vertex 52 -24.02 0
      vertex 55.8887 -17.4875 0
    endloop
  endfacet
  facet normal 0 0 -1
    outer loop
      vertex 66.3117 -16.6091 0
      vertex 69.5 -13 0
      vertex 66.5 -17 0
    endloop
  endfacet
  facet normal 0 0 -1
    outer loop
      vertex 65.8887 -16.5125 0
      vertex 69.5 -13 0
      vertex 66.3117 -16.6091 0
    endloop
  endfacet
  facet normal 0 0 -1
    outer loop
      vertex 56.3117 -16.6091 0
      vertex 65.8887 -16.5125 0
      vertex 65.5495 -16.7831 0
    endloop
  endfacet
  facet normal 0 0 -1
    outer loop
      vertex 56.3117 -16.6091 0
      vertex 65.5495 -16.7831 0
      vertex 56.5 -17 0
    endloop
  endfacet
  facet normal -0 0 -1
    outer loop
      vertex 65.8887 -16.5125 0
      vertex 56.3117 -16.6091 0
      vertex 69.5 -13 0
    endloop
  endfacet
  facet normal 0 0 -1
    outer loop
      vertex 52 -13 0
      vertex 56.3117 -16.6091 0
      vertex 55.8887 -16.5125 0
    endloop
  endfacet
  facet normal 0 0 -1
    outer loop
      vertex 56.3117 -16.6091 0
      vertex 52 -13 0
      vertex 69.5 -13 0
    endloop
  endfacet
  facet normal 0 0 -1
    outer loop
      vertex 55.5495 -16.7831 0
      vertex 52 -13 0
      vertex 55.8887 -16.5125 0
    endloop
  endfacet
  facet normal 0 0 -1
    outer loop
      vertex 55.5495 -17.2169 0
      vertex 52 -13 0
      vertex 55.5495 -16.7831 0
    endloop
  endfacet
  facet normal -0.884607 0.426123 0.189448
    outer loop
      vertex 56.3117 -17.3909 0
      vertex 56.5213 -17.0447 0.200001
      vertex 56.5 -17 0
    endloop
  endfacet
  facet normal -0.884628 0.425889 0.189876
    outer loop
      vertex 56.5213 -17.0447 0.200001
      vertex 56.3117 -17.3909 0
      vertex 56.3385 -17.4244 0.200001
    endloop
  endfacet
  facet normal -0.884623 0.426036 0.189566
    outer loop
      vertex 56.5122 -17.6422 1.5
      vertex 56.7668 -17.5585 2.5
      vertex 56.6601 -17.3351 1.5
    endloop
  endfacet
  facet normal -0.884657 0.425959 0.189581
    outer loop
      vertex 56.7668 -17.5585 2.5
      vertex 56.5122 -17.6422 1.5
      vertex 56.6458 -17.8098 2.5
    endloop
  endfacet
  facet normal -0.884556 -0.426099 0.189736
    outer loop
      vertex 56.5429 -17 0.200001
      vertex 56.3117 -16.6091 0
      vertex 56.5 -17 0
    endloop
  endfacet
  facet normal -0.88456 -0.426023 0.189889
    outer loop
      vertex 56.3117 -16.6091 0
      vertex 56.5429 -17 0.200001
      vertex 56.3385 -16.5756 0.200001
    endloop
  endfacet
  facet normal -0.884754 -0.425756 0.189585
    outer loop
      vertex 56.5806 -16.5 1.5
      vertex 56.6458 -16.1902 2.5
      vertex 56.3987 -16.5 0.651111
    endloop
  endfacet
  facet normal -0.884622 -0.426034 0.189575
    outer loop
      vertex 57.0357 -17 2.5
      vertex 56.5806 -16.5 1.5
      vertex 56.8214 -17 1.5
    endloop
  endfacet
  facet normal -0.884654 -0.425941 0.189636
    outer loop
      vertex 56.5806 -16.5 1.5
      vertex 57.0357 -17 2.5
      vertex 56.6458 -16.1902 2.5
    endloop
  endfacet
  facet normal 0.612371 0.767613 0.189134
    outer loop
      vertex 55.5495 -17.2169 0
      vertex 55.8792 -17.5292 0.200001
      vertex 55.8887 -17.4875 0
    endloop
  endfacet
  facet normal 0.612176 0.767669 0.189542
    outer loop
      vertex 55.8792 -17.5292 0.200001
      vertex 55.5495 -17.2169 0
      vertex 55.5109 -17.2355 0.200001
    endloop
  endfacet
  facet normal 0.612155 0.767678 0.18957
    outer loop
      vertex 55.2599 -17.3564 1.5
      vertex 55.7695 -18.0097 2.5
      vertex 55.8162 -17.8 1.5
    endloop
  endfacet
  facet normal 0.625221 0.757457 0.188036
    outer loop
      vertex 55.8162 -17.8 1.5
      vertex 55.7695 -18.0097 2.5
      vertex 55.8174 -17.8 1.49601
    endloop
  endfacet
  facet normal 0.612184 0.767661 0.189544
    outer loop
      vertex 55.7695 -18.0097 2.5
      vertex 55.2599 -17.3564 1.5
      vertex 55.0669 -17.4494 2.5
    endloop
  endfacet
  facet normal -0.884052 0.427193 0.189628
    outer loop
      vertex 56.5213 -17.0447 0.200001
      vertex 56.5429 -17 0.200001
      vertex 56.5 -17 0
    endloop
  endfacet
  facet normal -0.884706 0.425852 0.189592
    outer loop
      vertex 56.6601 -17.3351 1.5
      vertex 57.0357 -17 2.5
      vertex 56.8214 -17 1.5
    endloop
  endfacet
  facet normal -0.884672 0.425941 0.18955
    outer loop
      vertex 57.0357 -17 2.5
      vertex 56.6601 -17.3351 1.5
      vertex 56.7668 -17.5585 2.5
    endloop
  endfacet
  facet normal -0.218466 0.957246 0.189612
    outer loop
      vertex 56.3117 -17.3909 0
      vertex 55.9275 -17.5182 0.200001
      vertex 56.3385 -17.4244 0.200001
    endloop
  endfacet
  facet normal -0.218609 0.957265 0.18935
    outer loop
      vertex 55.9275 -17.5182 0.200001
      vertex 56.3117 -17.3909 0
      vertex 55.8887 -17.4875 0
    endloop
  endfacet
  facet normal -0.21821 0.957307 0.189598
    outer loop
      vertex 56.5122 -17.6422 1.5
      vertex 56.3738 -17.8718 2.5
      vertex 56.6458 -17.8098 2.5
    endloop
  endfacet
  facet normal -0.218575 0.957237 0.189531
    outer loop
      vertex 56.3738 -17.8718 2.5
      vertex 56.5122 -17.6422 1.5
      vertex 56.1798 -17.7181 1.5
    endloop
  endfacet
  facet normal 0.612268 -0.767592 0.189553
    outer loop
      vertex 55.5109 -16.7645 0.200001
      vertex 55.5495 -16.7831 0
      vertex 55.8425 -16.5 0.200001
    endloop
  endfacet
  facet normal 0.612123 -0.767712 0.189537
    outer loop
      vertex 55.44 -16.5 1.5
      vertex 55.0669 -16.5506 2.5
      vertex 55.2599 -16.6436 1.5
    endloop
  endfacet
  facet normal 0.612182 -0.767659 0.189562
    outer loop
      vertex 55.0669 -16.5506 2.5
      vertex 55.44 -16.5 1.5
      vertex 55.7695 -15.9903 2.5
    endloop
  endfacet
  facet normal 0.612203 -0.767645 0.189548
    outer loop
      vertex 55.8425 -16.5 0.200001
      vertex 55.7695 -15.9903 2.5
      vertex 55.44 -16.5 1.5
    endloop
  endfacet
  facet normal 0.612677 -0.767283 0.189483
    outer loop
      vertex 55.8425 -16.5 0.200001
      vertex 55.8887 -16.5125 0
      vertex 55.7695 -15.9903 2.5
    endloop
  endfacet
  facet normal 0.612336 -0.76757 0.189422
    outer loop
      vertex 55.8887 -16.5125 0
      vertex 55.8425 -16.5 0.200001
      vertex 55.5495 -16.7831 0
    endloop
  endfacet
  facet normal -0.218446 -0.957265 0.189538
    outer loop
      vertex 55.8887 -16.5125 0
      vertex 56.3738 -16.1282 2.5
      vertex 55.7695 -15.9903 2.5
    endloop
  endfacet
  facet normal -0.218211 -0.957312 0.189571
    outer loop
      vertex 56.3738 -16.1282 2.5
      vertex 56.3987 -16.5 0.651111
      vertex 56.6458 -16.1902 2.5
    endloop
  endfacet
  facet normal -0.218473 -0.957255 0.189556
    outer loop
      vertex 56.3738 -16.1282 2.5
      vertex 56.0073 -16.5 0.200001
      vertex 56.3987 -16.5 0.651111
    endloop
  endfacet
  facet normal -0.218852 -0.95716 0.189601
    outer loop
      vertex 55.8887 -16.5125 0
      vertex 56.0073 -16.5 0.200001
      vertex 56.3738 -16.1282 2.5
    endloop
  endfacet
  facet normal -0.218605 -0.957245 0.189459
    outer loop
      vertex 56.3117 -16.6091 0
      vertex 56.0073 -16.5 0.200001
      vertex 55.8887 -16.5125 0
    endloop
  endfacet
  facet normal -0.2185 -0.957238 0.189615
    outer loop
      vertex 56.0073 -16.5 0.200001
      vertex 56.3117 -16.6091 0
      vertex 56.3385 -16.5756 0.200001
    endloop
  endfacet
  facet normal 0.612268 -0.767592 0.189553
    outer loop
      vertex 65.5109 -16.7645 0.200001
      vertex 65.5495 -16.7831 0
      vertex 65.8425 -16.5 0.200001
    endloop
  endfacet
  facet normal 0.612123 -0.767712 0.189537
    outer loop
      vertex 65.44 -16.5 1.5
      vertex 65.0669 -16.5506 2.5
      vertex 65.2599 -16.6436 1.5
    endloop
  endfacet
  facet normal 0.612182 -0.767659 0.189562
    outer loop
      vertex 65.0669 -16.5506 2.5
      vertex 65.44 -16.5 1.5
      vertex 65.7695 -15.9903 2.5
    endloop
  endfacet
  facet normal 0.612203 -0.767645 0.189548
    outer loop
      vertex 65.8425 -16.5 0.200001
      vertex 65.7695 -15.9903 2.5
      vertex 65.44 -16.5 1.5
    endloop
  endfacet
  facet normal 0.612677 -0.767283 0.189483
    outer loop
      vertex 65.8425 -16.5 0.200001
      vertex 65.8887 -16.5125 0
      vertex 65.7695 -15.9903 2.5
    endloop
  endfacet
  facet normal 0.612336 -0.76757 0.189422
    outer loop
      vertex 65.8887 -16.5125 0
      vertex 65.8425 -16.5 0.200001
      vertex 65.5495 -16.7831 0
    endloop
  endfacet
  facet normal -0.218044 0.957411 0.189262
    outer loop
      vertex 65.9275 -17.5182 0.200001
      vertex 65.8887 -17.4875 0
      vertex 65.8792 -17.5292 0.200001
    endloop
  endfacet
  facet normal -0.218447 0.95727 0.189511
    outer loop
      vertex 66.1798 -17.7181 1.5
      vertex 65.7695 -18.0097 2.5
      vertex 66.3738 -17.8718 2.5
    endloop
  endfacet
  facet normal -0.218446 0.95727 0.189511
    outer loop
      vertex 65.8209 -17.8 1.5
      vertex 65.7695 -18.0097 2.5
      vertex 66.1798 -17.7181 1.5
    endloop
  endfacet
  facet normal -0.216278 0.957722 0.189718
    outer loop
      vertex 65.7695 -18.0097 2.5
      vertex 65.8209 -17.8 1.5
      vertex 65.8174 -17.8 1.49601
    endloop
  endfacet
  facet normal -0.884607 0.426123 0.189448
    outer loop
      vertex 66.3117 -17.3909 0
      vertex 66.5213 -17.0447 0.200001
      vertex 66.5 -17 0
    endloop
  endfacet
  facet normal -0.884628 0.425889 0.189876
    outer loop
      vertex 66.5213 -17.0447 0.200001
      vertex 66.3117 -17.3909 0
      vertex 66.3385 -17.4244 0.200001
    endloop
  endfacet
  facet normal -0.884623 0.426036 0.189566
    outer loop
      vertex 66.5122 -17.6422 1.5
      vertex 66.7668 -17.5585 2.5
      vertex 66.6601 -17.3351 1.5
    endloop
  endfacet
  facet normal -0.884657 0.425959 0.189581
    outer loop
      vertex 66.7668 -17.5585 2.5
      vertex 66.5122 -17.6422 1.5
      vertex 66.6458 -17.8098 2.5
    endloop
  endfacet
  facet normal -0.884556 -0.426099 0.189736
    outer loop
      vertex 66.5429 -17 0.200001
      vertex 66.3117 -16.6091 0
      vertex 66.5 -17 0
    endloop
  endfacet
  facet normal -0.88456 -0.426023 0.189889
    outer loop
      vertex 66.3117 -16.6091 0
      vertex 66.5429 -17 0.200001
      vertex 66.3385 -16.5756 0.200001
    endloop
  endfacet
  facet normal -0.884754 -0.425756 0.189585
    outer loop
      vertex 66.5806 -16.5 1.5
      vertex 66.6458 -16.1902 2.5
      vertex 66.3987 -16.5 0.651111
    endloop
  endfacet
  facet normal -0.884622 -0.426034 0.189575
    outer loop
      vertex 67.0357 -17 2.5
      vertex 66.5806 -16.5 1.5
      vertex 66.8214 -17 1.5
    endloop
  endfacet
  facet normal -0.884654 -0.425941 0.189636
    outer loop
      vertex 66.5806 -16.5 1.5
      vertex 67.0357 -17 2.5
      vertex 66.6458 -16.1902 2.5
    endloop
  endfacet
  facet normal 0.612371 0.767613 0.189134
    outer loop
      vertex 65.5495 -17.2169 0
      vertex 65.8792 -17.5292 0.200001
      vertex 65.8887 -17.4875 0
    endloop
  endfacet
  facet normal 0.612176 0.767669 0.189542
    outer loop
      vertex 65.8792 -17.5292 0.200001
      vertex 65.5495 -17.2169 0
      vertex 65.5109 -17.2355 0.200001
    endloop
  endfacet
  facet normal 0.612155 0.767678 0.18957
    outer loop
      vertex 65.2599 -17.3564 1.5
      vertex 65.7695 -18.0097 2.5
      vertex 65.8162 -17.8 1.5
    endloop
  endfacet
  facet normal 0.625221 0.757457 0.188036
    outer loop
      vertex 65.8162 -17.8 1.5
      vertex 65.7695 -18.0097 2.5
      vertex 65.8174 -17.8 1.49601
    endloop
  endfacet
  facet normal 0.612184 0.767661 0.189544
    outer loop
      vertex 65.7695 -18.0097 2.5
      vertex 65.2599 -17.3564 1.5
      vertex 65.0669 -17.4494 2.5
    endloop
  endfacet
  facet normal -0.884052 0.427193 0.189628
    outer loop
      vertex 66.5213 -17.0447 0.200001
      vertex 66.5429 -17 0.200001
      vertex 66.5 -17 0
    endloop
  endfacet
  facet normal -0.884706 0.425852 0.189592
    outer loop
      vertex 66.6601 -17.3351 1.5
      vertex 67.0357 -17 2.5
      vertex 66.8214 -17 1.5
    endloop
  endfacet
  facet normal -0.884672 0.425941 0.18955
    outer loop
      vertex 67.0357 -17 2.5
      vertex 66.6601 -17.3351 1.5
      vertex 66.7668 -17.5585 2.5
    endloop
  endfacet
  facet normal -0.218466 0.957246 0.189612
    outer loop
      vertex 66.3117 -17.3909 0
      vertex 65.9275 -17.5182 0.200001
      vertex 66.3385 -17.4244 0.200001
    endloop
  endfacet
  facet normal -0.218609 0.957265 0.18935
    outer loop
      vertex 65.9275 -17.5182 0.200001
      vertex 66.3117 -17.3909 0
      vertex 65.8887 -17.4875 0
    endloop
  endfacet
  facet normal -0.21821 0.957307 0.189598
    outer loop
      vertex 66.5122 -17.6422 1.5
      vertex 66.3738 -17.8718 2.5
      vertex 66.6458 -17.8098 2.5
    endloop
  endfacet
  facet normal -0.218575 0.957237 0.189531
    outer loop
      vertex 66.3738 -17.8718 2.5
      vertex 66.5122 -17.6422 1.5
      vertex 66.1798 -17.7181 1.5
    endloop
  endfacet
  facet normal 0.98188 0 0.189502
    outer loop
      vertex 65.5109 -16.7645 0.200001
      vertex 65.5495 -17.2169 0
      vertex 65.5495 -16.7831 0
    endloop
  endfacet
  facet normal 0.98188 0 0.189502
    outer loop
      vertex 65.5495 -17.2169 0
      vertex 65.5109 -16.7645 0.200001
      vertex 65.5109 -17.2355 0.200001
    endloop
  endfacet
  facet normal 0.98188 0 0.189503
    outer loop
      vertex 65.0669 -16.5506 2.5
      vertex 65.2599 -17.3564 1.5
      vertex 65.2599 -16.6436 1.5
    endloop
  endfacet
  facet normal 0.98188 0 0.189503
    outer loop
      vertex 65.2599 -17.3564 1.5
      vertex 65.0669 -16.5506 2.5
      vertex 65.0669 -17.4494 2.5
    endloop
  endfacet
  facet normal -0.218446 -0.957265 0.189538
    outer loop
      vertex 65.8887 -16.5125 0
      vertex 66.3738 -16.1282 2.5
      vertex 65.7695 -15.9903 2.5
    endloop
  endfacet
  facet normal -0.218211 -0.957312 0.189571
    outer loop
      vertex 66.3738 -16.1282 2.5
      vertex 66.3987 -16.5 0.651111
      vertex 66.6458 -16.1902 2.5
    endloop
  endfacet
  facet normal -0.218473 -0.957255 0.189556
    outer loop
      vertex 66.3738 -16.1282 2.5
      vertex 66.0073 -16.5 0.200001
      vertex 66.3987 -16.5 0.651111
    endloop
  endfacet
  facet normal -0.218852 -0.95716 0.189601
    outer loop
      vertex 65.8887 -16.5125 0
      vertex 66.0073 -16.5 0.200001
      vertex 66.3738 -16.1282 2.5
    endloop
  endfacet
  facet normal -0.218605 -0.957245 0.189459
    outer loop
      vertex 66.3117 -16.6091 0
      vertex 66.0073 -16.5 0.200001
      vertex 65.8887 -16.5125 0
    endloop
  endfacet
  facet normal -0.2185 -0.957238 0.189615
    outer loop
      vertex 66.0073 -16.5 0.200001
      vertex 66.3117 -16.6091 0
      vertex 66.3385 -16.5756 0.200001
    endloop
  endfacet
  facet normal 0 0 -1
    outer loop
      vertex 57 -17.8 1.5
      vertex 56.8214 -17 1.5
      vertex 57 -16.5 1.5
    endloop
  endfacet
  facet normal 0 0 -1
    outer loop
      vertex 57 -17.8 1.5
      vertex 56.6601 -17.3351 1.5
      vertex 56.8214 -17 1.5
    endloop
  endfacet
  facet normal 0 0 -1
    outer loop
      vertex 57 -17.8 1.5
      vertex 56.5122 -17.6422 1.5
      vertex 56.6601 -17.3351 1.5
    endloop
  endfacet
  facet normal 0 0 -1
    outer loop
      vertex 57 -17.8 1.5
      vertex 56.1798 -17.7181 1.5
      vertex 56.5122 -17.6422 1.5
    endloop
  endfacet
  facet normal 0 -0 -1
    outer loop
      vertex 56.1798 -17.7181 1.5
      vertex 57 -17.8 1.5
      vertex 55.8209 -17.8 1.5
    endloop
  endfacet
  facet normal -0 0 -1
    outer loop
      vertex 57 -16.5 1.5
      vertex 56.8214 -17 1.5
      vertex 56.5806 -16.5 1.5
    endloop
  endfacet
  facet normal 0 0 -1
    outer loop
      vertex 52 -16.5 1.5
      vertex 55.2599 -17.3564 1.5
      vertex 52 -17.8 1.5
    endloop
  endfacet
  facet normal 0 0 -1
    outer loop
      vertex 52 -17.8 1.5
      vertex 55.2599 -17.3564 1.5
      vertex 55.8162 -17.8 1.5
    endloop
  endfacet
  facet normal 0 0 -1
    outer loop
      vertex 55.2599 -17.3564 1.5
      vertex 52 -16.5 1.5
      vertex 55.2599 -16.6436 1.5
    endloop
  endfacet
  facet normal 0 0 -1
    outer loop
      vertex 55.2599 -16.6436 1.5
      vertex 52 -16.5 1.5
      vertex 55.44 -16.5 1.5
    endloop
  endfacet
  facet normal 0 1 0
    outer loop
      vertex 57 -17.8 1.5
      vertex 55.8174 -17.8 1.49601
      vertex 55.8209 -17.8 1.5
    endloop
  endfacet
  facet normal -0 1 0
    outer loop
      vertex 55.8174 -17.8 1.49601
      vertex 57 -17.8 1.5
      vertex 57 -17.8 0.200001
    endloop
  endfacet
  facet normal 0 1 0
    outer loop
      vertex 55.8174 -17.8 1.49601
      vertex 52 -17.8 1.5
      vertex 55.8162 -17.8 1.5
    endloop
  endfacet
  facet normal 0 1 0
    outer loop
      vertex 52 -17.8 0.200001
      vertex 55.8174 -17.8 1.49601
      vertex 57 -17.8 0.200001
    endloop
  endfacet
  facet normal 0 1 0
    outer loop
      vertex 55.8174 -17.8 1.49601
      vertex 52 -17.8 0.200001
      vertex 52 -17.8 1.5
    endloop
  endfacet
  facet normal 0 -1 0
    outer loop
      vertex 56.3987 -16.5 0.651111
      vertex 57 -16.5 1.5
      vertex 56.5806 -16.5 1.5
    endloop
  endfacet
  facet normal 0 -1 0
    outer loop
      vertex 56.3987 -16.5 0.651111
      vertex 57 -16.5 0.200001
      vertex 57 -16.5 1.5
    endloop
  endfacet
  facet normal 0 -1 0
    outer loop
      vertex 57 -16.5 0.200001
      vertex 56.3987 -16.5 0.651111
      vertex 56.0073 -16.5 0.200001
    endloop
  endfacet
  facet normal 0 -1 0
    outer loop
      vertex 52 -16.5 0.200001
      vertex 55.44 -16.5 1.5
      vertex 52 -16.5 1.5
    endloop
  endfacet
  facet normal 0 -1 -0
    outer loop
      vertex 55.44 -16.5 1.5
      vertex 52 -16.5 0.200001
      vertex 55.8425 -16.5 0.200001
    endloop
  endfacet
  facet normal -1 0 0
    outer loop
      vertex 57 -17.8 0.200001
      vertex 57 -16.5 1.5
      vertex 57 -16.5 0.200001
    endloop
  endfacet
  facet normal -1 -0 0
    outer loop
      vertex 57 -16.5 1.5
      vertex 57 -17.8 0.200001
      vertex 57 -17.8 1.5
    endloop
  endfacet
  facet normal 0 0 1
    outer loop
      vertex 55.5109 -16.7645 0.200001
      vertex 52 -16.5 0.200001
      vertex 55.5109 -17.2355 0.200001
    endloop
  endfacet
  facet normal -0 0 1
    outer loop
      vertex 52 -16.5 0.200001
      vertex 55.5109 -16.7645 0.200001
      vertex 55.8425 -16.5 0.200001
    endloop
  endfacet
  facet normal 0 0 1
    outer loop
      vertex 57 -16.5 0.200001
      vertex 56.5429 -17 0.200001
      vertex 57 -17.8 0.200001
    endloop
  endfacet
  facet normal 0 0 1
    outer loop
      vertex 57 -16.5 0.200001
      vertex 56.3385 -16.5756 0.200001
      vertex 56.5429 -17 0.200001
    endloop
  endfacet
  facet normal 0 -0 1
    outer loop
      vertex 56.3385 -16.5756 0.200001
      vertex 57 -16.5 0.200001
      vertex 56.0073 -16.5 0.200001
    endloop
  endfacet
  facet normal -0 0 1
    outer loop
      vertex 56.5213 -17.0447 0.200001
      vertex 57 -17.8 0.200001
      vertex 56.5429 -17 0.200001
    endloop
  endfacet
  facet normal -0 0 1
    outer loop
      vertex 56.3385 -17.4244 0.200001
      vertex 57 -17.8 0.200001
      vertex 56.5213 -17.0447 0.200001
    endloop
  endfacet
  facet normal -0 0 1
    outer loop
      vertex 55.9275 -17.5182 0.200001
      vertex 57 -17.8 0.200001
      vertex 56.3385 -17.4244 0.200001
    endloop
  endfacet
  facet normal -0 0 1
    outer loop
      vertex 55.8792 -17.5292 0.200001
      vertex 57 -17.8 0.200001
      vertex 55.9275 -17.5182 0.200001
    endloop
  endfacet
  facet normal 0 0 1
    outer loop
      vertex 52 -17.8 0.200001
      vertex 55.5109 -17.2355 0.200001
      vertex 52 -16.5 0.200001
    endloop
  endfacet
  facet normal 0 0 1
    outer loop
      vertex 55.8792 -17.5292 0.200001
      vertex 52 -17.8 0.200001
      vertex 57 -17.8 0.200001
    endloop
  endfacet
  facet normal 0 0 1
    outer loop
      vertex 55.5109 -17.2355 0.200001
      vertex 52 -17.8 0.200001
      vertex 55.8792 -17.5292 0.200001
    endloop
  endfacet
  facet normal 0 0 -1
    outer loop
      vertex 65 -16.5 1.5
      vertex 65.2599 -17.3564 1.5
      vertex 65 -17.8 1.5
    endloop
  endfacet
  facet normal 0 0 -1
    outer loop
      vertex 65 -17.8 1.5
      vertex 65.2599 -17.3564 1.5
      vertex 65.8162 -17.8 1.5
    endloop
  endfacet
  facet normal 0 0 -1
    outer loop
      vertex 65.2599 -16.6436 1.5
      vertex 65 -16.5 1.5
      vertex 65.44 -16.5 1.5
    endloop
  endfacet
  facet normal 0 0 -1
    outer loop
      vertex 65.2599 -17.3564 1.5
      vertex 65 -16.5 1.5
      vertex 65.2599 -16.6436 1.5
    endloop
  endfacet
  facet normal 0 0 -1
    outer loop
      vertex 69.5 -17.8 1.5
      vertex 66.8214 -17 1.5
      vertex 69.5 -16.5 1.5
    endloop
  endfacet
  facet normal 0 0 -1
    outer loop
      vertex 69.5 -17.8 1.5
      vertex 66.6601 -17.3351 1.5
      vertex 66.8214 -17 1.5
    endloop
  endfacet
  facet normal 0 0 -1
    outer loop
      vertex 69.5 -17.8 1.5
      vertex 66.5122 -17.6422 1.5
      vertex 66.6601 -17.3351 1.5
    endloop
  endfacet
  facet normal 0 0 -1
    outer loop
      vertex 69.5 -17.8 1.5
      vertex 66.1798 -17.7181 1.5
      vertex 66.5122 -17.6422 1.5
    endloop
  endfacet
  facet normal 0 -0 -1
    outer loop
      vertex 66.1798 -17.7181 1.5
      vertex 69.5 -17.8 1.5
      vertex 65.8209 -17.8 1.5
    endloop
  endfacet
  facet normal -0 0 -1
    outer loop
      vertex 69.5 -16.5 1.5
      vertex 66.8214 -17 1.5
      vertex 66.5806 -16.5 1.5
    endloop
  endfacet
  facet normal 0 0 1
    outer loop
      vertex 65.5109 -16.7645 0.200001
      vertex 65 -16.5 0.200001
      vertex 65.5109 -17.2355 0.200001
    endloop
  endfacet
  facet normal -0 0 1
    outer loop
      vertex 65 -16.5 0.200001
      vertex 65.5109 -16.7645 0.200001
      vertex 65.8425 -16.5 0.200001
    endloop
  endfacet
  facet normal 0 0 1
    outer loop
      vertex 69.5 -16.5 0.200001
      vertex 66.5429 -17 0.200001
      vertex 69.5 -17.8 0.200001
    endloop
  endfacet
  facet normal 0 0 1
    outer loop
      vertex 69.5 -16.5 0.200001
      vertex 66.3385 -16.5756 0.200001
      vertex 66.5429 -17 0.200001
    endloop
  endfacet
  facet normal 0 -0 1
    outer loop
      vertex 66.3385 -16.5756 0.200001
      vertex 69.5 -16.5 0.200001
      vertex 66.0073 -16.5 0.200001
    endloop
  endfacet
  facet normal -0 0 1
    outer loop
      vertex 66.5213 -17.0447 0.200001
      vertex 69.5 -17.8 0.200001
      vertex 66.5429 -17 0.200001
    endloop
  endfacet
  facet normal -0 0 1
    outer loop
      vertex 66.3385 -17.4244 0.200001
      vertex 69.5 -17.8 0.200001
      vertex 66.5213 -17.0447 0.200001
    endloop
  endfacet
  facet normal -0 0 1
    outer loop
      vertex 65.9275 -17.5182 0.200001
      vertex 69.5 -17.8 0.200001
      vertex 66.3385 -17.4244 0.200001
    endloop
  endfacet
  facet normal -0 0 1
    outer loop
      vertex 65.8792 -17.5292 0.200001
      vertex 69.5 -17.8 0.200001
      vertex 65.9275 -17.5182 0.200001
    endloop
  endfacet
  facet normal 0 0 1
    outer loop
      vertex 65.8792 -17.5292 0.200001
      vertex 65 -17.8 0.200001
      vertex 69.5 -17.8 0.200001
    endloop
  endfacet
  facet normal 0 0 1
    outer loop
      vertex 65.5109 -17.2355 0.200001
      vertex 65 -17.8 0.200001
      vertex 65.8792 -17.5292 0.200001
    endloop
  endfacet
  facet normal 0 0 1
    outer loop
      vertex 65 -17.8 0.200001
      vertex 65.5109 -17.2355 0.200001
      vertex 65 -16.5 0.200001
    endloop
  endfacet
  facet normal 0 1 -0
    outer loop
      vertex 69.5 -17.8 0.200001
      vertex 65.8209 -17.8 1.5
      vertex 69.5 -17.8 1.5
    endloop
  endfacet
  facet normal 0 1 0
    outer loop
      vertex 65.8209 -17.8 1.5
      vertex 69.5 -17.8 0.200001
      vertex 65.8174 -17.8 1.49601
    endloop
  endfacet
  facet normal 0 1 0
    outer loop
      vertex 65.8174 -17.8 1.49601
      vertex 65 -17.8 1.5
      vertex 65.8162 -17.8 1.5
    endloop
  endfacet
  facet normal 0 1 0
    outer loop
      vertex 65 -17.8 0.200001
      vertex 65.8174 -17.8 1.49601
      vertex 69.5 -17.8 0.200001
    endloop
  endfacet
  facet normal 0 1 0
    outer loop
      vertex 65.8174 -17.8 1.49601
      vertex 65 -17.8 0.200001
      vertex 65 -17.8 1.5
    endloop
  endfacet
  facet normal 0 -1 0
    outer loop
      vertex 65 -16.5 0.200001
      vertex 65.44 -16.5 1.5
      vertex 65 -16.5 1.5
    endloop
  endfacet
  facet normal 0 -1 -0
    outer loop
      vertex 65.44 -16.5 1.5
      vertex 65 -16.5 0.200001
      vertex 65.8425 -16.5 0.200001
    endloop
  endfacet
  facet normal 0 -1 0
    outer loop
      vertex 69.5 -16.5 0.200001
      vertex 66.5806 -16.5 1.5
      vertex 66.3987 -16.5 0.651111
    endloop
  endfacet
  facet normal 0 -1 0
    outer loop
      vertex 69.5 -16.5 0.200001
      vertex 66.3987 -16.5 0.651111
      vertex 66.0073 -16.5 0.200001
    endloop
  endfacet
  facet normal 0 -1 0
    outer loop
      vertex 66.5806 -16.5 1.5
      vertex 69.5 -16.5 0.200001
      vertex 69.5 -16.5 1.5
    endloop
  endfacet
  facet normal 1 -0 0
    outer loop
      vertex 65 -17.8 1.5
      vertex 65 -16.5 0.200001
      vertex 65 -16.5 1.5
    endloop
  endfacet
  facet normal 1 0 0
    outer loop
      vertex 65 -16.5 0.200001
      vertex 65 -17.8 1.5
      vertex 65 -17.8 0.200001
    endloop
  endfacet
  facet normal 0.309025 0 0.951054
    outer loop
      vertex 85.2865 -13 0.743322
      vertex 86.9635 -24 0.198416
      vertex 86.9635 -13 0.198416
    endloop
  endfacet
  facet normal 0.309025 0 0.951054
    outer loop
      vertex 86.9635 -24 0.198416
      vertex 85.2865 -13 0.743322
      vertex 85.2865 -24 0.743322
    endloop
  endfacet
  facet normal -0.809028 0 -0.58777
    outer loop
      vertex 88 -24 1.625
      vertex 87.3643 -13 2.5
      vertex 88 -13 1.625
    endloop
  endfacet
  facet normal -0.809028 -0 -0.58777
    outer loop
      vertex 87.3643 -13 2.5
      vertex 88 -24 1.625
      vertex 87.3643 -24 2.5
    endloop
  endfacet
  facet normal 1 -0 0
    outer loop
      vertex 85.2865 -24 2.5
      vertex 85.2865 -13 0.743322
      vertex 85.2865 -13 2.5
    endloop
  endfacet
  facet normal 1 0 0
    outer loop
      vertex 85.2865 -13 0.743322
      vertex 85.2865 -24 2.5
      vertex 85.2865 -24 0.743322
    endloop
  endfacet
  facet normal -0.80901 0 0.587795
    outer loop
      vertex 86.9635 -24 0.198416
      vertex 88 -13 1.625
      vertex 86.9635 -13 0.198416
    endloop
  endfacet
  facet normal -0.80901 0 0.587795
    outer loop
      vertex 88 -13 1.625
      vertex 86.9635 -24 0.198416
      vertex 88 -24 1.625
    endloop
  endfacet
  facet normal 0 -1 0
    outer loop
      vertex 85.2865 -13 0.743322
      vertex 87.3643 -13 2.5
      vertex 85.2865 -13 2.5
    endloop
  endfacet
  facet normal 0 -1 0
    outer loop
      vertex 86.9635 -13 0.198416
      vertex 87.3643 -13 2.5
      vertex 85.2865 -13 0.743322
    endloop
  endfacet
  facet normal 0 -1 -0
    outer loop
      vertex 87.3643 -13 2.5
      vertex 86.9635 -13 0.198416
      vertex 88 -13 1.625
    endloop
  endfacet
  facet normal 0.309025 0 0.951054
    outer loop
      vertex 88.1065 -13 0.743322
      vertex 89.7835 -24 0.198416
      vertex 89.7835 -13 0.198416
    endloop
  endfacet
  facet normal 0.309025 0 0.951054
    outer loop
      vertex 89.7835 -24 0.198416
      vertex 88.1065 -13 0.743322
      vertex 88.1065 -24 0.743322
    endloop
  endfacet
  facet normal -0.809028 0 -0.58777
    outer loop
      vertex 90.82 -24 1.625
      vertex 90.1843 -13 2.5
      vertex 90.82 -13 1.625
    endloop
  endfacet
  facet normal -0.809028 -0 -0.58777
    outer loop
      vertex 90.1843 -13 2.5
      vertex 90.82 -24 1.625
      vertex 90.1843 -24 2.5
    endloop
  endfacet
  facet normal 1 -0 0
    outer loop
      vertex 88.1065 -24 2.5
      vertex 88.1065 -13 0.743322
      vertex 88.1065 -13 2.5
    endloop
  endfacet
  facet normal 1 0 0
    outer loop
      vertex 88.1065 -13 0.743322
      vertex 88.1065 -24 2.5
      vertex 88.1065 -24 0.743322
    endloop
  endfacet
  facet normal 0 -1 0
    outer loop
      vertex 88.1065 -13 0.743322
      vertex 90.1843 -13 2.5
      vertex 88.1065 -13 2.5
    endloop
  endfacet
  facet normal 0 -1 0
    outer loop
      vertex 89.7835 -13 0.198416
      vertex 90.1843 -13 2.5
      vertex 88.1065 -13 0.743322
    endloop
  endfacet
  facet normal 0 -1 -0
    outer loop
      vertex 90.1843 -13 2.5
      vertex 89.7835 -13 0.198416
      vertex 90.82 -13 1.625
    endloop
  endfacet
  facet normal -0.80901 0 0.587795
    outer loop
      vertex 89.7835 -24 0.198416
      vertex 90.82 -13 1.625
      vertex 89.7835 -13 0.198416
    endloop
  endfacet
  facet normal -0.80901 0 0.587795
    outer loop
      vertex 90.82 -13 1.625
      vertex 89.7835 -24 0.198416
      vertex 90.82 -24 1.625
    endloop
  endfacet
  facet normal -1 0 0
    outer loop
      vertex 84.9 -22.285 0.0293884
      vertex 84.9 -20.5789 2.5
      vertex 84.9 -20.5636 1.04761
    endloop
  endfacet
  facet normal -1 0 0
    outer loop
      vertex 84.9 -24 2.5
      vertex 84.9 -22.285 0.0293884
      vertex 84.9 -24 0.995549
    endloop
  endfacet
  facet normal -1 0 0
    outer loop
      vertex 84.9 -22.285 0.0293884
      vertex 84.9 -24 2.5
      vertex 84.9 -20.5789 2.5
    endloop
  endfacet
  facet normal 0 -0.509111 0.860701
    outer loop
      vertex 80.9 -20.5636 1.04761
      vertex 84.9 -22.285 0.0293884
      vertex 84.9 -20.5636 1.04761
    endloop
  endfacet
  facet normal 0 -0.509111 0.860701
    outer loop
      vertex 84.9 -22.285 0.0293884
      vertex 80.9 -20.5636 1.04761
      vertex 80.9 -22.285 0.0293884
    endloop
  endfacet
  facet normal 1 0 0
    outer loop
      vertex 80.9 -20.5789 2.5
      vertex 80.9 -22.285 0.0293884
      vertex 80.9 -20.5636 1.04761
    endloop
  endfacet
  facet normal 1 -0 0
    outer loop
      vertex 80.9 -24 2.5
      vertex 80.9 -22.285 0.0293884
      vertex 80.9 -20.5789 2.5
    endloop
  endfacet
  facet normal 1 0 0
    outer loop
      vertex 80.9 -22.285 0.0293884
      vertex 80.9 -24 2.5
      vertex 80.9 -24 0.995549
    endloop
  endfacet
  facet normal 0 -0.999945 -0.0105338
    outer loop
      vertex 80.9 -20.5636 1.04761
      vertex 84.9 -20.5789 2.5
      vertex 80.9 -20.5789 2.5
    endloop
  endfacet
  facet normal 0 -0.999945 -0.0105338
    outer loop
      vertex 84.9 -20.5789 2.5
      vertex 80.9 -20.5636 1.04761
      vertex 84.9 -20.5636 1.04761
    endloop
  endfacet
  facet normal -0 0.49083 0.871256
    outer loop
      vertex 80.9 -22.285 0.0293884
      vertex 84.9 -24 0.995549
      vertex 84.9 -22.285 0.0293884
    endloop
  endfacet
  facet normal 0 0.49083 0.871256
    outer loop
      vertex 84.9 -24 0.995549
      vertex 80.9 -22.285 0.0293884
      vertex 80.9 -24 0.995549
    endloop
  endfacet
  facet normal -1 0 0
    outer loop
      vertex 94.9 -22.285 0.00938797
      vertex 94.9 -20.5792 2.5
      vertex 94.9 -20.5636 1.02761
    endloop
  endfacet
  facet normal -1 0 0
    outer loop
      vertex 94.9 -24 2.5
      vertex 94.9 -22.285 0.00938797
      vertex 94.9 -24 0.975549
    endloop
  endfacet
  facet normal -1 0 0
    outer loop
      vertex 94.9 -22.285 0.00938797
      vertex 94.9 -24 2.5
      vertex 94.9 -20.5792 2.5
    endloop
  endfacet
  facet normal 0 -0.509111 0.860701
    outer loop
      vertex 90.9 -20.5636 1.02761
      vertex 94.9 -22.285 0.00938797
      vertex 94.9 -20.5636 1.02761
    endloop
  endfacet
  facet normal 0 -0.509111 0.860701
    outer loop
      vertex 94.9 -22.285 0.00938797
      vertex 90.9 -20.5636 1.02761
      vertex 90.9 -22.285 0.00938797
    endloop
  endfacet
  facet normal 1 0 0
    outer loop
      vertex 90.9 -20.5792 2.5
      vertex 90.9 -22.285 0.00938797
      vertex 90.9 -20.5636 1.02761
    endloop
  endfacet
  facet normal 1 -0 0
    outer loop
      vertex 90.9 -24 2.5
      vertex 90.9 -22.285 0.00938797
      vertex 90.9 -20.5792 2.5
    endloop
  endfacet
  facet normal 1 0 0
    outer loop
      vertex 90.9 -22.285 0.00938797
      vertex 90.9 -24 2.5
      vertex 90.9 -24 0.975549
    endloop
  endfacet
  facet normal 0 -0.999944 -0.0105944
    outer loop
      vertex 90.9 -20.5636 1.02761
      vertex 94.9 -20.5792 2.5
      vertex 90.9 -20.5792 2.5
    endloop
  endfacet
  facet normal 0 -0.999944 -0.0105944
    outer loop
      vertex 94.9 -20.5792 2.5
      vertex 90.9 -20.5636 1.02761
      vertex 94.9 -20.5636 1.02761
    endloop
  endfacet
  facet normal -0 0.49083 0.871255
    outer loop
      vertex 90.9 -22.285 0.00938797
      vertex 94.9 -24 0.975549
      vertex 94.9 -22.285 0.00938797
    endloop
  endfacet
  facet normal 0 0.49083 0.871255
    outer loop
      vertex 94.9 -24 0.975549
      vertex 90.9 -22.285 0.00938797
      vertex 90.9 -24 0.975549
    endloop
  endfacet
  facet normal 0.612181 -0.767658 0.189568
    outer loop
      vertex 82.5495 -16.7831 0
      vertex 82.7695 -15.9903 2.5
      vertex 82.0669 -16.5506 2.5
    endloop
  endfacet
  facet normal 0.612324 -0.767555 0.189522
    outer loop
      vertex 82.7695 -15.9903 2.5
      vertex 82.5495 -16.7831 0
      vertex 82.8887 -16.5125 0
    endloop
  endfacet
  facet normal -0.218446 0.957265 0.189538
    outer loop
      vertex 83.3738 -17.8718 2.5
      vertex 82.8887 -17.4875 0
      vertex 82.7695 -18.0097 2.5
    endloop
  endfacet
  facet normal 0 0 -1
    outer loop
      vertex 96.5 -24 0
      vertex 93.5 -17 0
      vertex 96.5 -12.98 0
    endloop
  endfacet
  facet normal 0 0 -1
    outer loop
      vertex 96.5 -24 0
      vertex 93.3117 -17.3909 0
      vertex 93.5 -17 0
    endloop
  endfacet
  facet normal 0 0 -1
    outer loop
      vertex 96.5 -24 0
      vertex 92.8887 -17.4875 0
      vertex 93.3117 -17.3909 0
    endloop
  endfacet
  facet normal 0 0 -1
    outer loop
      vertex 83.3117 -17.3909 0
      vertex 92.8887 -17.4875 0
      vertex 96.5 -24 0
    endloop
  endfacet
  facet normal 0 0 -1
    outer loop
      vertex 92.5495 -17.2169 0
      vertex 83.5 -17 0
      vertex 92.5495 -16.7831 0
    endloop
  endfacet
  facet normal 0 0 -1
    outer loop
      vertex 92.8887 -17.4875 0
      vertex 83.3117 -17.3909 0
      vertex 92.5495 -17.2169 0
    endloop
  endfacet
  facet normal -0 0 -1
    outer loop
      vertex 92.5495 -17.2169 0
      vertex 83.3117 -17.3909 0
      vertex 83.5 -17 0
    endloop
  endfacet
  facet normal 0 0 -1
    outer loop
      vertex 79 -24 0
      vertex 83.3117 -17.3909 0
      vertex 96.5 -24 0
    endloop
  endfacet
  facet normal 0 0 -1
    outer loop
      vertex 79 -12.98 0
      vertex 82.5495 -17.2169 0
      vertex 79 -24 0
    endloop
  endfacet
  facet normal -0 0 -1
    outer loop
      vertex 82.8887 -17.4875 0
      vertex 79 -24 0
      vertex 82.5495 -17.2169 0
    endloop
  endfacet
  facet normal 0 0 -1
    outer loop
      vertex 83.3117 -17.3909 0
      vertex 79 -24 0
      vertex 82.8887 -17.4875 0
    endloop
  endfacet
  facet normal 0 0 -1
    outer loop
      vertex 93.3117 -16.6091 0
      vertex 96.5 -12.98 0
      vertex 93.5 -17 0
    endloop
  endfacet
  facet normal 0 0 -1
    outer loop
      vertex 92.8887 -16.5125 0
      vertex 96.5 -12.98 0
      vertex 93.3117 -16.6091 0
    endloop
  endfacet
  facet normal 0 0 -1
    outer loop
      vertex 83.3117 -16.6091 0
      vertex 92.8887 -16.5125 0
      vertex 92.5495 -16.7831 0
    endloop
  endfacet
  facet normal 0 0 -1
    outer loop
      vertex 83.3117 -16.6091 0
      vertex 92.5495 -16.7831 0
      vertex 83.5 -17 0
    endloop
  endfacet
  facet normal -0 0 -1
    outer loop
      vertex 92.8887 -16.5125 0
      vertex 83.3117 -16.6091 0
      vertex 96.5 -12.98 0
    endloop
  endfacet
  facet normal 0 0 -1
    outer loop
      vertex 79 -12.98 0
      vertex 83.3117 -16.6091 0
      vertex 82.8887 -16.5125 0
    endloop
  endfacet
  facet normal 0 0 -1
    outer loop
      vertex 83.3117 -16.6091 0
      vertex 79 -12.98 0
      vertex 96.5 -12.98 0
    endloop
  endfacet
  facet normal 0 0 -1
    outer loop
      vertex 82.5495 -16.7831 0
      vertex 79 -12.98 0
      vertex 82.8887 -16.5125 0
    endloop
  endfacet
  facet normal 0 0 -1
    outer loop
      vertex 82.5495 -17.2169 0
      vertex 79 -12.98 0
      vertex 82.5495 -16.7831 0
    endloop
  endfacet
  facet normal -0.884581 0.42611 0.189596
    outer loop
      vertex 83.3117 -17.3909 0
      vertex 83.7668 -17.5585 2.5
      vertex 83.5 -17 0
    endloop
  endfacet
  facet normal -0.884654 0.425958 0.189599
    outer loop
      vertex 83.7668 -17.5585 2.5
      vertex 83.3117 -17.3909 0
      vertex 83.6458 -17.8098 2.5
    endloop
  endfacet
  facet normal -0.884589 -0.426114 0.18955
    outer loop
      vertex 84.0357 -17 2.5
      vertex 83.3117 -16.6091 0
      vertex 83.5 -17 0
    endloop
  endfacet
  facet normal -0.884661 -0.425944 0.189597
    outer loop
      vertex 83.3117 -16.6091 0
      vertex 84.0357 -17 2.5
      vertex 83.6458 -16.1902 2.5
    endloop
  endfacet
  facet normal 0.612324 0.767555 0.189522
    outer loop
      vertex 82.5495 -17.2169 0
      vertex 82.7695 -18.0097 2.5
      vertex 82.8887 -17.4875 0
    endloop
  endfacet
  facet normal 0.612181 0.767658 0.189568
    outer loop
      vertex 82.7695 -18.0097 2.5
      vertex 82.5495 -17.2169 0
      vertex 82.0669 -17.4494 2.5
    endloop
  endfacet
  facet normal -0.884669 0.42594 0.189567
    outer loop
      vertex 83.7668 -17.5585 2.5
      vertex 84.0357 -17 2.5
      vertex 83.5 -17 0
    endloop
  endfacet
  facet normal -0.218211 0.957313 0.189569
    outer loop
      vertex 83.3117 -17.3909 0
      vertex 83.3738 -17.8718 2.5
      vertex 83.6458 -17.8098 2.5
    endloop
  endfacet
  facet normal -0.2186 0.957225 0.189562
    outer loop
      vertex 83.3738 -17.8718 2.5
      vertex 83.3117 -17.3909 0
      vertex 82.8887 -17.4875 0
    endloop
  endfacet
  facet normal 0.981873 0 0.189541
    outer loop
      vertex 82.0669 -16.5506 2.5
      vertex 82.5495 -17.2169 0
      vertex 82.5495 -16.7831 0
    endloop
  endfacet
  facet normal 0.981873 0 0.189541
    outer loop
      vertex 82.5495 -17.2169 0
      vertex 82.0669 -16.5506 2.5
      vertex 82.0669 -17.4494 2.5
    endloop
  endfacet
  facet normal -0.218446 -0.957265 0.189538
    outer loop
      vertex 82.8887 -16.5125 0
      vertex 83.3738 -16.1282 2.5
      vertex 82.7695 -15.9903 2.5
    endloop
  endfacet
  facet normal -0.2186 -0.957225 0.189562
    outer loop
      vertex 83.3117 -16.6091 0
      vertex 83.3738 -16.1282 2.5
      vertex 82.8887 -16.5125 0
    endloop
  endfacet
  facet normal -0.218211 -0.957313 0.189569
    outer loop
      vertex 83.3738 -16.1282 2.5
      vertex 83.3117 -16.6091 0
      vertex 83.6458 -16.1902 2.5
    endloop
  endfacet
  facet normal 0.612181 -0.767658 0.189568
    outer loop
      vertex 92.5495 -16.7831 0
      vertex 92.7695 -15.9903 2.5
      vertex 92.0669 -16.5506 2.5
    endloop
  endfacet
  facet normal 0.612324 -0.767555 0.189522
    outer loop
      vertex 92.7695 -15.9903 2.5
      vertex 92.5495 -16.7831 0
      vertex 92.8887 -16.5125 0
    endloop
  endfacet
  facet normal -0.218446 0.957265 0.189538
    outer loop
      vertex 93.3738 -17.8718 2.5
      vertex 92.8887 -17.4875 0
      vertex 92.7695 -18.0097 2.5
    endloop
  endfacet
  facet normal -0.884581 0.42611 0.189596
    outer loop
      vertex 93.3117 -17.3909 0
      vertex 93.7668 -17.5585 2.5
      vertex 93.5 -17 0
    endloop
  endfacet
  facet normal -0.884654 0.425958 0.189599
    outer loop
      vertex 93.7668 -17.5585 2.5
      vertex 93.3117 -17.3909 0
      vertex 93.6458 -17.8098 2.5
    endloop
  endfacet
  facet normal -0.884589 -0.426114 0.18955
    outer loop
      vertex 94.0357 -17 2.5
      vertex 93.3117 -16.6091 0
      vertex 93.5 -17 0
    endloop
  endfacet
  facet normal -0.884661 -0.425944 0.189597
    outer loop
      vertex 93.3117 -16.6091 0
      vertex 94.0357 -17 2.5
      vertex 93.6458 -16.1902 2.5
    endloop
  endfacet
  facet normal 0.612324 0.767555 0.189522
    outer loop
      vertex 92.5495 -17.2169 0
      vertex 92.7695 -18.0097 2.5
      vertex 92.8887 -17.4875 0
    endloop
  endfacet
  facet normal 0.612181 0.767658 0.189568
    outer loop
      vertex 92.7695 -18.0097 2.5
      vertex 92.5495 -17.2169 0
      vertex 92.0669 -17.4494 2.5
    endloop
  endfacet
  facet normal -0.884669 0.42594 0.189567
    outer loop
      vertex 93.7668 -17.5585 2.5
      vertex 94.0357 -17 2.5
      vertex 93.5 -17 0
    endloop
  endfacet
  facet normal -0.218211 0.957313 0.189569
    outer loop
      vertex 93.3117 -17.3909 0
      vertex 93.3738 -17.8718 2.5
      vertex 93.6458 -17.8098 2.5
    endloop
  endfacet
  facet normal -0.2186 0.957225 0.189562
    outer loop
      vertex 93.3738 -17.8718 2.5
      vertex 93.3117 -17.3909 0
      vertex 92.8887 -17.4875 0
    endloop
  endfacet
  facet normal 0.981873 0 0.189541
    outer loop
      vertex 92.0669 -16.5506 2.5
      vertex 92.5495 -17.2169 0
      vertex 92.5495 -16.7831 0
    endloop
  endfacet
  facet normal 0.981873 0 0.189541
    outer loop
      vertex 92.5495 -17.2169 0
      vertex 92.0669 -16.5506 2.5
      vertex 92.0669 -17.4494 2.5
    endloop
  endfacet
  facet normal -0.218446 -0.957265 0.189538
    outer loop
      vertex 92.8887 -16.5125 0
      vertex 93.3738 -16.1282 2.5
      vertex 92.7695 -15.9903 2.5
    endloop
  endfacet
  facet normal -0.2186 -0.957225 0.189562
    outer loop
      vertex 93.3117 -16.6091 0
      vertex 93.3738 -16.1282 2.5
      vertex 92.8887 -16.5125 0
    endloop
  endfacet
  facet normal -0.218211 -0.957313 0.189569
    outer loop
      vertex 93.3738 -16.1282 2.5
      vertex 93.3117 -16.6091 0
      vertex 93.6458 -16.1902 2.5
    endloop
  endfacet
  facet normal -1 0 0
    outer loop
      vertex 79 -24 0
      vertex 79 -12.98 2.5
      vertex 79 -12.98 0
    endloop
  endfacet
  facet normal -1 -0 0
    outer loop
      vertex 79 -12.98 2.5
      vertex 79 -24 0
      vertex 79 -24 2.5
    endloop
  endfacet
  facet normal 0 -1 0
    outer loop
      vertex 79 -24 2.5
      vertex 80.9 -24 0.995549
      vertex 80.9 -24 2.5
    endloop
  endfacet
  facet normal 0 -1 0
    outer loop
      vertex 80.9 -24 0.995549
      vertex 85.2865 -24 0.743322
      vertex 84.9 -24 0.995549
    endloop
  endfacet
  facet normal 0 -1 0
    outer loop
      vertex 79 -24 0
      vertex 85.2865 -24 0.743322
      vertex 80.9 -24 0.995549
    endloop
  endfacet
  facet normal 0 -1 -0
    outer loop
      vertex 86.9635 -24 0.198416
      vertex 79 -24 0
      vertex 89.7835 -24 0.198416
    endloop
  endfacet
  facet normal 0 -1 -0
    outer loop
      vertex 85.2865 -24 0.743322
      vertex 79 -24 0
      vertex 86.9635 -24 0.198416
    endloop
  endfacet
  facet normal 0 -1 0
    outer loop
      vertex 79 -24 0
      vertex 80.9 -24 0.995549
      vertex 79 -24 2.5
    endloop
  endfacet
  facet normal 0 -1 0
    outer loop
      vertex 84.9 -24 0.995549
      vertex 85.2865 -24 2.5
      vertex 84.9 -24 2.5
    endloop
  endfacet
  facet normal 0 -1 -0
    outer loop
      vertex 85.2865 -24 2.5
      vertex 84.9 -24 0.995549
      vertex 85.2865 -24 0.743322
    endloop
  endfacet
  facet normal 0 -1 0
    outer loop
      vertex 88 -24 1.625
      vertex 88.1065 -24 2.5
      vertex 87.3643 -24 2.5
    endloop
  endfacet
  facet normal 0 -1 0
    outer loop
      vertex 88 -24 1.625
      vertex 88.1065 -24 0.743322
      vertex 88.1065 -24 2.5
    endloop
  endfacet
  facet normal 0 -1 0
    outer loop
      vertex 86.9635 -24 0.198416
      vertex 88.1065 -24 0.743322
      vertex 88 -24 1.625
    endloop
  endfacet
  facet normal 0 -1 -0
    outer loop
      vertex 88.1065 -24 0.743322
      vertex 86.9635 -24 0.198416
      vertex 89.7835 -24 0.198416
    endloop
  endfacet
  facet normal 0 -1 0
    outer loop
      vertex 90.82 -24 1.625
      vertex 90.9 -24 2.5
      vertex 90.1843 -24 2.5
    endloop
  endfacet
  facet normal 0 -1 0
    outer loop
      vertex 90.82 -24 1.625
      vertex 90.9 -24 0.975549
      vertex 90.9 -24 2.5
    endloop
  endfacet
  facet normal 0 -1 -0
    outer loop
      vertex 90.9 -24 0.975549
      vertex 89.7835 -24 0.198416
      vertex 94.9 -24 0.975549
    endloop
  endfacet
  facet normal 0 -1 0
    outer loop
      vertex 89.7835 -24 0.198416
      vertex 90.9 -24 0.975549
      vertex 90.82 -24 1.625
    endloop
  endfacet
  facet normal 0 -1 0
    outer loop
      vertex 94.9 -24 0.975549
      vertex 96.5 -24 2.5
      vertex 94.9 -24 2.5
    endloop
  endfacet
  facet normal 0 -1 0
    outer loop
      vertex 94.9 -24 0.975549
      vertex 96.5 -24 0
      vertex 96.5 -24 2.5
    endloop
  endfacet
  facet normal 0 -1 0
    outer loop
      vertex 89.7835 -24 0.198416
      vertex 96.5 -24 0
      vertex 94.9 -24 0.975549
    endloop
  endfacet
  facet normal 0 -1 0
    outer loop
      vertex 96.5 -24 0
      vertex 89.7835 -24 0.198416
      vertex 79 -24 0
    endloop
  endfacet
  facet normal 0 0 1
    outer loop
      vertex 96.5 -12.98 2.5
      vertex 94.9 -20.5792 2.5
      vertex 96.5 -24 2.5
    endloop
  endfacet
  facet normal 0 0 1
    outer loop
      vertex 96.5 -12.98 2.5
      vertex 94.0357 -17 2.5
      vertex 94.9 -20.5792 2.5
    endloop
  endfacet
  facet normal 0 0 1
    outer loop
      vertex 96.5 -12.98 2.5
      vertex 93.6458 -16.1902 2.5
      vertex 94.0357 -17 2.5
    endloop
  endfacet
  facet normal 0 0 1
    outer loop
      vertex 96.5 -12.98 2.5
      vertex 93.3738 -16.1282 2.5
      vertex 93.6458 -16.1902 2.5
    endloop
  endfacet
  facet normal 0 0 1
    outer loop
      vertex 96.5 -12.98 2.5
      vertex 92.7695 -15.9903 2.5
      vertex 93.3738 -16.1282 2.5
    endloop
  endfacet
  facet normal -0 0 1
    outer loop
      vertex 90.1843 -13 2.5
      vertex 92.7695 -15.9903 2.5
      vertex 96.5 -12.98 2.5
    endloop
  endfacet
  facet normal 0 0 1
    outer loop
      vertex 90.1843 -13 2.5
      vertex 92.0669 -17.4494 2.5
      vertex 92.0669 -16.5506 2.5
    endloop
  endfacet
  facet normal 0 0 1
    outer loop
      vertex 90.1843 -24 2.5
      vertex 90.9 -20.5792 2.5
      vertex 90.1843 -13 2.5
    endloop
  endfacet
  facet normal 0 0 1
    outer loop
      vertex 92.0669 -17.4494 2.5
      vertex 90.1843 -13 2.5
      vertex 90.9 -20.5792 2.5
    endloop
  endfacet
  facet normal 0 0 1
    outer loop
      vertex 92.7695 -15.9903 2.5
      vertex 90.1843 -13 2.5
      vertex 92.0669 -16.5506 2.5
    endloop
  endfacet
  facet normal 0 0 1
    outer loop
      vertex 96.5 -12.98 2.5
      vertex 88.1065 -13 2.5
      vertex 90.1843 -13 2.5
    endloop
  endfacet
  facet normal 0 0 1
    outer loop
      vertex 88.1065 -13 2.5
      vertex 87.3643 -13 2.5
      vertex 88.1065 -24 2.5
    endloop
  endfacet
  facet normal 0 0 1
    outer loop
      vertex 96.5 -12.98 2.5
      vertex 87.3643 -13 2.5
      vertex 88.1065 -13 2.5
    endloop
  endfacet
  facet normal 0 0 1
    outer loop
      vertex 96.5 -12.98 2.5
      vertex 85.2865 -13 2.5
      vertex 87.3643 -13 2.5
    endloop
  endfacet
  facet normal 0 0 1
    outer loop
      vertex 85.2865 -13 2.5
      vertex 84.9 -20.5789 2.5
      vertex 85.2865 -24 2.5
    endloop
  endfacet
  facet normal 0 0 1
    outer loop
      vertex 85.2865 -13 2.5
      vertex 84.0357 -17 2.5
      vertex 84.9 -20.5789 2.5
    endloop
  endfacet
  facet normal 0 0 1
    outer loop
      vertex 85.2865 -13 2.5
      vertex 83.6458 -16.1902 2.5
      vertex 84.0357 -17 2.5
    endloop
  endfacet
  facet normal 0 0 1
    outer loop
      vertex 85.2865 -13 2.5
      vertex 83.3738 -16.1282 2.5
      vertex 83.6458 -16.1902 2.5
    endloop
  endfacet
  facet normal 0 0 1
    outer loop
      vertex 85.2865 -13 2.5
      vertex 82.7695 -15.9903 2.5
      vertex 83.3738 -16.1282 2.5
    endloop
  endfacet
  facet normal 0 0 1
    outer loop
      vertex 79 -12.98 2.5
      vertex 82.7695 -15.9903 2.5
      vertex 85.2865 -13 2.5
    endloop
  endfacet
  facet normal 0 0 1
    outer loop
      vertex 79 -12.98 2.5
      vertex 82.0669 -17.4494 2.5
      vertex 82.0669 -16.5506 2.5
    endloop
  endfacet
  facet normal -0 0 1
    outer loop
      vertex 79 -12.98 2.5
      vertex 85.2865 -13 2.5
      vertex 96.5 -12.98 2.5
    endloop
  endfacet
  facet normal 0 0 1
    outer loop
      vertex 82.7695 -15.9903 2.5
      vertex 79 -12.98 2.5
      vertex 82.0669 -16.5506 2.5
    endloop
  endfacet
  facet normal 0 0 1
    outer loop
      vertex 82.0669 -17.4494 2.5
      vertex 79 -12.98 2.5
      vertex 80.9 -20.5789 2.5
    endloop
  endfacet
  facet normal 0 0 1
    outer loop
      vertex 79 -24 2.5
      vertex 80.9 -20.5789 2.5
      vertex 79 -12.98 2.5
    endloop
  endfacet
  facet normal 0 0 1
    outer loop
      vertex 80.9 -20.5789 2.5
      vertex 79 -24 2.5
      vertex 80.9 -24 2.5
    endloop
  endfacet
  facet normal 0 0 1
    outer loop
      vertex 96.5 -24 2.5
      vertex 94.9 -20.5792 2.5
      vertex 94.9 -24 2.5
    endloop
  endfacet
  facet normal -0 0 1
    outer loop
      vertex 93.7668 -17.5585 2.5
      vertex 94.9 -20.5792 2.5
      vertex 94.0357 -17 2.5
    endloop
  endfacet
  facet normal -0 0 1
    outer loop
      vertex 93.6458 -17.8098 2.5
      vertex 94.9 -20.5792 2.5
      vertex 93.7668 -17.5585 2.5
    endloop
  endfacet
  facet normal -0 0 1
    outer loop
      vertex 93.3738 -17.8718 2.5
      vertex 94.9 -20.5792 2.5
      vertex 93.6458 -17.8098 2.5
    endloop
  endfacet
  facet normal -0 0 1
    outer loop
      vertex 92.7695 -18.0097 2.5
      vertex 94.9 -20.5792 2.5
      vertex 93.3738 -17.8718 2.5
    endloop
  endfacet
  facet normal 0 0 1
    outer loop
      vertex 90.9 -20.5792 2.5
      vertex 92.7695 -18.0097 2.5
      vertex 92.0669 -17.4494 2.5
    endloop
  endfacet
  facet normal 0 0 1
    outer loop
      vertex 92.7695 -18.0097 2.5
      vertex 90.9 -20.5792 2.5
      vertex 94.9 -20.5792 2.5
    endloop
  endfacet
  facet normal 0 0 1
    outer loop
      vertex 90.9 -20.5792 2.5
      vertex 90.1843 -24 2.5
      vertex 90.9 -24 2.5
    endloop
  endfacet
  facet normal 0 0 1
    outer loop
      vertex 88.1065 -24 2.5
      vertex 87.3643 -13 2.5
      vertex 87.3643 -24 2.5
    endloop
  endfacet
  facet normal 0 0 1
    outer loop
      vertex 85.2865 -24 2.5
      vertex 84.9 -20.5789 2.5
      vertex 84.9 -24 2.5
    endloop
  endfacet
  facet normal -0 0 1
    outer loop
      vertex 83.7668 -17.5585 2.5
      vertex 84.9 -20.5789 2.5
      vertex 84.0357 -17 2.5
    endloop
  endfacet
  facet normal -0 0 1
    outer loop
      vertex 83.6458 -17.8098 2.5
      vertex 84.9 -20.5789 2.5
      vertex 83.7668 -17.5585 2.5
    endloop
  endfacet
  facet normal -0 0 1
    outer loop
      vertex 83.3738 -17.8718 2.5
      vertex 84.9 -20.5789 2.5
      vertex 83.6458 -17.8098 2.5
    endloop
  endfacet
  facet normal -0 0 1
    outer loop
      vertex 82.7695 -18.0097 2.5
      vertex 84.9 -20.5789 2.5
      vertex 83.3738 -17.8718 2.5
    endloop
  endfacet
  facet normal 0 0 1
    outer loop
      vertex 80.9 -20.5789 2.5
      vertex 82.7695 -18.0097 2.5
      vertex 82.0669 -17.4494 2.5
    endloop
  endfacet
  facet normal 0 0 1
    outer loop
      vertex 82.7695 -18.0097 2.5
      vertex 80.9 -20.5789 2.5
      vertex 84.9 -20.5789 2.5
    endloop
  endfacet
  facet normal 1 -0 0
    outer loop
      vertex 96.5 -24 2.5
      vertex 96.5 -12.98 0
      vertex 96.5 -12.98 2.5
    endloop
  endfacet
  facet normal 1 0 0
    outer loop
      vertex 96.5 -12.98 0
      vertex 96.5 -24 2.5
      vertex 96.5 -24 0
    endloop
  endfacet
  facet normal 0 1 -0
    outer loop
      vertex 96.5 -12.98 0
      vertex 79 -12.98 2.5
      vertex 96.5 -12.98 2.5
    endloop
  endfacet
  facet normal 0 1 0
    outer loop
      vertex 79 -12.98 2.5
      vertex 96.5 -12.98 0
      vertex 79 -12.98 0
    endloop
  endfacet
  facet normal -1 0 0
    outer loop
      vertex 52 -16.5 1.5
      vertex 52 -13 0
      vertex 52 -16.5 0.200001
    endloop
  endfacet
  facet normal -1 0 0
    outer loop
      vertex 52 -13 0
      vertex 52 -17.8 0.200001
      vertex 52 -16.5 0.200001
    endloop
  endfacet
  facet normal -1 -0 0
    outer loop
      vertex 52 -17.8 0.200001
      vertex 52 -24.02 0
      vertex 52 -17.8 1.5
    endloop
  endfacet
  facet normal -1 0 0
    outer loop
      vertex 52 -24.02 0
      vertex 52 -17.8 0.200001
      vertex 52 -13 0
    endloop
  endfacet
  facet normal -1 0 0
    outer loop
      vertex 52 -13 0
      vertex 52 -16.5 1.5
      vertex 52 -13 2.5
    endloop
  endfacet
  facet normal -1 0 0
    outer loop
      vertex 52 -17.8 1.5
      vertex 52 -13 2.5
      vertex 52 -16.5 1.5
    endloop
  endfacet
  facet normal -1 0 0
    outer loop
      vertex 52 -17.8 1.5
      vertex 52 -24.02 2.5
      vertex 52 -13 2.5
    endloop
  endfacet
  facet normal -1 0 0
    outer loop
      vertex 52 -24.02 2.5
      vertex 52 -17.8 1.5
      vertex 52 -24.02 0
    endloop
  endfacet
  facet normal 1 0 0
    outer loop
      vertex 69.5 -13 2.5
      vertex 69.5 -16.5 1.5
      vertex 69.5 -13 0
    endloop
  endfacet
  facet normal 1 0 0
    outer loop
      vertex 69.5 -13 2.5
      vertex 69.5 -17.8 1.5
      vertex 69.5 -16.5 1.5
    endloop
  endfacet
  facet normal 1 0 0
    outer loop
      vertex 69.5 -24.02 0
      vertex 69.5 -17.8 1.5
      vertex 69.5 -24.02 2.5
    endloop
  endfacet
  facet normal 1 -0 0
    outer loop
      vertex 69.5 -24.02 2.5
      vertex 69.5 -17.8 1.5
      vertex 69.5 -13 2.5
    endloop
  endfacet
  facet normal 1 -0 0
    outer loop
      vertex 69.5 -16.5 0.200001
      vertex 69.5 -13 0
      vertex 69.5 -16.5 1.5
    endloop
  endfacet
  facet normal 1 -0 0
    outer loop
      vertex 69.5 -17.8 0.200001
      vertex 69.5 -13 0
      vertex 69.5 -16.5 0.200001
    endloop
  endfacet
  facet normal 1 0 0
    outer loop
      vertex 69.5 -17.8 0.200001
      vertex 69.5 -24.02 0
      vertex 69.5 -13 0
    endloop
  endfacet
  facet normal 1 0 0
    outer loop
      vertex 69.5 -17.8 1.5
      vertex 69.5 -24.02 0
      vertex 69.5 -17.8 0.200001
    endloop
  endfacet
  facet normal 0 -1 0
    outer loop
      vertex 52 -24.02 2.5
      vertex 53.5 -24.02 1.00682
      vertex 53.5 -24.02 2.5
    endloop
  endfacet
  facet normal 0 -1 0
    outer loop
      vertex 53.5 -24.02 1.00682
      vertex 57.9865 -24.02 0.743322
      vertex 57.5 -24.02 1.00682
    endloop
  endfacet
  facet normal 0 -1 0
    outer loop
      vertex 52 -24.02 0
      vertex 57.9865 -24.02 0.743322
      vertex 53.5 -24.02 1.00682
    endloop
  endfacet
  facet normal 0 -1 -0
    outer loop
      vertex 59.6635 -24.02 0.198416
      vertex 52 -24.02 0
      vertex 62.4835 -24.02 0.198416
    endloop
  endfacet
  facet normal 0 -1 -0
    outer loop
      vertex 57.9865 -24.02 0.743322
      vertex 52 -24.02 0
      vertex 59.6635 -24.02 0.198416
    endloop
  endfacet
  facet normal 0 -1 0
    outer loop
      vertex 52 -24.02 0
      vertex 53.5 -24.02 1.00682
      vertex 52 -24.02 2.5
    endloop
  endfacet
  facet normal 0 -1 0
    outer loop
      vertex 57.5 -24.02 1.00682
      vertex 57.9865 -24.02 2.5
      vertex 57.5 -24.02 2.5
    endloop
  endfacet
  facet normal 0 -1 -0
    outer loop
      vertex 57.9865 -24.02 2.5
      vertex 57.5 -24.02 1.00682
      vertex 57.9865 -24.02 0.743322
    endloop
  endfacet
  facet normal 0 -1 0
    outer loop
      vertex 60.7 -24.02 1.625
      vertex 60.8065 -24.02 2.5
      vertex 60.0643 -24.02 2.5
    endloop
  endfacet
  facet normal 0 -1 0
    outer loop
      vertex 60.7 -24.02 1.625
      vertex 60.8065 -24.02 0.743322
      vertex 60.8065 -24.02 2.5
    endloop
  endfacet
  facet normal 0 -1 0
    outer loop
      vertex 59.6635 -24.02 0.198416
      vertex 60.8065 -24.02 0.743322
      vertex 60.7 -24.02 1.625
    endloop
  endfacet
  facet normal 0 -1 -0
    outer loop
      vertex 60.8065 -24.02 0.743322
      vertex 59.6635 -24.02 0.198416
      vertex 62.4835 -24.02 0.198416
    endloop
  endfacet
  facet normal 0 -1 -0
    outer loop
      vertex 63.5 -24.02 0.986816
      vertex 62.4835 -24.02 0.198416
      vertex 67.5 -24.02 0.986816
    endloop
  endfacet
  facet normal 0 -1 0
    outer loop
      vertex 62.4835 -24.02 0.198416
      vertex 63.5 -24.02 0.986816
      vertex 63.5 -24.02 1.59747
    endloop
  endfacet
  facet normal 0 -1 0
    outer loop
      vertex 67.5 -24.02 0.986816
      vertex 69.5 -24.02 2.5
      vertex 67.5 -24.02 2.5
    endloop
  endfacet
  facet normal 0 -1 0
    outer loop
      vertex 67.5 -24.02 0.986816
      vertex 69.5 -24.02 0
      vertex 69.5 -24.02 2.5
    endloop
  endfacet
  facet normal 0 -1 0
    outer loop
      vertex 62.4835 -24.02 0.198416
      vertex 69.5 -24.02 0
      vertex 67.5 -24.02 0.986816
    endloop
  endfacet
  facet normal 0 -1 0
    outer loop
      vertex 69.5 -24.02 0
      vertex 62.4835 -24.02 0.198416
      vertex 52 -24.02 0
    endloop
  endfacet
  facet normal -0 -1 -0
    outer loop
      vertex 63.5 -24.02 2.5
      vertex 62.8843 -24.02 2.5
      vertex 63.5 -24.02 1.65253
    endloop
  endfacet
  facet normal 0 0 1
    outer loop
      vertex 57.9865 -13 2.5
      vertex 57.5 -20.5789 2.5
      vertex 57.9865 -24.02 2.5
    endloop
  endfacet
  facet normal 0 0 1
    outer loop
      vertex 57.9865 -13 2.5
      vertex 57.0357 -17 2.5
      vertex 57.5 -20.5789 2.5
    endloop
  endfacet
  facet normal 0 0 1
    outer loop
      vertex 57.9865 -13 2.5
      vertex 56.6458 -16.1902 2.5
      vertex 57.0357 -17 2.5
    endloop
  endfacet
  facet normal 0 0 1
    outer loop
      vertex 57.9865 -13 2.5
      vertex 56.3738 -16.1282 2.5
      vertex 56.6458 -16.1902 2.5
    endloop
  endfacet
  facet normal 0 0 1
    outer loop
      vertex 57.9865 -13 2.5
      vertex 55.7695 -15.9903 2.5
      vertex 56.3738 -16.1282 2.5
    endloop
  endfacet
  facet normal -0 0 1
    outer loop
      vertex 52 -13 2.5
      vertex 55.7695 -15.9903 2.5
      vertex 57.9865 -13 2.5
    endloop
  endfacet
  facet normal 0 0 1
    outer loop
      vertex 52 -13 2.5
      vertex 55.0669 -17.4494 2.5
      vertex 55.0669 -16.5506 2.5
    endloop
  endfacet
  facet normal 0 0 1
    outer loop
      vertex 55.7695 -15.9903 2.5
      vertex 52 -13 2.5
      vertex 55.0669 -16.5506 2.5
    endloop
  endfacet
  facet normal 0 0 1
    outer loop
      vertex 55.0669 -17.4494 2.5
      vertex 52 -13 2.5
      vertex 53.5 -20.5789 2.5
    endloop
  endfacet
  facet normal 0 0 1
    outer loop
      vertex 52 -24.02 2.5
      vertex 53.5 -20.5789 2.5
      vertex 52 -13 2.5
    endloop
  endfacet
  facet normal 0 0 1
    outer loop
      vertex 53.5 -20.5789 2.5
      vertex 52 -24.02 2.5
      vertex 53.5 -24.02 2.5
    endloop
  endfacet
  facet normal 0 0 1
    outer loop
      vertex 57.9865 -24.02 2.5
      vertex 57.5 -20.5789 2.5
      vertex 57.5 -24.02 2.5
    endloop
  endfacet
  facet normal -0 0 1
    outer loop
      vertex 56.7668 -17.5585 2.5
      vertex 57.5 -20.5789 2.5
      vertex 57.0357 -17 2.5
    endloop
  endfacet
  facet normal -0 0 1
    outer loop
      vertex 56.6458 -17.8098 2.5
      vertex 57.5 -20.5789 2.5
      vertex 56.7668 -17.5585 2.5
    endloop
  endfacet
  facet normal -0 0 1
    outer loop
      vertex 56.3738 -17.8718 2.5
      vertex 57.5 -20.5789 2.5
      vertex 56.6458 -17.8098 2.5
    endloop
  endfacet
  facet normal -0 0 1
    outer loop
      vertex 55.7695 -18.0097 2.5
      vertex 57.5 -20.5789 2.5
      vertex 56.3738 -17.8718 2.5
    endloop
  endfacet
  facet normal 0 0 1
    outer loop
      vertex 53.5 -20.5789 2.5
      vertex 55.7695 -18.0097 2.5
      vertex 55.0669 -17.4494 2.5
    endloop
  endfacet
  facet normal 0 0 1
    outer loop
      vertex 55.7695 -18.0097 2.5
      vertex 53.5 -20.5789 2.5
      vertex 57.5 -20.5789 2.5
    endloop
  endfacet
  facet normal 0 0 1
    outer loop
      vertex 69.5 -13 2.5
      vertex 67.5 -20.5792 2.5
      vertex 69.5 -24.02 2.5
    endloop
  endfacet
  facet normal 0 0 1
    outer loop
      vertex 69.5 -13 2.5
      vertex 67.0357 -17 2.5
      vertex 67.5 -20.5792 2.5
    endloop
  endfacet
  facet normal 0 0 1
    outer loop
      vertex 69.5 -13 2.5
      vertex 66.6458 -16.1902 2.5
      vertex 67.0357 -17 2.5
    endloop
  endfacet
  facet normal 0 0 1
    outer loop
      vertex 69.5 -13 2.5
      vertex 66.3738 -16.1282 2.5
      vertex 66.6458 -16.1902 2.5
    endloop
  endfacet
  facet normal 0 0 1
    outer loop
      vertex 69.5 -13 2.5
      vertex 65.7695 -15.9903 2.5
      vertex 66.3738 -16.1282 2.5
    endloop
  endfacet
  facet normal -0 0 1
    outer loop
      vertex 62.8843 -13 2.5
      vertex 65.7695 -15.9903 2.5
      vertex 69.5 -13 2.5
    endloop
  endfacet
  facet normal 0 0 1
    outer loop
      vertex 65.0669 -16.5506 2.5
      vertex 63.5 -20.5792 2.5
      vertex 65.0669 -17.4494 2.5
    endloop
  endfacet
  facet normal 0 0 1
    outer loop
      vertex 65.7695 -15.9903 2.5
      vertex 62.8843 -13 2.5
      vertex 65.0669 -16.5506 2.5
    endloop
  endfacet
  facet normal 0 0 1
    outer loop
      vertex 62.8843 -13 2.5
      vertex 63.5 -20.5792 2.5
      vertex 65.0669 -16.5506 2.5
    endloop
  endfacet
  facet normal 0 0 1
    outer loop
      vertex 62.8843 -24.02 2.5
      vertex 63.5 -20.5792 2.5
      vertex 62.8843 -13 2.5
    endloop
  endfacet
  facet normal 0 0 1
    outer loop
      vertex 63.5 -20.5792 2.5
      vertex 62.8843 -24.02 2.5
      vertex 63.5 -24.02 2.5
    endloop
  endfacet
  facet normal 0 0 1
    outer loop
      vertex 69.5 -24.02 2.5
      vertex 67.5 -20.5792 2.5
      vertex 67.5 -24.02 2.5
    endloop
  endfacet
  facet normal -0 0 1
    outer loop
      vertex 66.7668 -17.5585 2.5
      vertex 67.5 -20.5792 2.5
      vertex 67.0357 -17 2.5
    endloop
  endfacet
  facet normal -0 0 1
    outer loop
      vertex 66.6458 -17.8098 2.5
      vertex 67.5 -20.5792 2.5
      vertex 66.7668 -17.5585 2.5
    endloop
  endfacet
  facet normal -0 0 1
    outer loop
      vertex 66.3738 -17.8718 2.5
      vertex 67.5 -20.5792 2.5
      vertex 66.6458 -17.8098 2.5
    endloop
  endfacet
  facet normal -0 0 1
    outer loop
      vertex 65.7695 -18.0097 2.5
      vertex 67.5 -20.5792 2.5
      vertex 66.3738 -17.8718 2.5
    endloop
  endfacet
  facet normal 0 0 1
    outer loop
      vertex 63.5 -20.5792 2.5
      vertex 65.7695 -18.0097 2.5
      vertex 65.0669 -17.4494 2.5
    endloop
  endfacet
  facet normal 0 0 1
    outer loop
      vertex 65.7695 -18.0097 2.5
      vertex 63.5 -20.5792 2.5
      vertex 67.5 -20.5792 2.5
    endloop
  endfacet
  facet normal -0 0 1
    outer loop
      vertex 60.0643 -13 2.5
      vertex 60.8065 -24.02 2.5
      vertex 60.8065 -13 2.5
    endloop
  endfacet
  facet normal 0 0 1
    outer loop
      vertex 60.8065 -24.02 2.5
      vertex 60.0643 -13 2.5
      vertex 60.0643 -24.02 2.5
    endloop
  endfacet
endsolid OpenSCAD_Model
